<?xml version="1.0" encoding="UTF-8"?>
<!DOCTYPE svg PUBLIC "-//W3C//DTD SVG 1.1//EN"
    "http://www.w3.org/Graphics/SVG/1.1/DTD/svg11.dtd"><svg xmlns="http://www.w3.org/2000/svg" height="300.0000" stroke-opacity="1" viewBox="0 0 300 300" font-size="1" width="300.0000" xmlns:xlink="http://www.w3.org/1999/xlink" stroke="rgb(0,0,0)" version="1.1"><defs></defs><g stroke-linejoin="miter" stroke-opacity="1.0" fill-opacity="0.0" stroke="rgb(0,0,0)" stroke-width="1.1928279007873377" fill="rgb(0,0,0)" stroke-linecap="butt" stroke-miterlimit="10.0"><path d="M 265.2613,276.4601 l 0.0000,-8.0225 l -6.9477,-4.0113 l -6.9477,4.0113 l -0.0000,8.0225 l 6.9477,4.0113 Z"/></g><g stroke-linejoin="miter" stroke-opacity="1.0" fill-opacity="0.0" stroke="rgb(0,0,0)" stroke-width="1.1928279007873377" fill="rgb(0,0,0)" stroke-linecap="butt" stroke-miterlimit="10.0"><path d="M 272.2090,288.4939 l 0.0000,-8.0225 l -6.9477,-4.0113 l -6.9477,4.0113 l -0.0000,8.0225 l 6.9477,4.0113 Z"/></g><g stroke-linejoin="miter" stroke-opacity="1.0" fill-opacity="0.0" stroke="rgb(0,0,0)" stroke-width="1.1928279007873377" fill="rgb(0,0,0)" stroke-linecap="butt" stroke-miterlimit="10.0"><path d="M 272.2090,264.4263 l 0.0000,-8.0225 l -6.9477,-4.0113 l -6.9477,4.0113 l -0.0000,8.0225 l 6.9477,4.0113 Z"/></g><g stroke-linejoin="miter" stroke-opacity="1.0" fill-opacity="0.0" stroke="rgb(0,0,0)" stroke-width="1.1928279007873377" fill="rgb(0,0,0)" stroke-linecap="butt" stroke-miterlimit="10.0"><path d="M 258.3136,288.4939 l 0.0000,-8.0225 l -6.9477,-4.0113 l -6.9477,4.0113 l -0.0000,8.0225 l 6.9477,4.0113 Z"/></g><g stroke-linejoin="miter" stroke-opacity="1.0" fill-opacity="0.0" stroke="rgb(0,0,0)" stroke-width="1.1928279007873377" fill="rgb(0,0,0)" stroke-linecap="butt" stroke-miterlimit="10.0"><path d="M 286.1045,264.4263 l 0.0000,-8.0225 l -6.9477,-4.0113 l -6.9477,4.0113 l -0.0000,8.0225 l 6.9477,4.0113 Z"/></g><g stroke-linejoin="miter" stroke-opacity="1.0" fill-opacity="0.0" stroke="rgb(0,0,0)" stroke-width="1.1928279007873377" fill="rgb(0,0,0)" stroke-linecap="butt" stroke-miterlimit="10.0"><path d="M 279.1568,252.3925 l 0.0000,-8.0225 l -6.9477,-4.0113 l -6.9477,4.0113 l -0.0000,8.0225 l 6.9477,4.0113 Z"/></g><g stroke-linejoin="miter" stroke-opacity="1.0" fill-opacity="0.0" stroke="rgb(255,0,0)" stroke-width="1.1928279007873377" fill="rgb(0,0,0)" stroke-linecap="butt" stroke-miterlimit="10.0"><path d="M 286.1045,284.4826 c 1.5699,-2.3077 3.1686,-4.9261 4.0505 -7.7156c 0.8819,-2.7896 1.0472,-5.7503 0.7895 -8.6784c -0.2576,-2.9280 -0.9381,-5.8233 -1.8360 -8.8248c -0.8979,-3.0015 -2.0133,-6.1093 -3.7909 -8.7329c -1.7776,-2.6237 -4.2174,-4.7632 -6.8442 -6.6175c -2.6268,-1.8543 -5.4407,-3.4234 -8.4549 -4.4620c -3.0143,-1.0386 -6.2290,-1.5468 -9.4165 -1.4014c -3.1876,0.1454 -6.3480,0.9444 -9.2360 2.3088c -2.8880,1.3644 -5.5036,3.2940 -7.6494 5.6675c -2.1458,2.3735 -3.8219,5.1908 -4.8983 8.1634c -1.0764,2.9726 -1.5530,6.1005 -1.6929 8.9803c -0.1399,2.8798 0.0569,5.5115 1.1321 8.2041c 1.0752,2.6926 3.0289,5.4461 4.1855 7.1464c 1.1566,1.7003 1.5162,2.3474 1.5747 2.9184c 0.0585,0.5710 -0.1841,1.0658 -0.1024 1.5618c 0.0817,0.4959 0.4877,0.9930 0.5031 1.4821c 0.0154,0.4891 -0.3597,0.9702 -0.5031 1.4821c -0.1434,0.5119 -0.0549,1.0546 0.1024 1.5618c 0.1573,0.5072 0.3834,0.9788 0.6922 1.4037c 0.3089,0.4249 0.7004,0.8029 1.1767 1.0320c 0.4763,0.2290 1.0372,0.3090 1.4821 0.5031c 0.4448,0.1941 0.7736,0.5023 1.1610 0.8651c 0.3875,0.3628 0.8337,0.7801 1.3013 0.8695c 0.4676,0.0894 0.9567,-0.1490 1.5350 0.3053c 0.5784,0.4543 1.2461,1.6013 2.0639 2.3534c 0.8179,0.7521 1.7859,1.1092 2.8074 1.3845c 1.0216,0.2753 2.0967,0.4686 3.4150 0.6410c 1.3184,0.1724 2.8800,0.3237 4.1408 0.0258c 1.2608,-0.2980 2.2207,-1.0452 3.8355 -1.5608c 1.6148,-0.5156 3.8844,-0.7995 6.2975 -1.5216c 2.4131,-0.7221 4.9697,-1.8824 7.0186 -3.4612c 2.0488,-1.5787 3.5899,-3.5759 5.1598 -5.8836Z"/></g><g stroke-linejoin="miter" stroke-opacity="1.0" fill-opacity="1.0" stroke="rgb(0,0,0)" stroke-width="0.0" fill="rgb(255,0,0)" stroke-linecap="butt" stroke-miterlimit="10.0"><path d="M 252.5470,284.4826 c 0.0000,-0.6523 -0.5288,-1.1811 -1.1811 -1.1811c -0.6523,-0.0000 -1.1811,0.5288 -1.1811 1.1811c -0.0000,0.6523 0.5288,1.1811 1.1811 1.1811c 0.6523,0.0000 1.1811,-0.5288 1.1811 -1.1811Z"/></g><g stroke-linejoin="miter" stroke-opacity="1.0" fill-opacity="0.0" stroke="rgb(0,0,0)" stroke-width="1.1928279007873377" fill="rgb(0,0,0)" stroke-linecap="butt" stroke-miterlimit="10.0"><path d="M 299.9999,211.6853 l 0.0000,-8.0225 l -6.9477,-4.0113 l -6.9477,4.0113 l -0.0000,8.0225 l 6.9477,4.0113 Z"/></g><g stroke-linejoin="miter" stroke-opacity="1.0" fill-opacity="0.0" stroke="rgb(0,0,0)" stroke-width="1.1928279007873377" fill="rgb(0,0,0)" stroke-linecap="butt" stroke-miterlimit="10.0"><path d="M 293.0522,223.7191 l 0.0000,-8.0225 l -6.9477,-4.0113 l -6.9477,4.0113 l -0.0000,8.0225 l 6.9477,4.0113 Z"/></g><g stroke-linejoin="miter" stroke-opacity="1.0" fill-opacity="0.0" stroke="rgb(0,0,0)" stroke-width="1.1928279007873377" fill="rgb(0,0,0)" stroke-linecap="butt" stroke-miterlimit="10.0"><path d="M 286.1045,211.6853 l 0.0000,-8.0225 l -6.9477,-4.0113 l -6.9477,4.0113 l -0.0000,8.0225 l 6.9477,4.0113 Z"/></g><g stroke-linejoin="miter" stroke-opacity="1.0" fill-opacity="0.0" stroke="rgb(0,0,0)" stroke-width="1.1928279007873377" fill="rgb(0,0,0)" stroke-linecap="butt" stroke-miterlimit="10.0"><path d="M 272.2090,211.6853 l 0.0000,-8.0225 l -6.9477,-4.0113 l -6.9477,4.0113 l -0.0000,8.0225 l 6.9477,4.0113 Z"/></g><g stroke-linejoin="miter" stroke-opacity="1.0" fill-opacity="0.0" stroke="rgb(0,0,0)" stroke-width="1.1928279007873377" fill="rgb(0,0,0)" stroke-linecap="butt" stroke-miterlimit="10.0"><path d="M 265.2613,223.7191 l 0.0000,-8.0225 l -6.9477,-4.0113 l -6.9477,4.0113 l -0.0000,8.0225 l 6.9477,4.0113 Z"/></g><g stroke-linejoin="miter" stroke-opacity="1.0" fill-opacity="0.0" stroke="rgb(0,0,0)" stroke-width="1.1928279007873377" fill="rgb(0,0,0)" stroke-linecap="butt" stroke-miterlimit="10.0"><path d="M 258.3136,211.6853 l 0.0000,-8.0225 l -6.9477,-4.0113 l -6.9477,4.0113 l -0.0000,8.0225 l 6.9477,4.0113 Z"/></g><g stroke-linejoin="miter" stroke-opacity="1.0" fill-opacity="0.0" stroke="rgb(255,0,0)" stroke-width="1.1928279007873377" fill="rgb(0,0,0)" stroke-linecap="butt" stroke-miterlimit="10.0"><path d="M 299.9999,207.6740 c -0.0051,-3.2140 -0.1802,-6.4254 -1.0835 -9.4584c -0.9033,-3.0330 -2.5350,-5.8875 -4.6206 -8.3238c -2.0856,-2.4363 -4.6250,-4.4543 -7.4542 -5.9219c -2.8292,-1.4676 -5.9483,-2.3848 -9.1530 -2.6185c -3.2048,-0.2337 -6.4952,0.2161 -9.4584 1.0835c -2.9632,0.8674 -5.5990,2.1522 -7.9230 3.6531c -2.3240,1.5009 -4.3361,3.2178 -5.8196 5.8925c -1.4834,2.6746 -2.4382,6.3070 -3.1216 7.6710c -0.6834,1.3640 -1.0956,0.4596 -1.5350 0.3053c -0.4395,-0.1543 -0.9063,0.4415 -1.3013 0.8695c -0.3950,0.4281 -0.7182,0.6885 -1.1610 0.8651c -0.4428,0.1766 -1.0053,0.2694 -1.4821 0.5031c -0.4768,0.2337 -0.8678,0.6083 -1.1767 1.0320c -0.3089,0.4237 -0.5357,0.8964 -0.6922 1.4037c -0.1566,0.5073 -0.2430,1.0491 -0.1024 1.5618c 0.1406,0.5126 0.5082,0.9960 0.5031 1.4821c -0.0051,0.4860 -0.3830,0.9747 -0.5031 1.4821c -0.1201,0.5073 0.0177,1.0333 0.1024 1.5618c 0.0846,0.5285 0.1161,1.0594 -0.0634 1.9086c -0.1795,0.8492 -0.5701,2.0168 -0.6107 3.0701c -0.0406,1.0533 0.2688,1.9924 0.6107 3.0701c 0.3419,1.0777 0.7162,2.2939 1.3383 3.5701c 0.6221,1.2762 1.4920,2.6125 2.5003 3.3008c 1.0083,0.6883 2.1551,0.7287 3.5732 2.0927c 1.4181,1.3640 3.1075,4.0516 5.1598 5.8836c 2.0523,1.8320 4.4675,2.8084 7.0186 3.4612c 2.5511,0.6527 5.2381,0.9818 8.1003 0.9481c 2.8622,-0.0337 5.8996,-0.4302 8.5870 -1.4835c 2.6874,-1.0533 5.0248,-2.7635 7.3656 -4.6567c 2.3408,-1.8932 4.6850,-3.9694 6.6986 -6.4268c 2.0136,-2.4574 3.6967,-5.2961 4.6206 -8.3238c 0.9239,-3.0277 1.0886,-6.2443 1.0835 -9.4584Z"/></g><g stroke-linejoin="miter" stroke-opacity="1.0" fill-opacity="1.0" stroke="rgb(0,0,0)" stroke-width="0.0" fill="rgb(255,0,0)" stroke-linecap="butt" stroke-miterlimit="10.0"><path d="M 252.5006,207.6740 c 0.0000,-0.6267 -0.5080,-1.1347 -1.1347 -1.1347c -0.6267,-0.0000 -1.1347,0.5080 -1.1347 1.1347c -0.0000,0.6267 0.5080,1.1347 1.1347 1.1347c 0.6267,0.0000 1.1347,-0.5080 1.1347 -1.1347Z"/></g><g stroke-linejoin="miter" stroke-opacity="1.0" fill-opacity="0.0" stroke="rgb(0,0,0)" stroke-width="1.1928279007873377" fill="rgb(0,0,0)" stroke-linecap="butt" stroke-miterlimit="10.0"><path d="M 265.2613,135.9904 l 0.0000,-8.0225 l -6.9477,-4.0113 l -6.9477,4.0113 l -0.0000,8.0225 l 6.9477,4.0113 Z"/></g><g stroke-linejoin="miter" stroke-opacity="1.0" fill-opacity="0.0" stroke="rgb(0,0,0)" stroke-width="1.1928279007873377" fill="rgb(0,0,0)" stroke-linecap="butt" stroke-miterlimit="10.0"><path d="M 272.2090,148.0242 l 0.0000,-8.0225 l -6.9477,-4.0113 l -6.9477,4.0113 l -0.0000,8.0225 l 6.9477,4.0113 Z"/></g><g stroke-linejoin="miter" stroke-opacity="1.0" fill-opacity="0.0" stroke="rgb(0,0,0)" stroke-width="1.1928279007873377" fill="rgb(0,0,0)" stroke-linecap="butt" stroke-miterlimit="10.0"><path d="M 279.1568,160.0580 l 0.0000,-8.0225 l -6.9477,-4.0113 l -6.9477,4.0113 l -0.0000,8.0225 l 6.9477,4.0113 Z"/></g><g stroke-linejoin="miter" stroke-opacity="1.0" fill-opacity="0.0" stroke="rgb(0,0,0)" stroke-width="1.1928279007873377" fill="rgb(0,0,0)" stroke-linecap="butt" stroke-miterlimit="10.0"><path d="M 272.2090,172.0918 l 0.0000,-8.0225 l -6.9477,-4.0113 l -6.9477,4.0113 l -0.0000,8.0225 l 6.9477,4.0113 Z"/></g><g stroke-linejoin="miter" stroke-opacity="1.0" fill-opacity="0.0" stroke="rgb(0,0,0)" stroke-width="1.1928279007873377" fill="rgb(0,0,0)" stroke-linecap="butt" stroke-miterlimit="10.0"><path d="M 286.1045,172.0918 l 0.0000,-8.0225 l -6.9477,-4.0113 l -6.9477,4.0113 l -0.0000,8.0225 l 6.9477,4.0113 Z"/></g><g stroke-linejoin="miter" stroke-opacity="1.0" fill-opacity="0.0" stroke="rgb(0,0,0)" stroke-width="1.1928279007873377" fill="rgb(0,0,0)" stroke-linecap="butt" stroke-miterlimit="10.0"><path d="M 258.3136,148.0242 l 0.0000,-8.0225 l -6.9477,-4.0113 l -6.9477,4.0113 l -0.0000,8.0225 l 6.9477,4.0113 Z"/></g><g stroke-linejoin="miter" stroke-opacity="1.0" fill-opacity="0.0" stroke="rgb(255,0,0)" stroke-width="1.1928279007873377" fill="rgb(0,0,0)" stroke-linecap="butt" stroke-miterlimit="10.0"><path d="M 286.1045,144.0129 c -1.5596,-2.3077 -3.0904,-4.3101 -5.1598 -5.8836c -2.0694,-1.5734 -4.6774,-2.7179 -7.0186 -3.4612c -2.3412,-0.7433 -4.4156,-1.0854 -5.5419 -2.0265c -1.1263,-0.9412 -1.3046,-2.4814 -2.0481 -3.5990c -0.7434,-1.1176 -2.0520,-1.8125 -3.2695 -2.5412c -1.2174,-0.7287 -2.3437,-1.4911 -3.5923 -2.0641c -1.2487,-0.5729 -2.6197,-0.9563 -4.0064 -1.0468c -1.3867,-0.0905 -2.7890,0.1117 -4.1020 0.5660c -1.3130,0.4543 -2.5367,1.1607 -3.5732 2.0927c -1.0365,0.9321 -1.8858,2.0899 -2.5003 3.3008c -0.6146,1.2109 -0.9945,2.4750 -1.3383 3.5701c -0.3439,1.0952 -0.6518,2.0214 -0.6107 3.0701c 0.0411,1.0486 0.4311,2.2197 0.6107 3.0701c 0.1796,0.8504 0.1487,1.3803 0.0634 1.9086c -0.0853,0.5283 -0.2252,1.0552 -0.1024 1.5618c 0.1228,0.5066 0.5082,0.9930 0.5031 1.4821c -0.0051,0.4891 -0.4008,0.9808 -0.5031 1.4821c -0.1023,0.5012 0.0889,1.0119 0.1024 1.5618c 0.0134,0.5498 -0.1509,1.1388 -0.8191 2.4135c -0.6682,1.2747 -1.8402,3.2353 -2.3981 5.1082c -0.5579,1.8730 -0.5016,3.6584 -0.2607 5.6371c 0.2409,1.9787 0.6664,4.1508 1.5156 6.2752c 0.8493,2.1244 2.1223,4.2013 3.6993 5.7321c 1.5770,1.5309 3.4579,2.5158 5.6113 3.8801c 2.1534,1.3644 4.5792,3.1081 7.1979 4.0962c 2.6187,0.9880 5.4304,1.2203 8.2175 1.0299c 2.7872,-0.1905 5.5498,-0.8037 8.2776 -1.7570c 2.7278,-0.9532 5.4207,-2.2465 7.7156 -4.0505c 2.2949,-1.8040 4.1919,-4.1189 5.5782 -6.6948c 1.3863,-2.5760 2.2621,-5.4130 2.5916 -8.3199c 0.3296,-2.9069 0.1130,-5.8835 -0.7895 -8.6784c -0.9025,-2.7948 -2.4909,-5.4079 -4.0505 -7.7156Z"/></g><g stroke-linejoin="miter" stroke-opacity="1.0" fill-opacity="1.0" stroke="rgb(0,0,0)" stroke-width="0.0" fill="rgb(255,0,0)" stroke-linecap="butt" stroke-miterlimit="10.0"><path d="M 252.5243,144.0129 c 0.0000,-0.6398 -0.5186,-1.1584 -1.1584 -1.1584c -0.6398,-0.0000 -1.1584,0.5186 -1.1584 1.1584c -0.0000,0.6398 0.5186,1.1584 1.1584 1.1584c 0.6398,0.0000 1.1584,-0.5186 1.1584 -1.1584Z"/></g><g stroke-linejoin="miter" stroke-opacity="1.0" fill-opacity="0.0" stroke="rgb(0,0,0)" stroke-width="1.1928279007873377" fill="rgb(0,0,0)" stroke-linecap="butt" stroke-miterlimit="10.0"><path d="M 272.2090,106.7372 l 0.0000,-8.0225 l -6.9477,-4.0113 l -6.9477,4.0113 l -0.0000,8.0225 l 6.9477,4.0113 Z"/></g><g stroke-linejoin="miter" stroke-opacity="1.0" fill-opacity="0.0" stroke="rgb(0,0,0)" stroke-width="1.1928279007873377" fill="rgb(0,0,0)" stroke-linecap="butt" stroke-miterlimit="10.0"><path d="M 279.1568,94.7034 l 0.0000,-8.0225 l -6.9477,-4.0113 l -6.9477,4.0113 l -0.0000,8.0225 l 6.9477,4.0113 Z"/></g><g stroke-linejoin="miter" stroke-opacity="1.0" fill-opacity="0.0" stroke="rgb(0,0,0)" stroke-width="1.1928279007873377" fill="rgb(0,0,0)" stroke-linecap="butt" stroke-miterlimit="10.0"><path d="M 265.2613,118.7710 l 0.0000,-8.0225 l -6.9477,-4.0113 l -6.9477,4.0113 l -0.0000,8.0225 l 6.9477,4.0113 Z"/></g><g stroke-linejoin="miter" stroke-opacity="1.0" fill-opacity="0.0" stroke="rgb(0,0,0)" stroke-width="1.1928279007873377" fill="rgb(0,0,0)" stroke-linecap="butt" stroke-miterlimit="10.0"><path d="M 272.2090,82.6696 l 0.0000,-8.0225 l -6.9477,-4.0113 l -6.9477,4.0113 l -0.0000,8.0225 l 6.9477,4.0113 Z"/></g><g stroke-linejoin="miter" stroke-opacity="1.0" fill-opacity="0.0" stroke="rgb(0,0,0)" stroke-width="1.1928279007873377" fill="rgb(0,0,0)" stroke-linecap="butt" stroke-miterlimit="10.0"><path d="M 258.3136,106.7372 l 0.0000,-8.0225 l -6.9477,-4.0113 l -6.9477,4.0113 l -0.0000,8.0225 l 6.9477,4.0113 Z"/></g><g stroke-linejoin="miter" stroke-opacity="1.0" fill-opacity="0.0" stroke="rgb(0,0,0)" stroke-width="1.1928279007873377" fill="rgb(0,0,0)" stroke-linecap="butt" stroke-miterlimit="10.0"><path d="M 286.1045,82.6696 l 0.0000,-8.0225 l -6.9477,-4.0113 l -6.9477,4.0113 l -0.0000,8.0225 l 6.9477,4.0113 Z"/></g><g stroke-linejoin="miter" stroke-opacity="1.0" fill-opacity="0.0" stroke="rgb(255,0,0)" stroke-width="1.1928279007873377" fill="rgb(0,0,0)" stroke-linecap="butt" stroke-miterlimit="10.0"><path d="M 286.1045,102.7259 c 1.5596,-2.3077 3.1480,-4.9208 4.0505 -7.7156c 0.9025,-2.7948 1.1191,-5.7715 0.7895 -8.6784c -0.3296,-2.9069 -1.2053,-5.7439 -2.5916 -8.3199c -1.3863,-2.5760 -3.2833,-4.8908 -5.5782 -6.6948c -2.2949,-1.8040 -4.9878,-3.0973 -7.7156 -4.0505c -2.7278,-0.9532 -5.4905,-1.5665 -8.2776 -1.7570c -2.7872,-0.1905 -5.5988,0.0418 -8.2175 1.0299c -2.6187,0.9880 -5.0445,2.7318 -7.1979 4.0962c -2.1534,1.3644 -4.0343,2.3493 -5.6113 3.8801c -1.5770,1.5309 -2.8500,3.6077 -3.6993 5.7321c -0.8493,2.1244 -1.2748,4.2965 -1.5156 6.2752c -0.2409,1.9787 -0.2972,3.7641 0.2607 5.6371c 0.5579,1.8730 1.7299,3.8335 2.3981 5.1082c 0.6682,1.2747 0.8325,1.8637 0.8191 2.4135c -0.0134,0.5498 -0.2046,1.0605 -0.1024 1.5618c 0.1023,0.5012 0.4980,0.9930 0.5031 1.4821c 0.0051,0.4891 -0.3803,0.9755 -0.5031 1.4821c -0.1228,0.5066 0.0170,1.0334 0.1024 1.5618c 0.0853,0.5283 0.1162,1.0582 -0.0634 1.9086c -0.1796,0.8504 -0.5696,2.0214 -0.6107 3.0701c -0.0411,1.0486 0.2668,1.9749 0.6107 3.0701c 0.3439,1.0952 0.7238,2.3592 1.3383 3.5701c 0.6146,1.2109 1.4639,2.3687 2.5003 3.3008c 1.0365,0.9321 2.2602,1.6384 3.5732 2.0927c 1.3130,0.4543 2.7153,0.6566 4.1020 0.5660c 1.3867,-0.0905 2.7577,-0.4739 4.0064 -1.0468c 1.2487,-0.5729 2.3749,-1.3354 3.5923 -2.0641c 1.2174,-0.7287 2.5260,-1.4236 3.2695 -2.5412c 0.7434,-1.1176 0.9218,-2.6578 2.0481 -3.5990c 1.1263,-0.9412 3.2007,-1.2833 5.5419 -2.0265c 2.3412,-0.7433 4.9492,-1.8877 7.0186 -3.4612c 2.0694,-1.5734 3.6002,-3.5759 5.1598 -5.8836Z"/></g><g stroke-linejoin="miter" stroke-opacity="1.0" fill-opacity="1.0" stroke="rgb(0,0,0)" stroke-width="0.0" fill="rgb(255,0,0)" stroke-linecap="butt" stroke-miterlimit="10.0"><path d="M 252.5243,102.7259 c 0.0000,-0.6398 -0.5186,-1.1584 -1.1584 -1.1584c -0.6398,-0.0000 -1.1584,0.5186 -1.1584 1.1584c -0.0000,0.6398 0.5186,1.1584 1.1584 1.1584c 0.6398,0.0000 1.1584,-0.5186 1.1584 -1.1584Z"/></g><g stroke-linejoin="miter" stroke-opacity="1.0" fill-opacity="0.0" stroke="rgb(0,0,0)" stroke-width="1.1928279007873377" fill="rgb(0,0,0)" stroke-linecap="butt" stroke-miterlimit="10.0"><path d="M 299.9999,43.0761 l 0.0000,-8.0225 l -6.9477,-4.0113 l -6.9477,4.0113 l -0.0000,8.0225 l 6.9477,4.0113 Z"/></g><g stroke-linejoin="miter" stroke-opacity="1.0" fill-opacity="0.0" stroke="rgb(0,0,0)" stroke-width="1.1928279007873377" fill="rgb(0,0,0)" stroke-linecap="butt" stroke-miterlimit="10.0"><path d="M 286.1045,43.0761 l 0.0000,-8.0225 l -6.9477,-4.0113 l -6.9477,4.0113 l -0.0000,8.0225 l 6.9477,4.0113 Z"/></g><g stroke-linejoin="miter" stroke-opacity="1.0" fill-opacity="0.0" stroke="rgb(0,0,0)" stroke-width="1.1928279007873377" fill="rgb(0,0,0)" stroke-linecap="butt" stroke-miterlimit="10.0"><path d="M 265.2613,31.0423 l 0.0000,-8.0225 l -6.9477,-4.0113 l -6.9477,4.0113 l -0.0000,8.0225 l 6.9477,4.0113 Z"/></g><g stroke-linejoin="miter" stroke-opacity="1.0" fill-opacity="0.0" stroke="rgb(0,0,0)" stroke-width="1.1928279007873377" fill="rgb(0,0,0)" stroke-linecap="butt" stroke-miterlimit="10.0"><path d="M 272.2090,43.0761 l 0.0000,-8.0225 l -6.9477,-4.0113 l -6.9477,4.0113 l -0.0000,8.0225 l 6.9477,4.0113 Z"/></g><g stroke-linejoin="miter" stroke-opacity="1.0" fill-opacity="0.0" stroke="rgb(0,0,0)" stroke-width="1.1928279007873377" fill="rgb(0,0,0)" stroke-linecap="butt" stroke-miterlimit="10.0"><path d="M 258.3136,43.0761 l 0.0000,-8.0225 l -6.9477,-4.0113 l -6.9477,4.0113 l -0.0000,8.0225 l 6.9477,4.0113 Z"/></g><g stroke-linejoin="miter" stroke-opacity="1.0" fill-opacity="0.0" stroke="rgb(0,0,0)" stroke-width="1.1928279007873377" fill="rgb(0,0,0)" stroke-linecap="butt" stroke-miterlimit="10.0"><path d="M 293.0522,31.0423 l 0.0000,-8.0225 l -6.9477,-4.0113 l -6.9477,4.0113 l -0.0000,8.0225 l 6.9477,4.0113 Z"/></g><g stroke-linejoin="miter" stroke-opacity="1.0" fill-opacity="0.0" stroke="rgb(255,0,0)" stroke-width="1.1928279007873377" fill="rgb(0,0,0)" stroke-linecap="butt" stroke-miterlimit="10.0"><path d="M 299.9999,39.0648 c 0.0051,-3.2140 -0.1596,-6.4307 -1.0835 -9.4584c -0.9239,-3.0277 -2.6070,-5.8663 -4.6206 -8.3238c -2.0136,-2.4574 -4.3578,-4.5336 -6.6986 -6.4268c -2.3408,-1.8932 -4.6782,-3.6034 -7.3656 -4.6567c -2.6874,-1.0533 -5.7248,-1.4498 -8.5870 -1.4835c -2.8622,-0.0337 -5.5492,0.2953 -8.1003 0.9481c -2.5511,0.6527 -4.9663,1.6292 -7.0186 3.4612c -2.0523,1.8320 -3.7417,4.5196 -5.1598 5.8836c -1.4181,1.3640 -2.5649,1.4044 -3.5732 2.0927c -1.0083,0.6883 -1.8782,2.0246 -2.5003 3.3008c -0.6221,1.2762 -0.9965,2.4925 -1.3383 3.5701c -0.3419,1.0777 -0.6513,2.0168 -0.6107 3.0701c 0.0406,1.0533 0.4311,2.2209 0.6107 3.0701c 0.1795,0.8492 0.1480,1.3802 0.0634 1.9086c -0.0846,0.5285 -0.2224,1.0544 -0.1024 1.5618c 0.1201,0.5073 0.4980,0.9960 0.5031 1.4821c 0.0051,0.4860 -0.3625,0.9694 -0.5031 1.4821c -0.1406,0.5126 -0.0542,1.0545 0.1024 1.5618c 0.1566,0.5073 0.3833,0.9800 0.6922 1.4037c 0.3089,0.4237 0.7000,0.7983 1.1767 1.0320c 0.4768,0.2337 1.0392,0.3265 1.4821 0.5031c 0.4428,0.1766 0.7660,0.4370 1.1610 0.8651c 0.3950,0.4281 0.8619,1.0238 1.3013 0.8695c 0.4395,-0.1543 0.8516,-1.0587 1.5350 0.3053c 0.6834,1.3640 1.6382,4.9963 3.1216 7.6710c 1.4834,2.6746 3.4956,4.3916 5.8196 5.8925c 2.3240,1.5009 4.9599,2.7858 7.9230 3.6531c 2.9632,0.8674 6.2536,1.3172 9.4584 1.0835c 3.2048,-0.2337 6.3238,-1.1509 9.1530 -2.6185c 2.8292,-1.4676 5.3687,-3.4857 7.4542 -5.9219c 2.0856,-2.4363 3.7172,-5.2908 4.6206 -8.3238c 0.9033,-3.0330 1.0784,-6.2443 1.0835 -9.4584Z"/></g><g stroke-linejoin="miter" stroke-opacity="1.0" fill-opacity="1.0" stroke="rgb(0,0,0)" stroke-width="0.0" fill="rgb(255,0,0)" stroke-linecap="butt" stroke-miterlimit="10.0"><path d="M 252.5006,39.0648 c 0.0000,-0.6267 -0.5080,-1.1347 -1.1347 -1.1347c -0.6267,-0.0000 -1.1347,0.5080 -1.1347 1.1347c -0.0000,0.6267 0.5080,1.1347 1.1347 1.1347c 0.6267,0.0000 1.1347,-0.5080 1.1347 -1.1347Z"/></g><g stroke-linejoin="miter" stroke-opacity="1.0" fill-opacity="0.0" stroke="rgb(0,0,0)" stroke-width="1.1928279007873377" fill="rgb(0,0,0)" stroke-linecap="butt" stroke-miterlimit="10.0"><path d="M 202.3469,252.9127 l 0.0000,-8.0225 l -6.9477,-4.0113 l -6.9477,4.0113 l -0.0000,8.0225 l 6.9477,4.0113 Z"/></g><g stroke-linejoin="miter" stroke-opacity="1.0" fill-opacity="0.0" stroke="rgb(0,0,0)" stroke-width="1.1928279007873377" fill="rgb(0,0,0)" stroke-linecap="butt" stroke-miterlimit="10.0"><path d="M 209.2946,264.9464 l 0.0000,-8.0225 l -6.9477,-4.0113 l -6.9477,4.0113 l -0.0000,8.0225 l 6.9477,4.0113 Z"/></g><g stroke-linejoin="miter" stroke-opacity="1.0" fill-opacity="0.0" stroke="rgb(0,0,0)" stroke-width="1.1928279007873377" fill="rgb(0,0,0)" stroke-linecap="butt" stroke-miterlimit="10.0"><path d="M 216.2423,276.9802 l 0.0000,-8.0225 l -6.9477,-4.0113 l -6.9477,4.0113 l -0.0000,8.0225 l 6.9477,4.0113 Z"/></g><g stroke-linejoin="miter" stroke-opacity="1.0" fill-opacity="0.0" stroke="rgb(0,0,0)" stroke-width="1.1928279007873377" fill="rgb(0,0,0)" stroke-linecap="butt" stroke-miterlimit="10.0"><path d="M 209.2946,289.0140 l 0.0000,-8.0225 l -6.9477,-4.0113 l -6.9477,4.0113 l -0.0000,8.0225 l 6.9477,4.0113 Z"/></g><g stroke-linejoin="miter" stroke-opacity="1.0" fill-opacity="0.0" stroke="rgb(0,0,0)" stroke-width="1.1928279007873377" fill="rgb(0,0,0)" stroke-linecap="butt" stroke-miterlimit="10.0"><path d="M 223.1900,289.0140 l 0.0000,-8.0225 l -6.9477,-4.0113 l -6.9477,4.0113 l -0.0000,8.0225 l 6.9477,4.0113 Z"/></g><g stroke-linejoin="miter" stroke-opacity="1.0" fill-opacity="0.0" stroke="rgb(0,0,0)" stroke-width="1.1928279007873377" fill="rgb(0,0,0)" stroke-linecap="butt" stroke-miterlimit="10.0"><path d="M 195.3992,264.9464 l 0.0000,-8.0225 l -6.9477,-4.0113 l -6.9477,4.0113 l -0.0000,8.0225 l 6.9477,4.0113 Z"/></g><g stroke-linejoin="miter" stroke-opacity="1.0" fill-opacity="0.0" stroke="rgb(255,0,0)" stroke-width="1.1928279007873377" fill="rgb(0,0,0)" stroke-linecap="butt" stroke-miterlimit="10.0"><path d="M 223.1900,260.9352 c -1.5596,-2.3077 -3.0904,-4.3101 -5.1598 -5.8836c -2.0694,-1.5734 -4.6774,-2.7179 -7.0186 -3.4612c -2.3412,-0.7433 -4.4156,-1.0854 -5.5419 -2.0265c -1.1263,-0.9412 -1.3046,-2.4814 -2.0481 -3.5990c -0.7434,-1.1176 -2.0520,-1.8125 -3.2695 -2.5412c -1.2174,-0.7287 -2.3437,-1.4911 -3.5923 -2.0641c -1.2487,-0.5729 -2.6197,-0.9563 -4.0064 -1.0468c -1.3867,-0.0905 -2.7890,0.1117 -4.1020 0.5660c -1.3130,0.4543 -2.5367,1.1607 -3.5732 2.0927c -1.0365,0.9321 -1.8858,2.0899 -2.5003 3.3008c -0.6146,1.2109 -0.9945,2.4750 -1.3383 3.5701c -0.3439,1.0952 -0.6518,2.0214 -0.6107 3.0701c 0.0411,1.0486 0.4311,2.2197 0.6107 3.0701c 0.1796,0.8504 0.1487,1.3803 0.0634 1.9086c -0.0853,0.5283 -0.2252,1.0552 -0.1024 1.5618c 0.1228,0.5066 0.5082,0.9930 0.5031 1.4821c -0.0051,0.4891 -0.4008,0.9808 -0.5031 1.4821c -0.1023,0.5012 0.0889,1.0119 0.1024 1.5618c 0.0134,0.5498 -0.1509,1.1388 -0.8191 2.4135c -0.6682,1.2747 -1.8402,3.2353 -2.3981 5.1082c -0.5579,1.8730 -0.5016,3.6584 -0.2607 5.6371c 0.2409,1.9787 0.6664,4.1508 1.5156 6.2752c 0.8493,2.1244 2.1223,4.2013 3.6993 5.7321c 1.5770,1.5309 3.4579,2.5158 5.6113 3.8801c 2.1534,1.3644 4.5792,3.1081 7.1979 4.0962c 2.6187,0.9880 5.4304,1.2203 8.2175 1.0299c 2.7872,-0.1905 5.5498,-0.8037 8.2776 -1.7570c 2.7278,-0.9532 5.4207,-2.2465 7.7156 -4.0505c 2.2949,-1.8040 4.1919,-4.1189 5.5782 -6.6948c 1.3863,-2.5760 2.2621,-5.4130 2.5916 -8.3199c 0.3296,-2.9069 0.1130,-5.8835 -0.7895 -8.6784c -0.9025,-2.7948 -2.4909,-5.4079 -4.0505 -7.7156Z"/></g><g stroke-linejoin="miter" stroke-opacity="1.0" fill-opacity="1.0" stroke="rgb(0,0,0)" stroke-width="0.0" fill="rgb(255,0,0)" stroke-linecap="butt" stroke-miterlimit="10.0"><path d="M 189.6099,260.9352 c 0.0000,-0.6398 -0.5186,-1.1584 -1.1584 -1.1584c -0.6398,-0.0000 -1.1584,0.5186 -1.1584 1.1584c -0.0000,0.6398 0.5186,1.1584 1.1584 1.1584c 0.6398,0.0000 1.1584,-0.5186 1.1584 -1.1584Z"/></g><g stroke-linejoin="miter" stroke-opacity="1.0" fill-opacity="0.0" stroke="rgb(0,0,0)" stroke-width="1.1928279007873377" fill="rgb(0,0,0)" stroke-linecap="butt" stroke-miterlimit="10.0"><path d="M 237.0854,213.9514 l 0.0000,-8.0225 l -6.9477,-4.0113 l -6.9477,4.0113 l -0.0000,8.0225 l 6.9477,4.0113 Z"/></g><g stroke-linejoin="miter" stroke-opacity="1.0" fill-opacity="0.0" stroke="rgb(0,0,0)" stroke-width="1.1928279007873377" fill="rgb(0,0,0)" stroke-linecap="butt" stroke-miterlimit="10.0"><path d="M 230.1377,225.9852 l 0.0000,-8.0225 l -6.9477,-4.0113 l -6.9477,4.0113 l -0.0000,8.0225 l 6.9477,4.0113 Z"/></g><g stroke-linejoin="miter" stroke-opacity="1.0" fill-opacity="0.0" stroke="rgb(0,0,0)" stroke-width="1.1928279007873377" fill="rgb(0,0,0)" stroke-linecap="butt" stroke-miterlimit="10.0"><path d="M 223.1900,213.9514 l 0.0000,-8.0225 l -6.9477,-4.0113 l -6.9477,4.0113 l -0.0000,8.0225 l 6.9477,4.0113 Z"/></g><g stroke-linejoin="miter" stroke-opacity="1.0" fill-opacity="0.0" stroke="rgb(0,0,0)" stroke-width="1.1928279007873377" fill="rgb(0,0,0)" stroke-linecap="butt" stroke-miterlimit="10.0"><path d="M 209.2946,213.9514 l 0.0000,-8.0225 l -6.9477,-4.0113 l -6.9477,4.0113 l -0.0000,8.0225 l 6.9477,4.0113 Z"/></g><g stroke-linejoin="miter" stroke-opacity="1.0" fill-opacity="0.0" stroke="rgb(0,0,0)" stroke-width="1.1928279007873377" fill="rgb(0,0,0)" stroke-linecap="butt" stroke-miterlimit="10.0"><path d="M 202.3469,225.9852 l 0.0000,-8.0225 l -6.9477,-4.0113 l -6.9477,4.0113 l -0.0000,8.0225 l 6.9477,4.0113 Z"/></g><g stroke-linejoin="miter" stroke-opacity="1.0" fill-opacity="0.0" stroke="rgb(0,0,0)" stroke-width="1.1928279007873377" fill="rgb(0,0,0)" stroke-linecap="butt" stroke-miterlimit="10.0"><path d="M 195.3992,213.9514 l 0.0000,-8.0225 l -6.9477,-4.0113 l -6.9477,4.0113 l -0.0000,8.0225 l 6.9477,4.0113 Z"/></g><g stroke-linejoin="miter" stroke-opacity="1.0" fill-opacity="0.0" stroke="rgb(255,0,0)" stroke-width="1.1928279007873377" fill="rgb(0,0,0)" stroke-linecap="butt" stroke-miterlimit="10.0"><path d="M 237.0854,209.9402 c -0.0051,-3.2140 -0.1802,-6.4254 -1.0835 -9.4584c -0.9033,-3.0330 -2.5350,-5.8875 -4.6206 -8.3238c -2.0856,-2.4363 -4.6250,-4.4543 -7.4542 -5.9219c -2.8292,-1.4676 -5.9483,-2.3848 -9.1530 -2.6185c -3.2048,-0.2337 -6.4952,0.2161 -9.4584 1.0835c -2.9632,0.8674 -5.5990,2.1522 -7.9230 3.6531c -2.3240,1.5009 -4.3361,3.2178 -5.8196 5.8925c -1.4834,2.6746 -2.4382,6.3070 -3.1216 7.6710c -0.6834,1.3640 -1.0956,0.4596 -1.5350 0.3053c -0.4395,-0.1543 -0.9063,0.4415 -1.3013 0.8695c -0.3950,0.4281 -0.7182,0.6885 -1.1610 0.8651c -0.4428,0.1766 -1.0053,0.2694 -1.4821 0.5031c -0.4768,0.2337 -0.8678,0.6083 -1.1767 1.0320c -0.3089,0.4237 -0.5357,0.8964 -0.6922 1.4037c -0.1566,0.5073 -0.2430,1.0491 -0.1024 1.5618c 0.1406,0.5126 0.5082,0.9960 0.5031 1.4821c -0.0051,0.4860 -0.3830,0.9747 -0.5031 1.4821c -0.1201,0.5073 0.0177,1.0333 0.1024 1.5618c 0.0846,0.5285 0.1161,1.0594 -0.0634 1.9086c -0.1795,0.8492 -0.5701,2.0168 -0.6107 3.0701c -0.0406,1.0533 0.2688,1.9924 0.6107 3.0701c 0.3419,1.0777 0.7162,2.2939 1.3383 3.5701c 0.6221,1.2762 1.4920,2.6125 2.5003 3.3008c 1.0083,0.6883 2.1551,0.7287 3.5732 2.0927c 1.4181,1.3640 3.1075,4.0516 5.1598 5.8836c 2.0523,1.8320 4.4675,2.8084 7.0186 3.4612c 2.5511,0.6527 5.2381,0.9818 8.1003 0.9481c 2.8622,-0.0337 5.8996,-0.4302 8.5870 -1.4835c 2.6874,-1.0533 5.0248,-2.7635 7.3656 -4.6567c 2.3408,-1.8932 4.6850,-3.9694 6.6986 -6.4268c 2.0136,-2.4574 3.6967,-5.2961 4.6206 -8.3238c 0.9239,-3.0277 1.0886,-6.2443 1.0835 -9.4584Z"/></g><g stroke-linejoin="miter" stroke-opacity="1.0" fill-opacity="1.0" stroke="rgb(0,0,0)" stroke-width="0.0" fill="rgb(255,0,0)" stroke-linecap="butt" stroke-miterlimit="10.0"><path d="M 189.5862,209.9402 c 0.0000,-0.6267 -0.5080,-1.1347 -1.1347 -1.1347c -0.6267,-0.0000 -1.1347,0.5080 -1.1347 1.1347c -0.0000,0.6267 0.5080,1.1347 1.1347 1.1347c 0.6267,0.0000 1.1347,-0.5080 1.1347 -1.1347Z"/></g><g stroke-linejoin="miter" stroke-opacity="1.0" fill-opacity="0.0" stroke="rgb(0,0,0)" stroke-width="1.1928279007873377" fill="rgb(0,0,0)" stroke-linecap="butt" stroke-miterlimit="10.0"><path d="M 202.3469,162.9371 l 0.0000,-8.0225 l -6.9477,-4.0113 l -6.9477,4.0113 l -0.0000,8.0225 l 6.9477,4.0113 Z"/></g><g stroke-linejoin="miter" stroke-opacity="1.0" fill-opacity="0.0" stroke="rgb(0,0,0)" stroke-width="1.1928279007873377" fill="rgb(0,0,0)" stroke-linecap="butt" stroke-miterlimit="10.0"><path d="M 209.2946,174.9709 l 0.0000,-8.0225 l -6.9477,-4.0113 l -6.9477,4.0113 l -0.0000,8.0225 l 6.9477,4.0113 Z"/></g><g stroke-linejoin="miter" stroke-opacity="1.0" fill-opacity="0.0" stroke="rgb(0,0,0)" stroke-width="1.1928279007873377" fill="rgb(0,0,0)" stroke-linecap="butt" stroke-miterlimit="10.0"><path d="M 209.2946,150.9033 l 0.0000,-8.0225 l -6.9477,-4.0113 l -6.9477,4.0113 l -0.0000,8.0225 l 6.9477,4.0113 Z"/></g><g stroke-linejoin="miter" stroke-opacity="1.0" fill-opacity="0.0" stroke="rgb(0,0,0)" stroke-width="1.1928279007873377" fill="rgb(0,0,0)" stroke-linecap="butt" stroke-miterlimit="10.0"><path d="M 195.3992,174.9709 l 0.0000,-8.0225 l -6.9477,-4.0113 l -6.9477,4.0113 l -0.0000,8.0225 l 6.9477,4.0113 Z"/></g><g stroke-linejoin="miter" stroke-opacity="1.0" fill-opacity="0.0" stroke="rgb(0,0,0)" stroke-width="1.1928279007873377" fill="rgb(0,0,0)" stroke-linecap="butt" stroke-miterlimit="10.0"><path d="M 223.1900,150.9033 l 0.0000,-8.0225 l -6.9477,-4.0113 l -6.9477,4.0113 l -0.0000,8.0225 l 6.9477,4.0113 Z"/></g><g stroke-linejoin="miter" stroke-opacity="1.0" fill-opacity="0.0" stroke="rgb(0,0,0)" stroke-width="1.1928279007873377" fill="rgb(0,0,0)" stroke-linecap="butt" stroke-miterlimit="10.0"><path d="M 216.2423,138.8695 l 0.0000,-8.0225 l -6.9477,-4.0113 l -6.9477,4.0113 l -0.0000,8.0225 l 6.9477,4.0113 Z"/></g><g stroke-linejoin="miter" stroke-opacity="1.0" fill-opacity="0.0" stroke="rgb(255,0,0)" stroke-width="1.1928279007873377" fill="rgb(0,0,0)" stroke-linecap="butt" stroke-miterlimit="10.0"><path d="M 223.1900,170.9596 c 1.5699,-2.3077 3.1686,-4.9261 4.0505 -7.7156c 0.8819,-2.7896 1.0472,-5.7503 0.7895 -8.6784c -0.2576,-2.9280 -0.9381,-5.8233 -1.8360 -8.8248c -0.8979,-3.0015 -2.0133,-6.1093 -3.7909 -8.7329c -1.7776,-2.6237 -4.2174,-4.7632 -6.8442 -6.6175c -2.6268,-1.8543 -5.4407,-3.4234 -8.4549 -4.4620c -3.0143,-1.0386 -6.2290,-1.5468 -9.4165 -1.4014c -3.1876,0.1454 -6.3480,0.9444 -9.2360 2.3088c -2.8880,1.3644 -5.5036,3.2940 -7.6494 5.6675c -2.1458,2.3735 -3.8219,5.1908 -4.8983 8.1634c -1.0764,2.9726 -1.5530,6.1005 -1.6929 8.9803c -0.1399,2.8798 0.0569,5.5115 1.1321 8.2041c 1.0752,2.6926 3.0289,5.4461 4.1855 7.1464c 1.1566,1.7003 1.5162,2.3474 1.5747 2.9184c 0.0585,0.5710 -0.1841,1.0658 -0.1024 1.5618c 0.0817,0.4959 0.4877,0.9930 0.5031 1.4821c 0.0154,0.4891 -0.3597,0.9702 -0.5031 1.4821c -0.1434,0.5119 -0.0549,1.0546 0.1024 1.5618c 0.1573,0.5072 0.3834,0.9788 0.6922 1.4037c 0.3089,0.4249 0.7004,0.8029 1.1767 1.0320c 0.4763,0.2290 1.0372,0.3090 1.4821 0.5031c 0.4448,0.1941 0.7736,0.5023 1.1610 0.8651c 0.3875,0.3628 0.8337,0.7801 1.3013 0.8695c 0.4676,0.0894 0.9567,-0.1490 1.5350 0.3053c 0.5784,0.4543 1.2461,1.6013 2.0639 2.3534c 0.8179,0.7521 1.7859,1.1092 2.8074 1.3845c 1.0216,0.2753 2.0967,0.4686 3.4150 0.6410c 1.3184,0.1724 2.8800,0.3237 4.1408 0.0258c 1.2608,-0.2980 2.2207,-1.0452 3.8355 -1.5608c 1.6148,-0.5156 3.8844,-0.7995 6.2975 -1.5216c 2.4131,-0.7221 4.9697,-1.8824 7.0186 -3.4612c 2.0488,-1.5787 3.5899,-3.5759 5.1598 -5.8836Z"/></g><g stroke-linejoin="miter" stroke-opacity="1.0" fill-opacity="1.0" stroke="rgb(0,0,0)" stroke-width="0.0" fill="rgb(255,0,0)" stroke-linecap="butt" stroke-miterlimit="10.0"><path d="M 189.6325,170.9596 c 0.0000,-0.6523 -0.5288,-1.1811 -1.1811 -1.1811c -0.6523,-0.0000 -1.1811,0.5288 -1.1811 1.1811c -0.0000,0.6523 0.5288,1.1811 1.1811 1.1811c 0.6523,0.0000 1.1811,-0.5288 1.1811 -1.1811Z"/></g><g stroke-linejoin="miter" stroke-opacity="1.0" fill-opacity="0.0" stroke="rgb(0,0,0)" stroke-width="1.1928279007873377" fill="rgb(0,0,0)" stroke-linecap="butt" stroke-miterlimit="10.0"><path d="M 209.2946,82.0566 l 0.0000,-8.0225 l -6.9477,-4.0113 l -6.9477,4.0113 l -0.0000,8.0225 l 6.9477,4.0113 Z"/></g><g stroke-linejoin="miter" stroke-opacity="1.0" fill-opacity="0.0" stroke="rgb(0,0,0)" stroke-width="1.1928279007873377" fill="rgb(0,0,0)" stroke-linecap="butt" stroke-miterlimit="10.0"><path d="M 216.2423,118.1580 l 0.0000,-8.0225 l -6.9477,-4.0113 l -6.9477,4.0113 l -0.0000,8.0225 l 6.9477,4.0113 Z"/></g><g stroke-linejoin="miter" stroke-opacity="1.0" fill-opacity="0.0" stroke="rgb(0,0,0)" stroke-width="1.1928279007873377" fill="rgb(0,0,0)" stroke-linecap="butt" stroke-miterlimit="10.0"><path d="M 209.2946,106.1242 l 0.0000,-8.0225 l -6.9477,-4.0113 l -6.9477,4.0113 l -0.0000,8.0225 l 6.9477,4.0113 Z"/></g><g stroke-linejoin="miter" stroke-opacity="1.0" fill-opacity="0.0" stroke="rgb(0,0,0)" stroke-width="1.1928279007873377" fill="rgb(0,0,0)" stroke-linecap="butt" stroke-miterlimit="10.0"><path d="M 223.1900,106.1242 l 0.0000,-8.0225 l -6.9477,-4.0113 l -6.9477,4.0113 l -0.0000,8.0225 l 6.9477,4.0113 Z"/></g><g stroke-linejoin="miter" stroke-opacity="1.0" fill-opacity="0.0" stroke="rgb(0,0,0)" stroke-width="1.1928279007873377" fill="rgb(0,0,0)" stroke-linecap="butt" stroke-miterlimit="10.0"><path d="M 202.3469,94.0904 l 0.0000,-8.0225 l -6.9477,-4.0113 l -6.9477,4.0113 l -0.0000,8.0225 l 6.9477,4.0113 Z"/></g><g stroke-linejoin="miter" stroke-opacity="1.0" fill-opacity="0.0" stroke="rgb(0,0,0)" stroke-width="1.1928279007873377" fill="rgb(0,0,0)" stroke-linecap="butt" stroke-miterlimit="10.0"><path d="M 195.3992,82.0566 l 0.0000,-8.0225 l -6.9477,-4.0113 l -6.9477,4.0113 l -0.0000,8.0225 l 6.9477,4.0113 Z"/></g><g stroke-linejoin="miter" stroke-opacity="1.0" fill-opacity="0.0" stroke="rgb(255,0,0)" stroke-width="1.1928279007873377" fill="rgb(0,0,0)" stroke-linecap="butt" stroke-miterlimit="10.0"><path d="M 223.1900,78.0454 c -1.5699,-2.3077 -3.1109,-4.3049 -5.1598 -5.8836c -2.0488,-1.5787 -4.6054,-2.7390 -7.0186 -3.4612c -2.4131,-0.7221 -4.6828,-1.0060 -6.2975 -1.5216c -1.6148,-0.5156 -2.5747,-1.2629 -3.8355 -1.5608c -1.2608,-0.2980 -2.8224,-0.1466 -4.1408 0.0258c -1.3184,0.1724 -2.3935,0.3657 -3.4150 0.6410c -1.0216,0.2753 -1.9896,0.6324 -2.8074 1.3845c -0.8179,0.7521 -1.4855,1.8991 -2.0639 2.3534c -0.5784,0.4543 -1.0674,0.2159 -1.5350 0.3053c -0.4676,0.0894 -0.9139,0.5068 -1.3013 0.8695c -0.3875,0.3628 -0.7162,0.6710 -1.1610 0.8651c -0.4448,0.1941 -1.0058,0.2741 -1.4821 0.5031c -0.4763,0.2290 -0.8679,0.6071 -1.1767 1.0320c -0.3089,0.4249 -0.5350,0.8965 -0.6922 1.4037c -0.1573,0.5072 -0.2457,1.0499 -0.1024 1.5618c 0.1434,0.5119 0.5185,0.9930 0.5031 1.4821c -0.0154,0.4891 -0.4214,0.9861 -0.5031 1.4821c -0.0817,0.4959 0.1609,0.9908 0.1024 1.5618c -0.0585,0.5710 -0.4181,1.2181 -1.5747 2.9184c -1.1566,1.7003 -3.1103,4.4538 -4.1855 7.1464c -1.0752,2.6926 -1.2720,5.3243 -1.1321 8.2041c 0.1399,2.8798 0.6166,6.0077 1.6929 8.9803c 1.0764,2.9726 2.7525,5.7899 4.8983 8.1634c 2.1458,2.3735 4.7614,4.3032 7.6494 5.6675c 2.8880,1.3644 6.0485,2.1634 9.2360 2.3088c 3.1876,0.1454 6.4023,-0.3628 9.4165 -1.4014c 3.0143,-1.0386 5.8281,-2.6077 8.4549 -4.4620c 2.6268,-1.8543 5.0667,-3.9938 6.8442 -6.6175c 1.7776,-2.6237 2.8929,-5.7314 3.7909 -8.7329c 0.8979,-3.0015 1.5784,-5.8968 1.8360 -8.8248c 0.2576,-2.9280 0.0924,-5.8888 -0.7895 -8.6784c -0.8819,-2.7896 -2.4806,-5.4079 -4.0505 -7.7156Z"/></g><g stroke-linejoin="miter" stroke-opacity="1.0" fill-opacity="1.0" stroke="rgb(0,0,0)" stroke-width="0.0" fill="rgb(255,0,0)" stroke-linecap="butt" stroke-miterlimit="10.0"><path d="M 189.6325,78.0454 c 0.0000,-0.6523 -0.5288,-1.1811 -1.1811 -1.1811c -0.6523,-0.0000 -1.1811,0.5288 -1.1811 1.1811c -0.0000,0.6523 0.5288,1.1811 1.1811 1.1811c 0.6523,0.0000 1.1811,-0.5288 1.1811 -1.1811Z"/></g><g stroke-linejoin="miter" stroke-opacity="1.0" fill-opacity="0.0" stroke="rgb(0,0,0)" stroke-width="1.1928279007873377" fill="rgb(0,0,0)" stroke-linecap="butt" stroke-miterlimit="10.0"><path d="M 237.0854,43.0761 l 0.0000,-8.0225 l -6.9477,-4.0113 l -6.9477,4.0113 l -0.0000,8.0225 l 6.9477,4.0113 Z"/></g><g stroke-linejoin="miter" stroke-opacity="1.0" fill-opacity="0.0" stroke="rgb(0,0,0)" stroke-width="1.1928279007873377" fill="rgb(0,0,0)" stroke-linecap="butt" stroke-miterlimit="10.0"><path d="M 223.1900,43.0761 l 0.0000,-8.0225 l -6.9477,-4.0113 l -6.9477,4.0113 l -0.0000,8.0225 l 6.9477,4.0113 Z"/></g><g stroke-linejoin="miter" stroke-opacity="1.0" fill-opacity="0.0" stroke="rgb(0,0,0)" stroke-width="1.1928279007873377" fill="rgb(0,0,0)" stroke-linecap="butt" stroke-miterlimit="10.0"><path d="M 202.3469,31.0423 l 0.0000,-8.0225 l -6.9477,-4.0113 l -6.9477,4.0113 l -0.0000,8.0225 l 6.9477,4.0113 Z"/></g><g stroke-linejoin="miter" stroke-opacity="1.0" fill-opacity="0.0" stroke="rgb(0,0,0)" stroke-width="1.1928279007873377" fill="rgb(0,0,0)" stroke-linecap="butt" stroke-miterlimit="10.0"><path d="M 209.2946,43.0761 l 0.0000,-8.0225 l -6.9477,-4.0113 l -6.9477,4.0113 l -0.0000,8.0225 l 6.9477,4.0113 Z"/></g><g stroke-linejoin="miter" stroke-opacity="1.0" fill-opacity="0.0" stroke="rgb(0,0,0)" stroke-width="1.1928279007873377" fill="rgb(0,0,0)" stroke-linecap="butt" stroke-miterlimit="10.0"><path d="M 195.3992,43.0761 l 0.0000,-8.0225 l -6.9477,-4.0113 l -6.9477,4.0113 l -0.0000,8.0225 l 6.9477,4.0113 Z"/></g><g stroke-linejoin="miter" stroke-opacity="1.0" fill-opacity="0.0" stroke="rgb(0,0,0)" stroke-width="1.1928279007873377" fill="rgb(0,0,0)" stroke-linecap="butt" stroke-miterlimit="10.0"><path d="M 230.1377,31.0423 l 0.0000,-8.0225 l -6.9477,-4.0113 l -6.9477,4.0113 l -0.0000,8.0225 l 6.9477,4.0113 Z"/></g><g stroke-linejoin="miter" stroke-opacity="1.0" fill-opacity="0.0" stroke="rgb(255,0,0)" stroke-width="1.1928279007873377" fill="rgb(0,0,0)" stroke-linecap="butt" stroke-miterlimit="10.0"><path d="M 237.0854,39.0648 c 0.0051,-3.2140 -0.1596,-6.4307 -1.0835 -9.4584c -0.9239,-3.0277 -2.6070,-5.8663 -4.6206 -8.3238c -2.0136,-2.4574 -4.3578,-4.5336 -6.6986 -6.4268c -2.3408,-1.8932 -4.6782,-3.6034 -7.3656 -4.6567c -2.6874,-1.0533 -5.7248,-1.4498 -8.5870 -1.4835c -2.8622,-0.0337 -5.5492,0.2953 -8.1003 0.9481c -2.5511,0.6527 -4.9663,1.6292 -7.0186 3.4612c -2.0523,1.8320 -3.7417,4.5196 -5.1598 5.8836c -1.4181,1.3640 -2.5649,1.4044 -3.5732 2.0927c -1.0083,0.6883 -1.8782,2.0246 -2.5003 3.3008c -0.6221,1.2762 -0.9965,2.4925 -1.3383 3.5701c -0.3419,1.0777 -0.6513,2.0168 -0.6107 3.0701c 0.0406,1.0533 0.4311,2.2209 0.6107 3.0701c 0.1795,0.8492 0.1480,1.3802 0.0634 1.9086c -0.0846,0.5285 -0.2224,1.0544 -0.1024 1.5618c 0.1201,0.5073 0.4980,0.9960 0.5031 1.4821c 0.0051,0.4860 -0.3625,0.9694 -0.5031 1.4821c -0.1406,0.5126 -0.0542,1.0545 0.1024 1.5618c 0.1566,0.5073 0.3833,0.9800 0.6922 1.4037c 0.3089,0.4237 0.7000,0.7983 1.1767 1.0320c 0.4768,0.2337 1.0392,0.3265 1.4821 0.5031c 0.4428,0.1766 0.7660,0.4370 1.1610 0.8651c 0.3950,0.4281 0.8619,1.0238 1.3013 0.8695c 0.4395,-0.1543 0.8516,-1.0587 1.5350 0.3053c 0.6834,1.3640 1.6382,4.9963 3.1216 7.6710c 1.4834,2.6746 3.4956,4.3916 5.8196 5.8925c 2.3240,1.5009 4.9599,2.7858 7.9230 3.6531c 2.9632,0.8674 6.2536,1.3172 9.4584 1.0835c 3.2048,-0.2337 6.3238,-1.1509 9.1530 -2.6185c 2.8292,-1.4676 5.3687,-3.4857 7.4542 -5.9219c 2.0856,-2.4363 3.7172,-5.2908 4.6206 -8.3238c 0.9033,-3.0330 1.0784,-6.2443 1.0835 -9.4584Z"/></g><g stroke-linejoin="miter" stroke-opacity="1.0" fill-opacity="1.0" stroke="rgb(0,0,0)" stroke-width="0.0" fill="rgb(255,0,0)" stroke-linecap="butt" stroke-miterlimit="10.0"><path d="M 189.5862,39.0648 c 0.0000,-0.6267 -0.5080,-1.1347 -1.1347 -1.1347c -0.6267,-0.0000 -1.1347,0.5080 -1.1347 1.1347c -0.0000,0.6267 0.5080,1.1347 1.1347 1.1347c 0.6267,0.0000 1.1347,-0.5080 1.1347 -1.1347Z"/></g><g stroke-linejoin="miter" stroke-opacity="1.0" fill-opacity="0.0" stroke="rgb(0,0,0)" stroke-width="1.1928279007873377" fill="rgb(0,0,0)" stroke-linecap="butt" stroke-miterlimit="10.0"><path d="M 155.3252,43.0761 l 0.0000,-8.0225 l -6.9477,-4.0113 l -6.9477,4.0113 l -0.0000,8.0225 l 6.9477,4.0113 Z"/></g><g stroke-linejoin="miter" stroke-opacity="1.0" fill-opacity="0.0" stroke="rgb(0,0,0)" stroke-width="1.1928279007873377" fill="rgb(0,0,0)" stroke-linecap="butt" stroke-miterlimit="10.0"><path d="M 162.2729,79.1774 l 0.0000,-8.0225 l -6.9477,-4.0113 l -6.9477,4.0113 l -0.0000,8.0225 l 6.9477,4.0113 Z"/></g><g stroke-linejoin="miter" stroke-opacity="1.0" fill-opacity="0.0" stroke="rgb(0,0,0)" stroke-width="1.1928279007873377" fill="rgb(0,0,0)" stroke-linecap="butt" stroke-miterlimit="10.0"><path d="M 155.3252,67.1437 l 0.0000,-8.0225 l -6.9477,-4.0113 l -6.9477,4.0113 l -0.0000,8.0225 l 6.9477,4.0113 Z"/></g><g stroke-linejoin="miter" stroke-opacity="1.0" fill-opacity="0.0" stroke="rgb(0,0,0)" stroke-width="1.1928279007873377" fill="rgb(0,0,0)" stroke-linecap="butt" stroke-miterlimit="10.0"><path d="M 169.2206,67.1437 l 0.0000,-8.0225 l -6.9477,-4.0113 l -6.9477,4.0113 l -0.0000,8.0225 l 6.9477,4.0113 Z"/></g><g stroke-linejoin="miter" stroke-opacity="1.0" fill-opacity="0.0" stroke="rgb(0,0,0)" stroke-width="1.1928279007873377" fill="rgb(0,0,0)" stroke-linecap="butt" stroke-miterlimit="10.0"><path d="M 148.3774,55.1099 l 0.0000,-8.0225 l -6.9477,-4.0113 l -6.9477,4.0113 l -0.0000,8.0225 l 6.9477,4.0113 Z"/></g><g stroke-linejoin="miter" stroke-opacity="1.0" fill-opacity="0.0" stroke="rgb(0,0,0)" stroke-width="1.1928279007873377" fill="rgb(0,0,0)" stroke-linecap="butt" stroke-miterlimit="10.0"><path d="M 141.4297,43.0761 l 0.0000,-8.0225 l -6.9477,-4.0113 l -6.9477,4.0113 l -0.0000,8.0225 l 6.9477,4.0113 Z"/></g><g stroke-linejoin="miter" stroke-opacity="1.0" fill-opacity="1.0" stroke="rgb(0,0,0)" stroke-width="0.0" fill="rgb(255,0,0)" stroke-linecap="butt" stroke-miterlimit="10.0"><path d="M 135.5250,39.0648 c 0.0000,-0.5760 -0.4669,-1.0429 -1.0429 -1.0429c -0.5760,-0.0000 -1.0429,0.4669 -1.0429 1.0429c -0.0000,0.5760 0.4669,1.0429 1.0429 1.0429c 0.5760,0.0000 1.0429,-0.4669 1.0429 -1.0429Z"/></g><g stroke-linejoin="miter" stroke-opacity="1.0" fill-opacity="0.0" stroke="rgb(255,0,0)" stroke-width="1.1928279007873377" fill="rgb(0,0,0)" stroke-linecap="butt" stroke-miterlimit="10.0"><path d="M 169.2206,39.0648 c -1.5699,-2.3077 -3.1109,-4.3049 -5.1598 -5.8836c -2.0488,-1.5787 -4.6054,-2.7390 -7.0186 -3.4612c -2.4131,-0.7221 -4.6828,-1.0060 -6.2975 -1.5216c -1.6148,-0.5156 -2.5747,-1.2629 -3.8355 -1.5608c -1.2608,-0.2980 -2.8224,-0.1466 -4.1408 0.0258c -1.3184,0.1724 -2.3935,0.3657 -3.4150 0.6410c -1.0216,0.2753 -1.9896,0.6324 -2.8074 1.3845c -0.8179,0.7521 -1.4855,1.8991 -2.0639 2.3534c -0.5784,0.4543 -1.0674,0.2159 -1.5350 0.3053c -0.4676,0.0894 -0.9139,0.5068 -1.3013 0.8695c -0.3875,0.3628 -0.7162,0.6710 -1.1610 0.8651c -0.4448,0.1941 -1.0058,0.2741 -1.4821 0.5031c -0.4763,0.2290 -0.8679,0.6071 -1.1767 1.0320c -0.3089,0.4249 -0.5350,0.8965 -0.6922 1.4037c -0.1573,0.5072 -0.2457,1.0499 -0.1024 1.5618c 0.1434,0.5119 0.5185,0.9930 0.5031 1.4821c -0.0154,0.4891 -0.4214,0.9861 -0.5031 1.4821c -0.0817,0.4959 0.1609,0.9908 0.1024 1.5618c -0.0585,0.5710 -0.4181,1.2181 -1.5747 2.9184c -1.1566,1.7003 -3.1103,4.4538 -4.1855 7.1464c -1.0752,2.6926 -1.2720,5.3243 -1.1321 8.2041c 0.1399,2.8798 0.6166,6.0077 1.6929 8.9803c 1.0764,2.9726 2.7525,5.7899 4.8983 8.1634c 2.1458,2.3735 4.7614,4.3032 7.6494 5.6675c 2.8880,1.3644 6.0485,2.1634 9.2360 2.3088c 3.1876,0.1454 6.4023,-0.3628 9.4165 -1.4014c 3.0143,-1.0386 5.8281,-2.6077 8.4549 -4.4620c 2.6268,-1.8543 5.0667,-3.9938 6.8442 -6.6175c 1.7776,-2.6237 2.8929,-5.7314 3.7909 -8.7329c 0.8979,-3.0015 1.5784,-5.8968 1.8360 -8.8248c 0.2576,-2.9280 0.0924,-5.8888 -0.7895 -8.6784c -0.8819,-2.7896 -2.4806,-5.4079 -4.0505 -7.7156Z"/></g><g stroke-linejoin="miter" stroke-opacity="1.0" fill-opacity="0.0" stroke="rgb(0,0,0)" stroke-width="1.1928279007873377" fill="rgb(0,0,0)" stroke-linecap="butt" stroke-miterlimit="10.0"><path d="M 101.3207,43.0761 l 0.0000,-8.0225 l -6.9477,-4.0113 l -6.9477,4.0113 l -0.0000,8.0225 l 6.9477,4.0113 Z"/></g><g stroke-linejoin="miter" stroke-opacity="1.0" fill-opacity="0.0" stroke="rgb(0,0,0)" stroke-width="1.1928279007873377" fill="rgb(0,0,0)" stroke-linecap="butt" stroke-miterlimit="10.0"><path d="M 108.2684,31.0423 l 0.0000,-8.0225 l -6.9477,-4.0113 l -6.9477,4.0113 l -0.0000,8.0225 l 6.9477,4.0113 Z"/></g><g stroke-linejoin="miter" stroke-opacity="1.0" fill-opacity="0.0" stroke="rgb(0,0,0)" stroke-width="1.1928279007873377" fill="rgb(0,0,0)" stroke-linecap="butt" stroke-miterlimit="10.0"><path d="M 94.3730,55.1099 l 0.0000,-8.0225 l -6.9477,-4.0113 l -6.9477,4.0113 l -0.0000,8.0225 l 6.9477,4.0113 Z"/></g><g stroke-linejoin="miter" stroke-opacity="1.0" fill-opacity="0.0" stroke="rgb(0,0,0)" stroke-width="1.1928279007873377" fill="rgb(0,0,0)" stroke-linecap="butt" stroke-miterlimit="10.0"><path d="M 101.3207,19.0085 l 0.0000,-8.0225 l -6.9477,-4.0113 l -6.9477,4.0113 l -0.0000,8.0225 l 6.9477,4.0113 Z"/></g><g stroke-linejoin="miter" stroke-opacity="1.0" fill-opacity="0.0" stroke="rgb(0,0,0)" stroke-width="1.1928279007873377" fill="rgb(0,0,0)" stroke-linecap="butt" stroke-miterlimit="10.0"><path d="M 87.4253,43.0761 l 0.0000,-8.0225 l -6.9477,-4.0113 l -6.9477,4.0113 l -0.0000,8.0225 l 6.9477,4.0113 Z"/></g><g stroke-linejoin="miter" stroke-opacity="1.0" fill-opacity="0.0" stroke="rgb(0,0,0)" stroke-width="1.1928279007873377" fill="rgb(0,0,0)" stroke-linecap="butt" stroke-miterlimit="10.0"><path d="M 115.2161,19.0085 l 0.0000,-8.0225 l -6.9477,-4.0113 l -6.9477,4.0113 l -0.0000,8.0225 l 6.9477,4.0113 Z"/></g><g stroke-linejoin="miter" stroke-opacity="1.0" fill-opacity="1.0" stroke="rgb(0,0,0)" stroke-width="0.0" fill="rgb(255,0,0)" stroke-linecap="butt" stroke-miterlimit="10.0"><path d="M 81.5205,39.0648 c 0.0000,-0.5760 -0.4669,-1.0429 -1.0429 -1.0429c -0.5760,-0.0000 -1.0429,0.4669 -1.0429 1.0429c -0.0000,0.5760 0.4669,1.0429 1.0429 1.0429c 0.5760,0.0000 1.0429,-0.4669 1.0429 -1.0429Z"/></g><g stroke-linejoin="miter" stroke-opacity="1.0" fill-opacity="0.0" stroke="rgb(255,0,0)" stroke-width="1.1928279007873377" fill="rgb(0,0,0)" stroke-linecap="butt" stroke-miterlimit="10.0"><path d="M 115.2161,39.0648 c 1.5596,-2.3077 3.1480,-4.9208 4.0505 -7.7156c 0.9025,-2.7948 1.1191,-5.7715 0.7895 -8.6784c -0.3296,-2.9069 -1.2053,-5.7439 -2.5916 -8.3199c -1.3863,-2.5760 -3.2833,-4.8908 -5.5782 -6.6948c -2.2949,-1.8040 -4.9878,-3.0973 -7.7156 -4.0505c -2.7278,-0.9532 -5.4905,-1.5665 -8.2776 -1.7570c -2.7872,-0.1905 -5.5988,0.0418 -8.2175 1.0299c -2.6187,0.9880 -5.0445,2.7318 -7.1979 4.0962c -2.1534,1.3644 -4.0343,2.3493 -5.6113 3.8801c -1.5770,1.5309 -2.8500,3.6077 -3.6993 5.7321c -0.8493,2.1244 -1.2748,4.2965 -1.5156 6.2752c -0.2409,1.9787 -0.2972,3.7641 0.2607 5.6371c 0.5579,1.8730 1.7299,3.8335 2.3981 5.1082c 0.6682,1.2747 0.8325,1.8637 0.8191 2.4135c -0.0134,0.5498 -0.2046,1.0605 -0.1024 1.5618c 0.1023,0.5012 0.4980,0.9930 0.5031 1.4821c 0.0051,0.4891 -0.3803,0.9755 -0.5031 1.4821c -0.1228,0.5066 0.0170,1.0334 0.1024 1.5618c 0.0853,0.5283 0.1162,1.0582 -0.0634 1.9086c -0.1796,0.8504 -0.5696,2.0214 -0.6107 3.0701c -0.0411,1.0486 0.2668,1.9749 0.6107 3.0701c 0.3439,1.0952 0.7238,2.3592 1.3383 3.5701c 0.6146,1.2109 1.4639,2.3687 2.5003 3.3008c 1.0365,0.9321 2.2602,1.6384 3.5732 2.0927c 1.3130,0.4543 2.7153,0.6566 4.1020 0.5660c 1.3867,-0.0905 2.7577,-0.4739 4.0064 -1.0468c 1.2487,-0.5729 2.3749,-1.3354 3.5923 -2.0641c 1.2174,-0.7287 2.5260,-1.4236 3.2695 -2.5412c 0.7434,-1.1176 0.9218,-2.6578 2.0481 -3.5990c 1.1263,-0.9412 3.2007,-1.2833 5.5419 -2.0265c 2.3412,-0.7433 4.9492,-1.8877 7.0186 -3.4612c 2.0694,-1.5734 3.6002,-3.5759 5.1598 -5.8836Z"/></g><g stroke-linejoin="miter" stroke-opacity="1.0" fill-opacity="1.0" stroke="rgb(0,0,0)" stroke-width="1.1928279007873377" fill="rgb(47,79,79)" stroke-linecap="butt" stroke-miterlimit="10.0"><path d="M 13.8954,43.0761 l 0.0000,-8.0225 l -6.9477,-4.0113 l -6.9477,4.0113 l -0.0000,8.0225 l 6.9477,4.0113 Z"/></g><g stroke-linejoin="miter" stroke-opacity="1.0" fill-opacity="1.0" stroke="rgb(0,0,0)" stroke-width="1.1928279007873377" fill="rgb(47,79,79)" stroke-linecap="butt" stroke-miterlimit="10.0"><path d="M 20.8431,55.1099 l 0.0000,-8.0225 l -6.9477,-4.0113 l -6.9477,4.0113 l -0.0000,8.0225 l 6.9477,4.0113 Z"/></g><g stroke-linejoin="miter" stroke-opacity="1.0" fill-opacity="1.0" stroke="rgb(0,0,0)" stroke-width="1.1928279007873377" fill="rgb(211,211,211)" stroke-linecap="butt" stroke-miterlimit="10.0"><path d="M 27.7908,67.1437 l 0.0000,-8.0225 l -6.9477,-4.0113 l -6.9477,4.0113 l -0.0000,8.0225 l 6.9477,4.0113 Z"/></g><g stroke-linejoin="miter" stroke-opacity="1.0" fill-opacity="1.0" stroke="rgb(0,0,0)" stroke-width="1.1928279007873377" fill="rgb(255,255,255)" stroke-linecap="butt" stroke-miterlimit="10.0"><path d="M 20.8431,31.0423 l 0.0000,-8.0225 l -6.9477,-4.0113 l -6.9477,4.0113 l -0.0000,8.0225 l 6.9477,4.0113 Z"/></g><g stroke-linejoin="miter" stroke-opacity="1.0" fill-opacity="1.0" stroke="rgb(0,0,0)" stroke-width="1.1928279007873377" fill="rgb(47,79,79)" stroke-linecap="butt" stroke-miterlimit="10.0"><path d="M 27.7908,43.0761 l 0.0000,-8.0225 l -6.9477,-4.0113 l -6.9477,4.0113 l -0.0000,8.0225 l 6.9477,4.0113 Z"/></g><g stroke-linejoin="miter" stroke-opacity="1.0" fill-opacity="1.0" stroke="rgb(0,0,0)" stroke-width="1.1928279007873377" fill="rgb(211,211,211)" stroke-linecap="butt" stroke-miterlimit="10.0"><path d="M 34.7386,55.1099 l 0.0000,-8.0225 l -6.9477,-4.0113 l -6.9477,4.0113 l -0.0000,8.0225 l 6.9477,4.0113 Z"/></g><g stroke-linejoin="miter" stroke-opacity="1.0" fill-opacity="1.0" stroke="rgb(0,0,0)" stroke-width="1.1928279007873377" fill="rgb(255,255,255)" stroke-linecap="butt" stroke-miterlimit="10.0"><path d="M 41.6863,67.1437 l 0.0000,-8.0225 l -6.9477,-4.0113 l -6.9477,4.0113 l -0.0000,8.0225 l 6.9477,4.0113 Z"/></g><g stroke-linejoin="miter" stroke-opacity="1.0" fill-opacity="1.0" stroke="rgb(0,0,0)" stroke-width="1.1928279007873377" fill="rgb(47,79,79)" stroke-linecap="butt" stroke-miterlimit="10.0"><path d="M 27.7908,19.0085 l 0.0000,-8.0225 l -6.9477,-4.0113 l -6.9477,4.0113 l -0.0000,8.0225 l 6.9477,4.0113 Z"/></g><g stroke-linejoin="miter" stroke-opacity="1.0" fill-opacity="1.0" stroke="rgb(0,0,0)" stroke-width="1.1928279007873377" fill="rgb(47,79,79)" stroke-linecap="butt" stroke-miterlimit="10.0"><path d="M 34.7386,31.0423 l 0.0000,-8.0225 l -6.9477,-4.0113 l -6.9477,4.0113 l -0.0000,8.0225 l 6.9477,4.0113 Z"/></g><g stroke-linejoin="miter" stroke-opacity="1.0" fill-opacity="1.0" stroke="rgb(0,0,0)" stroke-width="1.1928279007873377" fill="rgb(211,211,211)" stroke-linecap="butt" stroke-miterlimit="10.0"><path d="M 41.6863,43.0761 l 0.0000,-8.0225 l -6.9477,-4.0113 l -6.9477,4.0113 l -0.0000,8.0225 l 6.9477,4.0113 Z"/></g><g stroke-linejoin="miter" stroke-opacity="1.0" fill-opacity="1.0" stroke="rgb(0,0,0)" stroke-width="1.1928279007873377" fill="rgb(211,211,211)" stroke-linecap="butt" stroke-miterlimit="10.0"><path d="M 48.6340,55.1099 l 0.0000,-8.0225 l -6.9477,-4.0113 l -6.9477,4.0113 l -0.0000,8.0225 l 6.9477,4.0113 Z"/></g><g stroke-linejoin="miter" stroke-opacity="1.0" fill-opacity="1.0" stroke="rgb(0,0,0)" stroke-width="1.1928279007873377" fill="rgb(255,255,255)" stroke-linecap="butt" stroke-miterlimit="10.0"><path d="M 55.5817,67.1437 l 0.0000,-8.0225 l -6.9477,-4.0113 l -6.9477,4.0113 l -0.0000,8.0225 l 6.9477,4.0113 Z"/></g><g stroke-linejoin="miter" stroke-opacity="1.0" fill-opacity="1.0" stroke="rgb(0,0,0)" stroke-width="1.1928279007873377" fill="rgb(47,79,79)" stroke-linecap="butt" stroke-miterlimit="10.0"><path d="M 41.6863,19.0085 l 0.0000,-8.0225 l -6.9477,-4.0113 l -6.9477,4.0113 l -0.0000,8.0225 l 6.9477,4.0113 Z"/></g><g stroke-linejoin="miter" stroke-opacity="1.0" fill-opacity="1.0" stroke="rgb(0,0,0)" stroke-width="1.1928279007873377" fill="rgb(211,211,211)" stroke-linecap="butt" stroke-miterlimit="10.0"><path d="M 48.6340,31.0423 l 0.0000,-8.0225 l -6.9477,-4.0113 l -6.9477,4.0113 l -0.0000,8.0225 l 6.9477,4.0113 Z"/></g><g stroke-linejoin="miter" stroke-opacity="1.0" fill-opacity="1.0" stroke="rgb(0,0,0)" stroke-width="1.1928279007873377" fill="rgb(255,255,255)" stroke-linecap="butt" stroke-miterlimit="10.0"><path d="M 55.5817,43.0761 l 0.0000,-8.0225 l -6.9477,-4.0113 l -6.9477,4.0113 l -0.0000,8.0225 l 6.9477,4.0113 Z"/></g><g stroke-linejoin="miter" stroke-opacity="1.0" fill-opacity="1.0" stroke="rgb(0,0,0)" stroke-width="1.1928279007873377" fill="rgb(255,255,255)" stroke-linecap="butt" stroke-miterlimit="10.0"><path d="M 62.5294,55.1099 l 0.0000,-8.0225 l -6.9477,-4.0113 l -6.9477,4.0113 l -0.0000,8.0225 l 6.9477,4.0113 Z"/></g><g stroke-linejoin="miter" stroke-opacity="1.0" fill-opacity="1.0" stroke="rgb(0,0,0)" stroke-width="1.1928279007873377" fill="rgb(255,255,255)" stroke-linecap="butt" stroke-miterlimit="10.0"><path d="M 55.5817,19.0085 l 0.0000,-8.0225 l -6.9477,-4.0113 l -6.9477,4.0113 l -0.0000,8.0225 l 6.9477,4.0113 Z"/></g><g stroke-linejoin="miter" stroke-opacity="1.0" fill-opacity="1.0" stroke="rgb(0,0,0)" stroke-width="1.1928279007873377" fill="rgb(211,211,211)" stroke-linecap="butt" stroke-miterlimit="10.0"><path d="M 62.5294,31.0423 l 0.0000,-8.0225 l -6.9477,-4.0113 l -6.9477,4.0113 l -0.0000,8.0225 l 6.9477,4.0113 Z"/></g><g stroke-linejoin="miter" stroke-opacity="1.0" fill-opacity="1.0" stroke="rgb(0,0,0)" stroke-width="1.1928279007873377" fill="rgb(255,255,255)" stroke-linecap="butt" stroke-miterlimit="10.0"><path d="M 69.4771,43.0761 l 0.0000,-8.0225 l -6.9477,-4.0113 l -6.9477,4.0113 l -0.0000,8.0225 l 6.9477,4.0113 Z"/></g></svg>