<?xml version="1.0" encoding="UTF-8"?>
<!DOCTYPE svg PUBLIC "-//W3C//DTD SVG 1.1//EN"
    "http://www.w3.org/Graphics/SVG/1.1/DTD/svg11.dtd"><svg xmlns="http://www.w3.org/2000/svg" height="600.0000" stroke-opacity="1" viewBox="0 0 600 600" font-size="1" width="600.0000" xmlns:xlink="http://www.w3.org/1999/xlink" stroke="rgb(0,0,0)" version="1.1"><defs></defs><g stroke-linejoin="miter" stroke-opacity="1.0" fill-opacity="1.0" stroke="rgb(0,0,0)" stroke-width="1.5317903003143252" fill="rgb(255,255,255)" stroke-linecap="butt" stroke-miterlimit="10.0"><path d="M 21.4677,378.8271 l 0.0000,-12.3944 l -10.7338,-6.1972 l -10.7338,6.1972 l -0.0000,12.3944 l 10.7338,6.1972 Z"/></g><g stroke-linejoin="miter" stroke-opacity="1.0" fill-opacity="1.0" stroke="rgb(0,0,0)" stroke-width="1.5317903003143252" fill="rgb(255,255,255)" stroke-linecap="butt" stroke-miterlimit="10.0"><path d="M 32.2015,397.4187 l 0.0000,-12.3944 l -10.7338,-6.1972 l -10.7338,6.1972 l -0.0000,12.3944 l 10.7338,6.1972 Z"/></g><g stroke-linejoin="miter" stroke-opacity="1.0" fill-opacity="1.0" stroke="rgb(0,0,0)" stroke-width="1.5317903003143252" fill="rgb(255,255,255)" stroke-linecap="butt" stroke-miterlimit="10.0"><path d="M 42.9353,416.0102 l 0.0000,-12.3944 l -10.7338,-6.1972 l -10.7338,6.1972 l -0.0000,12.3944 l 10.7338,6.1972 Z"/></g><g stroke-linejoin="miter" stroke-opacity="1.0" fill-opacity="1.0" stroke="rgb(0,0,0)" stroke-width="1.5317903003143252" fill="rgb(255,255,255)" stroke-linecap="butt" stroke-miterlimit="10.0"><path d="M 32.2015,360.2356 l 0.0000,-12.3944 l -10.7338,-6.1972 l -10.7338,6.1972 l -0.0000,12.3944 l 10.7338,6.1972 Z"/></g><g stroke-linejoin="miter" stroke-opacity="1.0" fill-opacity="1.0" stroke="rgb(0,0,0)" stroke-width="1.5317903003143252" fill="rgb(255,255,255)" stroke-linecap="butt" stroke-miterlimit="10.0"><path d="M 42.9353,378.8271 l 0.0000,-12.3944 l -10.7338,-6.1972 l -10.7338,6.1972 l -0.0000,12.3944 l 10.7338,6.1972 Z"/></g><g stroke-linejoin="miter" stroke-opacity="1.0" fill-opacity="1.0" stroke="rgb(0,0,0)" stroke-width="1.5317903003143252" fill="rgb(255,255,255)" stroke-linecap="butt" stroke-miterlimit="10.0"><path d="M 53.6691,397.4187 l 0.0000,-12.3944 l -10.7338,-6.1972 l -10.7338,6.1972 l -0.0000,12.3944 l 10.7338,6.1972 Z"/></g><g stroke-linejoin="miter" stroke-opacity="1.0" fill-opacity="1.0" stroke="rgb(0,0,0)" stroke-width="1.5317903003143252" fill="rgb(255,255,255)" stroke-linecap="butt" stroke-miterlimit="10.0"><path d="M 64.4030,416.0102 l 0.0000,-12.3944 l -10.7338,-6.1972 l -10.7338,6.1972 l -0.0000,12.3944 l 10.7338,6.1972 Z"/></g><g stroke-linejoin="miter" stroke-opacity="1.0" fill-opacity="1.0" stroke="rgb(0,0,0)" stroke-width="1.5317903003143252" fill="rgb(255,255,255)" stroke-linecap="butt" stroke-miterlimit="10.0"><path d="M 42.9353,341.6441 l 0.0000,-12.3944 l -10.7338,-6.1972 l -10.7338,6.1972 l -0.0000,12.3944 l 10.7338,6.1972 Z"/></g><g stroke-linejoin="miter" stroke-opacity="1.0" fill-opacity="1.0" stroke="rgb(0,0,0)" stroke-width="1.5317903003143252" fill="rgb(255,255,255)" stroke-linecap="butt" stroke-miterlimit="10.0"><path d="M 53.6691,360.2356 l 0.0000,-12.3944 l -10.7338,-6.1972 l -10.7338,6.1972 l -0.0000,12.3944 l 10.7338,6.1972 Z"/></g><g stroke-linejoin="miter" stroke-opacity="1.0" fill-opacity="1.0" stroke="rgb(0,0,0)" stroke-width="1.5317903003143252" fill="rgb(255,255,255)" stroke-linecap="butt" stroke-miterlimit="10.0"><path d="M 64.4030,378.8271 l 0.0000,-12.3944 l -10.7338,-6.1972 l -10.7338,6.1972 l -0.0000,12.3944 l 10.7338,6.1972 Z"/></g><g stroke-linejoin="miter" stroke-opacity="1.0" fill-opacity="1.0" stroke="rgb(0,0,0)" stroke-width="1.5317903003143252" fill="rgb(211,211,211)" stroke-linecap="butt" stroke-miterlimit="10.0"><path d="M 75.1368,397.4187 l 0.0000,-12.3944 l -10.7338,-6.1972 l -10.7338,6.1972 l -0.0000,12.3944 l 10.7338,6.1972 Z"/></g><g stroke-linejoin="miter" stroke-opacity="1.0" fill-opacity="1.0" stroke="rgb(0,0,0)" stroke-width="1.5317903003143252" fill="rgb(211,211,211)" stroke-linecap="butt" stroke-miterlimit="10.0"><path d="M 85.8706,416.0102 l 0.0000,-12.3944 l -10.7338,-6.1972 l -10.7338,6.1972 l -0.0000,12.3944 l 10.7338,6.1972 Z"/></g><g stroke-linejoin="miter" stroke-opacity="1.0" fill-opacity="1.0" stroke="rgb(0,0,0)" stroke-width="1.5317903003143252" fill="rgb(255,255,255)" stroke-linecap="butt" stroke-miterlimit="10.0"><path d="M 64.4030,341.6441 l 0.0000,-12.3944 l -10.7338,-6.1972 l -10.7338,6.1972 l -0.0000,12.3944 l 10.7338,6.1972 Z"/></g><g stroke-linejoin="miter" stroke-opacity="1.0" fill-opacity="1.0" stroke="rgb(0,0,0)" stroke-width="1.5317903003143252" fill="rgb(255,255,255)" stroke-linecap="butt" stroke-miterlimit="10.0"><path d="M 75.1368,360.2356 l 0.0000,-12.3944 l -10.7338,-6.1972 l -10.7338,6.1972 l -0.0000,12.3944 l 10.7338,6.1972 Z"/></g><g stroke-linejoin="miter" stroke-opacity="1.0" fill-opacity="1.0" stroke="rgb(0,0,0)" stroke-width="1.5317903003143252" fill="rgb(255,255,255)" stroke-linecap="butt" stroke-miterlimit="10.0"><path d="M 85.8706,378.8271 l 0.0000,-12.3944 l -10.7338,-6.1972 l -10.7338,6.1972 l -0.0000,12.3944 l 10.7338,6.1972 Z"/></g><g stroke-linejoin="miter" stroke-opacity="1.0" fill-opacity="1.0" stroke="rgb(0,0,0)" stroke-width="1.5317903003143252" fill="rgb(255,255,255)" stroke-linecap="butt" stroke-miterlimit="10.0"><path d="M 96.6045,397.4187 l 0.0000,-12.3944 l -10.7338,-6.1972 l -10.7338,6.1972 l -0.0000,12.3944 l 10.7338,6.1972 Z"/></g><g stroke-linejoin="miter" stroke-opacity="1.0" fill-opacity="1.0" stroke="rgb(0,0,0)" stroke-width="1.5317903003143252" fill="rgb(255,255,255)" stroke-linecap="butt" stroke-miterlimit="10.0"><path d="M 85.8706,341.6441 l 0.0000,-12.3944 l -10.7338,-6.1972 l -10.7338,6.1972 l -0.0000,12.3944 l 10.7338,6.1972 Z"/></g><g stroke-linejoin="miter" stroke-opacity="1.0" fill-opacity="1.0" stroke="rgb(0,0,0)" stroke-width="1.5317903003143252" fill="rgb(255,255,255)" stroke-linecap="butt" stroke-miterlimit="10.0"><path d="M 96.6045,360.2356 l 0.0000,-12.3944 l -10.7338,-6.1972 l -10.7338,6.1972 l -0.0000,12.3944 l 10.7338,6.1972 Z"/></g><g stroke-linejoin="miter" stroke-opacity="1.0" fill-opacity="1.0" stroke="rgb(0,0,0)" stroke-width="1.5317903003143252" fill="rgb(255,255,255)" stroke-linecap="butt" stroke-miterlimit="10.0"><path d="M 107.3383,378.8271 l 0.0000,-12.3944 l -10.7338,-6.1972 l -10.7338,6.1972 l -0.0000,12.3944 l 10.7338,6.1972 Z"/></g><g stroke-linejoin="miter" stroke-opacity="1.0" fill-opacity="0.0" stroke="rgb(0,0,0)" stroke-width="1.5317903003143252" fill="rgb(0,0,0)" stroke-linecap="butt" stroke-miterlimit="10.0"><path d="M 594.3504,315.9471 l 0.0000,-12.3944 l -10.7338,-6.1972 l -10.7338,6.1972 l -0.0000,12.3944 l 10.7338,6.1972 Z"/></g><g stroke-linejoin="miter" stroke-opacity="1.0" fill-opacity="0.0" stroke="rgb(0,0,0)" stroke-width="1.5317903003143252" fill="rgb(0,0,0)" stroke-linecap="butt" stroke-miterlimit="10.0"><path d="M 583.6166,297.3555 l 0.0000,-12.3944 l -10.7338,-6.1972 l -10.7338,6.1972 l -0.0000,12.3944 l 10.7338,6.1972 Z"/></g><g stroke-linejoin="miter" stroke-opacity="1.0" fill-opacity="0.0" stroke="rgb(255,0,0)" stroke-width="1.5317903003143252" fill="rgb(0,0,0)" stroke-linecap="butt" stroke-miterlimit="10.0"><path d="M 594.3504,291.1584 c -1.2087,-1.4532 -1.9812,-2.6686 -3.1886 -3.6359c -1.2074,-0.9673 -2.8496,-1.6866 -4.3373 -2.1389c -1.4877,-0.4523 -2.8209,-0.6376 -3.6583 -1.0963c -0.8374,-0.4587 -1.1791,-1.1909 -1.8180 -1.5943c -0.6389,-0.4034 -1.5751,-0.4781 -2.2897 -0.7772c -0.7146,-0.2991 -1.2078,-0.8226 -1.7937 -1.3365c -0.5860,-0.5139 -1.2648,-1.0181 -2.0105 -1.3434c -0.7457,-0.3252 -1.5582,-0.4715 -2.3716 -0.4717c -0.8134,-0.0003 -1.6276,0.1454 -2.3716 0.4717c -0.7440,0.3263 -1.4176,0.8333 -2.0105 1.3434c -0.5929,0.5100 -1.1049,1.0231 -1.7937 1.3365c -0.6888,0.3134 -1.5544,0.4271 -2.2897 0.7772c -0.7353,0.3502 -1.3404,0.9369 -1.8180 1.5943c -0.4776,0.6575 -0.8277,1.3857 -1.0695 2.1687c -0.2418,0.7830 -0.3754,1.6207 -0.1581 2.4128c 0.2172,0.7922 0.7852,1.5389 0.7772 2.2897c -0.0079,0.7508 -0.5918,1.5057 -0.7772 2.2897c -0.1855,0.7840 0.0274,1.5969 0.1581 2.4128c 0.1307,0.8159 0.1792,1.6347 -0.0980 2.9487c -0.2771,1.3140 -0.8799,3.1230 -0.9435 4.7431c -0.0635,1.6201 0.4122,3.0512 0.9435 4.7431c 0.5313,1.6920 1.1181,3.6448 2.0677 5.5157c 0.9496,1.8709 2.2620,3.6598 3.8629 5.0996c 1.6009,1.4398 3.4903,2.5305 5.5204 3.2332c 2.0300,0.7027 4.2006,1.0175 6.3374 0.8745c 2.1368,-0.1430 4.2398,-0.7437 6.1897 -1.6173c 1.9499,-0.8736 3.7466,-2.0203 5.5500 -3.1889c 1.8034,-1.1686 3.6134,-2.3592 5.0511 -3.9261c 1.4378,-1.5668 2.5032,-3.5099 3.1642 -5.5602c 0.6609,-2.0503 0.9173,-4.2079 0.7955 -6.3478c -0.1218,-2.1400 -0.6218,-4.2623 -1.6942 -6.1691c -1.0724,-1.9067 -2.7173,-3.5979 -3.9261 -5.0511Z"/></g><g stroke-linejoin="miter" stroke-opacity="1.0" fill-opacity="1.0" stroke="rgb(0,0,0)" stroke-width="0.0" fill="rgb(255,0,0)" stroke-linecap="butt" stroke-miterlimit="10.0"><path d="M 573.7685,291.1584 c 0.0000,-0.4892 -0.3966,-0.8858 -0.8858 -0.8858c -0.4892,-0.0000 -0.8858,0.3966 -0.8858 0.8858c -0.0000,0.4892 0.3966,0.8858 0.8858 0.8858c 0.4892,0.0000 0.8858,-0.3966 0.8858 -0.8858Z"/></g><g stroke-linejoin="miter" stroke-opacity="1.0" fill-opacity="0.0" stroke="rgb(0,0,0)" stroke-width="1.5317903003143252" fill="rgb(0,0,0)" stroke-linecap="butt" stroke-miterlimit="10.0"><path d="M 554.8331,278.7640 l 0.0000,-12.3944 l -10.7338,-6.1972 l -10.7338,6.1972 l -0.0000,12.3944 l 10.7338,6.1972 Z"/></g><g stroke-linejoin="miter" stroke-opacity="1.0" fill-opacity="0.0" stroke="rgb(0,0,0)" stroke-width="1.5317903003143252" fill="rgb(0,0,0)" stroke-linecap="butt" stroke-miterlimit="10.0"><path d="M 544.0993,297.3555 l 0.0000,-12.3944 l -10.7338,-6.1972 l -10.7338,6.1972 l -0.0000,12.3944 l 10.7338,6.1972 Z"/></g><g stroke-linejoin="miter" stroke-opacity="1.0" fill-opacity="0.0" stroke="rgb(255,0,0)" stroke-width="1.5317903003143252" fill="rgb(0,0,0)" stroke-linecap="butt" stroke-miterlimit="10.0"><path d="M 554.8331,291.1584 c 1.2087,-1.4532 2.8536,-3.1444 3.9261 -5.0511c 1.0724,-1.9067 1.5724,-4.0291 1.6942 -6.1691c 0.1218,-2.1400 -0.1346,-4.2975 -0.7955 -6.3478c -0.6609,-2.0503 -1.7264,-3.9933 -3.1642 -5.5602c -1.4378,-1.5668 -3.2478,-2.7574 -5.0511 -3.9261c -1.8034,-1.1686 -3.6001,-2.3152 -5.5500 -3.1889c -1.9499,-0.8736 -4.0529,-1.4743 -6.1897 -1.6173c -2.1368,-0.1430 -4.3074,0.1718 -6.3374 0.8745c -2.0300,0.7027 -3.9195,1.7934 -5.5204 3.2332c -1.6009,1.4398 -2.9133,3.2287 -3.8629 5.0996c -0.9496,1.8709 -1.5364,3.8237 -2.0677 5.5157c -0.5313,1.6920 -1.0070,3.1230 -0.9435 4.7431c 0.0635,1.6201 0.6663,3.4292 0.9435 4.7431c 0.2771,1.3140 0.2287,2.1328 0.0980 2.9487c -0.1307,0.8159 -0.3436,1.6289 -0.1581 2.4128c 0.1855,0.7840 0.7693,1.5389 0.7772 2.2897c 0.0079,0.7508 -0.5600,1.4975 -0.7772 2.2897c -0.2172,0.7922 -0.0837,1.6299 0.1581 2.4128c 0.2418,0.7830 0.5919,1.5112 1.0695 2.1687c 0.4776,0.6575 1.0826,1.2441 1.8180 1.5943c 0.7353,0.3502 1.6009,0.4639 2.2897 0.7772c 0.6888,0.3134 1.2009,0.8265 1.7937 1.3365c 0.5929,0.5100 1.2666,1.0170 2.0105 1.3434c 0.7440,0.3263 1.5582,0.4720 2.3716 0.4717c 0.8134,-0.0003 1.6259,-0.1465 2.3716 -0.4717c 0.7457,-0.3252 1.4245,-0.8295 2.0105 -1.3434c 0.5860,-0.5139 1.0791,-1.0374 1.7937 -1.3365c 0.7146,-0.2991 1.6508,-0.3738 2.2897 -0.7772c 0.6389,-0.4034 0.9806,-1.1356 1.8180 -1.5943c 0.8374,-0.4587 2.1706,-0.6440 3.6583 -1.0963c 1.4877,-0.4523 3.1299,-1.1716 4.3373 -2.1389c 1.2074,-0.9673 1.9799,-2.1827 3.1886 -3.6359Z"/></g><g stroke-linejoin="miter" stroke-opacity="1.0" fill-opacity="1.0" stroke="rgb(0,0,0)" stroke-width="0.0" fill="rgb(255,0,0)" stroke-linecap="butt" stroke-miterlimit="10.0"><path d="M 534.2512,291.1584 c 0.0000,-0.4892 -0.3966,-0.8858 -0.8858 -0.8858c -0.4892,-0.0000 -0.8858,0.3966 -0.8858 0.8858c -0.0000,0.4892 0.3966,0.8858 0.8858 0.8858c 0.4892,0.0000 0.8858,-0.3966 0.8858 -0.8858Z"/></g><g stroke-linejoin="miter" stroke-opacity="1.0" fill-opacity="0.0" stroke="rgb(0,0,0)" stroke-width="1.5317903003143252" fill="rgb(0,0,0)" stroke-linecap="butt" stroke-miterlimit="10.0"><path d="M 515.3158,278.7640 l 0.0000,-12.3944 l -10.7338,-6.1972 l -10.7338,6.1972 l -0.0000,12.3944 l 10.7338,6.1972 Z"/></g><g stroke-linejoin="miter" stroke-opacity="1.0" fill-opacity="0.0" stroke="rgb(0,0,0)" stroke-width="1.5317903003143252" fill="rgb(0,0,0)" stroke-linecap="butt" stroke-miterlimit="10.0"><path d="M 504.5820,297.3555 l 0.0000,-12.3944 l -10.7338,-6.1972 l -10.7338,6.1972 l -0.0000,12.3944 l 10.7338,6.1972 Z"/></g><g stroke-linejoin="miter" stroke-opacity="1.0" fill-opacity="0.0" stroke="rgb(255,0,0)" stroke-width="1.5317903003143252" fill="rgb(0,0,0)" stroke-linecap="butt" stroke-miterlimit="10.0"><path d="M 515.3158,291.1584 c 1.2087,-1.4532 2.8536,-3.1444 3.9261 -5.0511c 1.0724,-1.9067 1.5724,-4.0291 1.6942 -6.1691c 0.1218,-2.1400 -0.1346,-4.2975 -0.7955 -6.3478c -0.6609,-2.0503 -1.7264,-3.9933 -3.1642 -5.5602c -1.4378,-1.5668 -3.2478,-2.7574 -5.0511 -3.9261c -1.8034,-1.1686 -3.6001,-2.3152 -5.5500 -3.1889c -1.9499,-0.8736 -4.0529,-1.4743 -6.1897 -1.6173c -2.1368,-0.1430 -4.3074,0.1718 -6.3374 0.8745c -2.0300,0.7027 -3.9195,1.7934 -5.5204 3.2332c -1.6009,1.4398 -2.9133,3.2287 -3.8629 5.0996c -0.9496,1.8709 -1.5364,3.8237 -2.0677 5.5157c -0.5313,1.6920 -1.0070,3.1230 -0.9435 4.7431c 0.0635,1.6201 0.6663,3.4292 0.9435 4.7431c 0.2771,1.3140 0.2287,2.1328 0.0980 2.9487c -0.1307,0.8159 -0.3436,1.6289 -0.1581 2.4128c 0.1855,0.7840 0.7693,1.5389 0.7772 2.2897c 0.0079,0.7508 -0.5600,1.4975 -0.7772 2.2897c -0.2172,0.7922 -0.0837,1.6299 0.1581 2.4128c 0.2418,0.7830 0.5919,1.5112 1.0695 2.1687c 0.4776,0.6575 1.0826,1.2441 1.8180 1.5943c 0.7353,0.3502 1.6009,0.4639 2.2897 0.7772c 0.6888,0.3134 1.2009,0.8265 1.7937 1.3365c 0.5929,0.5100 1.2666,1.0170 2.0105 1.3434c 0.7440,0.3263 1.5582,0.4720 2.3716 0.4717c 0.8134,-0.0003 1.6259,-0.1465 2.3716 -0.4717c 0.7457,-0.3252 1.4245,-0.8295 2.0105 -1.3434c 0.5860,-0.5139 1.0791,-1.0374 1.7937 -1.3365c 0.7146,-0.2991 1.6508,-0.3738 2.2897 -0.7772c 0.6389,-0.4034 0.9806,-1.1356 1.8180 -1.5943c 0.8374,-0.4587 2.1706,-0.6440 3.6583 -1.0963c 1.4877,-0.4523 3.1299,-1.1716 4.3373 -2.1389c 1.2074,-0.9673 1.9799,-2.1827 3.1886 -3.6359Z"/></g><g stroke-linejoin="miter" stroke-opacity="1.0" fill-opacity="1.0" stroke="rgb(0,0,0)" stroke-width="0.0" fill="rgb(255,0,0)" stroke-linecap="butt" stroke-miterlimit="10.0"><path d="M 494.7339,291.1584 c 0.0000,-0.4892 -0.3966,-0.8858 -0.8858 -0.8858c -0.4892,-0.0000 -0.8858,0.3966 -0.8858 0.8858c -0.0000,0.4892 0.3966,0.8858 0.8858 0.8858c 0.4892,0.0000 0.8858,-0.3966 0.8858 -0.8858Z"/></g><g stroke-linejoin="miter" stroke-opacity="1.0" fill-opacity="0.0" stroke="rgb(0,0,0)" stroke-width="1.5317903003143252" fill="rgb(0,0,0)" stroke-linecap="butt" stroke-miterlimit="10.0"><path d="M 475.7985,315.9471 l 0.0000,-12.3944 l -10.7338,-6.1972 l -10.7338,6.1972 l -0.0000,12.3944 l 10.7338,6.1972 Z"/></g><g stroke-linejoin="miter" stroke-opacity="1.0" fill-opacity="0.0" stroke="rgb(0,0,0)" stroke-width="1.5317903003143252" fill="rgb(0,0,0)" stroke-linecap="butt" stroke-miterlimit="10.0"><path d="M 465.0647,297.3555 l 0.0000,-12.3944 l -10.7338,-6.1972 l -10.7338,6.1972 l -0.0000,12.3944 l 10.7338,6.1972 Z"/></g><g stroke-linejoin="miter" stroke-opacity="1.0" fill-opacity="0.0" stroke="rgb(255,0,0)" stroke-width="1.5317903003143252" fill="rgb(0,0,0)" stroke-linecap="butt" stroke-miterlimit="10.0"><path d="M 475.7985,291.1584 c -1.2087,-1.4532 -1.9812,-2.6686 -3.1886 -3.6359c -1.2074,-0.9673 -2.8496,-1.6866 -4.3373 -2.1389c -1.4877,-0.4523 -2.8209,-0.6376 -3.6583 -1.0963c -0.8374,-0.4587 -1.1791,-1.1909 -1.8180 -1.5943c -0.6389,-0.4034 -1.5751,-0.4781 -2.2897 -0.7772c -0.7146,-0.2991 -1.2078,-0.8226 -1.7937 -1.3365c -0.5860,-0.5139 -1.2648,-1.0181 -2.0105 -1.3434c -0.7457,-0.3252 -1.5582,-0.4715 -2.3716 -0.4717c -0.8134,-0.0003 -1.6276,0.1454 -2.3716 0.4717c -0.7440,0.3263 -1.4176,0.8333 -2.0105 1.3434c -0.5929,0.5100 -1.1049,1.0231 -1.7937 1.3365c -0.6888,0.3134 -1.5544,0.4271 -2.2897 0.7772c -0.7353,0.3502 -1.3404,0.9369 -1.8180 1.5943c -0.4776,0.6575 -0.8277,1.3857 -1.0695 2.1687c -0.2418,0.7830 -0.3754,1.6207 -0.1581 2.4128c 0.2172,0.7922 0.7852,1.5389 0.7772 2.2897c -0.0079,0.7508 -0.5918,1.5057 -0.7772 2.2897c -0.1855,0.7840 0.0274,1.5969 0.1581 2.4128c 0.1307,0.8159 0.1792,1.6347 -0.0980 2.9487c -0.2771,1.3140 -0.8799,3.1230 -0.9435 4.7431c -0.0635,1.6201 0.4122,3.0512 0.9435 4.7431c 0.5313,1.6920 1.1181,3.6448 2.0677 5.5157c 0.9496,1.8709 2.2620,3.6598 3.8629 5.0996c 1.6009,1.4398 3.4903,2.5305 5.5204 3.2332c 2.0300,0.7027 4.2006,1.0175 6.3374 0.8745c 2.1368,-0.1430 4.2398,-0.7437 6.1897 -1.6173c 1.9499,-0.8736 3.7466,-2.0203 5.5500 -3.1889c 1.8034,-1.1686 3.6134,-2.3592 5.0511 -3.9261c 1.4378,-1.5668 2.5032,-3.5099 3.1642 -5.5602c 0.6609,-2.0503 0.9173,-4.2079 0.7955 -6.3478c -0.1218,-2.1400 -0.6218,-4.2623 -1.6942 -6.1691c -1.0724,-1.9067 -2.7173,-3.5979 -3.9261 -5.0511Z"/></g><g stroke-linejoin="miter" stroke-opacity="1.0" fill-opacity="1.0" stroke="rgb(0,0,0)" stroke-width="0.0" fill="rgb(255,0,0)" stroke-linecap="butt" stroke-miterlimit="10.0"><path d="M 455.2166,291.1584 c 0.0000,-0.4892 -0.3966,-0.8858 -0.8858 -0.8858c -0.4892,-0.0000 -0.8858,0.3966 -0.8858 0.8858c -0.0000,0.4892 0.3966,0.8858 0.8858 0.8858c 0.4892,0.0000 0.8858,-0.3966 0.8858 -0.8858Z"/></g><g stroke-linejoin="miter" stroke-opacity="1.0" fill-opacity="0.0" stroke="rgb(0,0,0)" stroke-width="1.5317903003143252" fill="rgb(0,0,0)" stroke-linecap="butt" stroke-miterlimit="10.0"><path d="M 441.8161,297.3555 l 0.0000,-12.3944 l -10.7338,-6.1972 l -10.7338,6.1972 l -0.0000,12.3944 l 10.7338,6.1972 Z"/></g><g stroke-linejoin="miter" stroke-opacity="1.0" fill-opacity="0.0" stroke="rgb(0,0,0)" stroke-width="1.5317903003143252" fill="rgb(0,0,0)" stroke-linecap="butt" stroke-miterlimit="10.0"><path d="M 420.3485,297.3555 l 0.0000,-12.3944 l -10.7338,-6.1972 l -10.7338,6.1972 l -0.0000,12.3944 l 10.7338,6.1972 Z"/></g><g stroke-linejoin="miter" stroke-opacity="1.0" fill-opacity="0.0" stroke="rgb(255,0,0)" stroke-width="1.5317903003143252" fill="rgb(0,0,0)" stroke-linecap="butt" stroke-miterlimit="10.0"><path d="M 441.8161,291.1584 c 0.0000,-2.1533 0.2827,-4.3067 -0.0398 -6.3974c -0.3225,-2.0907 -1.2503,-4.1187 -2.4849 -5.8951c -1.2347,-1.7764 -2.7762,-3.3013 -4.5518 -4.4955c -1.7755,-1.1941 -3.7851,-2.0576 -5.9256 -2.4114c -2.1406,-0.3538 -4.4122,-0.1979 -6.3974 0.0398c -1.9852,0.2378 -3.6840,0.5574 -5.2760 0.9903c -1.5921,0.4329 -3.0775,0.9790 -4.3373 2.1389c -1.2598,1.1599 -2.2941,2.9335 -3.1886 3.6359c -0.8945,0.7024 -1.6493,0.3337 -2.3716 0.4717c -0.7222,0.1380 -1.4118,0.7829 -2.0105 1.3434c -0.5987,0.5605 -1.1065,1.0366 -1.7937 1.3365c -0.6873,0.2999 -1.5540,0.4235 -2.2897 0.7772c -0.7357,0.3538 -1.3403,0.9378 -1.8180 1.5943c -0.4776,0.6565 -0.8282,1.3856 -1.0695 2.1687c -0.2413,0.7831 -0.3732,1.6201 -0.1581 2.4128c 0.2151,0.7928 0.7772,1.5412 0.7772 2.2897c -0.0000,0.7485 -0.5622,1.4969 -0.7772 2.2897c -0.2151,0.7928 -0.0831,1.6298 0.1581 2.4128c 0.2413,0.7831 0.5918,1.5121 1.0695 2.1687c 0.4776,0.6565 1.0823,1.2405 1.8180 1.5943c 0.7357,0.3538 1.6024,0.4774 2.2897 0.7772c 0.6873,0.2999 1.1950,0.7760 1.7937 1.3365c 0.5987,0.5605 1.2883,1.2053 2.0105 1.3434c 0.7222,0.1380 1.4770,-0.2307 2.3716 0.4717c 0.8945,0.7024 1.9288,2.4760 3.1886 3.6359c 1.2598,1.1599 2.7452,1.7060 4.3373 2.1389c 1.5921,0.4329 3.2909,0.7526 5.2760 0.9903c 1.9852,0.2378 4.2568,0.3936 6.3974 0.0398c 2.1406,-0.3538 4.1501,-1.2172 5.9256 -2.4114c 1.7755,-1.1941 3.3171,-2.7190 4.5518 -4.4955c 1.2347,-1.7764 2.1624,-3.8045 2.4849 -5.8951c 0.3225,-2.0907 0.0398,-4.2440 0.0398 -6.3974Z"/></g><g stroke-linejoin="miter" stroke-opacity="1.0" fill-opacity="1.0" stroke="rgb(0,0,0)" stroke-width="0.0" fill="rgb(255,0,0)" stroke-linecap="butt" stroke-miterlimit="10.0"><path d="M 410.4934,291.1584 c 0.0000,-0.4853 -0.3934,-0.8787 -0.8787 -0.8787c -0.4853,-0.0000 -0.8787,0.3934 -0.8787 0.8787c -0.0000,0.4853 0.3934,0.8787 0.8787 0.8787c 0.4853,0.0000 0.8787,-0.3934 0.8787 -0.8787Z"/></g><g stroke-linejoin="miter" stroke-opacity="1.0" fill-opacity="0.0" stroke="rgb(0,0,0)" stroke-width="1.5317903003143252" fill="rgb(0,0,0)" stroke-linecap="butt" stroke-miterlimit="10.0"><path d="M 397.8804,297.3555 l 0.0000,-12.3944 l -10.7338,-6.1972 l -10.7338,6.1972 l -0.0000,12.3944 l 10.7338,6.1972 Z"/></g><g stroke-linejoin="miter" stroke-opacity="1.0" fill-opacity="0.0" stroke="rgb(0,0,0)" stroke-width="1.5317903003143252" fill="rgb(0,0,0)" stroke-linecap="butt" stroke-miterlimit="10.0"><path d="M 376.4128,297.3555 l 0.0000,-12.3944 l -10.7338,-6.1972 l -10.7338,6.1972 l -0.0000,12.3944 l 10.7338,6.1972 Z"/></g><g stroke-linejoin="miter" stroke-opacity="1.0" fill-opacity="0.0" stroke="rgb(255,0,0)" stroke-width="1.5317903003143252" fill="rgb(0,0,0)" stroke-linecap="butt" stroke-miterlimit="10.0"><path d="M 397.8804,291.1584 c 0.0000,-2.1533 0.2827,-4.3067 -0.0398 -6.3974c -0.3225,-2.0907 -1.2503,-4.1187 -2.4849 -5.8951c -1.2347,-1.7764 -2.7762,-3.3013 -4.5518 -4.4955c -1.7755,-1.1941 -3.7851,-2.0576 -5.9256 -2.4114c -2.1406,-0.3538 -4.4122,-0.1979 -6.3974 0.0398c -1.9852,0.2378 -3.6840,0.5574 -5.2760 0.9903c -1.5921,0.4329 -3.0775,0.9790 -4.3373 2.1389c -1.2598,1.1599 -2.2941,2.9335 -3.1886 3.6359c -0.8945,0.7024 -1.6493,0.3337 -2.3716 0.4717c -0.7222,0.1380 -1.4118,0.7829 -2.0105 1.3434c -0.5987,0.5605 -1.1065,1.0366 -1.7937 1.3365c -0.6873,0.2999 -1.5540,0.4235 -2.2897 0.7772c -0.7357,0.3538 -1.3403,0.9378 -1.8180 1.5943c -0.4776,0.6565 -0.8282,1.3856 -1.0695 2.1687c -0.2413,0.7831 -0.3732,1.6201 -0.1581 2.4128c 0.2151,0.7928 0.7772,1.5412 0.7772 2.2897c -0.0000,0.7485 -0.5622,1.4969 -0.7772 2.2897c -0.2151,0.7928 -0.0831,1.6298 0.1581 2.4128c 0.2413,0.7831 0.5918,1.5121 1.0695 2.1687c 0.4776,0.6565 1.0823,1.2405 1.8180 1.5943c 0.7357,0.3538 1.6024,0.4774 2.2897 0.7772c 0.6873,0.2999 1.1950,0.7760 1.7937 1.3365c 0.5987,0.5605 1.2883,1.2053 2.0105 1.3434c 0.7222,0.1380 1.4770,-0.2307 2.3716 0.4717c 0.8945,0.7024 1.9288,2.4760 3.1886 3.6359c 1.2598,1.1599 2.7452,1.7060 4.3373 2.1389c 1.5921,0.4329 3.2909,0.7526 5.2760 0.9903c 1.9852,0.2378 4.2568,0.3936 6.3974 0.0398c 2.1406,-0.3538 4.1501,-1.2172 5.9256 -2.4114c 1.7755,-1.1941 3.3171,-2.7190 4.5518 -4.4955c 1.2347,-1.7764 2.1624,-3.8045 2.4849 -5.8951c 0.3225,-2.0907 0.0398,-4.2440 0.0398 -6.3974Z"/></g><g stroke-linejoin="miter" stroke-opacity="1.0" fill-opacity="1.0" stroke="rgb(0,0,0)" stroke-width="0.0" fill="rgb(255,0,0)" stroke-linecap="butt" stroke-miterlimit="10.0"><path d="M 366.5577,291.1584 c 0.0000,-0.4853 -0.3934,-0.8787 -0.8787 -0.8787c -0.4853,-0.0000 -0.8787,0.3934 -0.8787 0.8787c -0.0000,0.4853 0.3934,0.8787 0.8787 0.8787c 0.4853,0.0000 0.8787,-0.3934 0.8787 -0.8787Z"/></g><g stroke-linejoin="miter" stroke-opacity="1.0" fill-opacity="0.0" stroke="rgb(0,0,0)" stroke-width="1.5317903003143252" fill="rgb(0,0,0)" stroke-linecap="butt" stroke-miterlimit="10.0"><path d="M 348.4098,315.9471 l 0.0000,-12.3944 l -10.7338,-6.1972 l -10.7338,6.1972 l -0.0000,12.3944 l 10.7338,6.1972 Z"/></g><g stroke-linejoin="miter" stroke-opacity="1.0" fill-opacity="0.0" stroke="rgb(0,0,0)" stroke-width="1.5317903003143252" fill="rgb(0,0,0)" stroke-linecap="butt" stroke-miterlimit="10.0"><path d="M 337.6760,297.3555 l 0.0000,-12.3944 l -10.7338,-6.1972 l -10.7338,6.1972 l -0.0000,12.3944 l 10.7338,6.1972 Z"/></g><g stroke-linejoin="miter" stroke-opacity="1.0" fill-opacity="0.0" stroke="rgb(255,0,0)" stroke-width="1.5317903003143252" fill="rgb(0,0,0)" stroke-linecap="butt" stroke-miterlimit="10.0"><path d="M 348.4098,291.1584 c -1.2087,-1.4532 -1.9812,-2.6686 -3.1886 -3.6359c -1.2074,-0.9673 -2.8496,-1.6866 -4.3373 -2.1389c -1.4877,-0.4523 -2.8209,-0.6376 -3.6583 -1.0963c -0.8374,-0.4587 -1.1791,-1.1909 -1.8180 -1.5943c -0.6389,-0.4034 -1.5751,-0.4781 -2.2897 -0.7772c -0.7146,-0.2991 -1.2078,-0.8226 -1.7937 -1.3365c -0.5860,-0.5139 -1.2648,-1.0181 -2.0105 -1.3434c -0.7457,-0.3252 -1.5582,-0.4715 -2.3716 -0.4717c -0.8134,-0.0003 -1.6276,0.1454 -2.3716 0.4717c -0.7440,0.3263 -1.4176,0.8333 -2.0105 1.3434c -0.5929,0.5100 -1.1049,1.0231 -1.7937 1.3365c -0.6888,0.3134 -1.5544,0.4271 -2.2897 0.7772c -0.7353,0.3502 -1.3404,0.9369 -1.8180 1.5943c -0.4776,0.6575 -0.8277,1.3857 -1.0695 2.1687c -0.2418,0.7830 -0.3754,1.6207 -0.1581 2.4128c 0.2172,0.7922 0.7852,1.5389 0.7772 2.2897c -0.0079,0.7508 -0.5918,1.5057 -0.7772 2.2897c -0.1855,0.7840 0.0274,1.5969 0.1581 2.4128c 0.1307,0.8159 0.1792,1.6347 -0.0980 2.9487c -0.2771,1.3140 -0.8799,3.1230 -0.9435 4.7431c -0.0635,1.6201 0.4122,3.0512 0.9435 4.7431c 0.5313,1.6920 1.1181,3.6448 2.0677 5.5157c 0.9496,1.8709 2.2620,3.6598 3.8629 5.0996c 1.6009,1.4398 3.4903,2.5305 5.5204 3.2332c 2.0300,0.7027 4.2006,1.0175 6.3374 0.8745c 2.1368,-0.1430 4.2398,-0.7437 6.1897 -1.6173c 1.9499,-0.8736 3.7466,-2.0203 5.5500 -3.1889c 1.8034,-1.1686 3.6134,-2.3592 5.0511 -3.9261c 1.4378,-1.5668 2.5032,-3.5099 3.1642 -5.5602c 0.6609,-2.0503 0.9173,-4.2079 0.7955 -6.3478c -0.1218,-2.1400 -0.6218,-4.2623 -1.6942 -6.1691c -1.0724,-1.9067 -2.7173,-3.5979 -3.9261 -5.0511Z"/></g><g stroke-linejoin="miter" stroke-opacity="1.0" fill-opacity="1.0" stroke="rgb(0,0,0)" stroke-width="0.0" fill="rgb(255,0,0)" stroke-linecap="butt" stroke-miterlimit="10.0"><path d="M 327.8279,291.1584 c 0.0000,-0.4892 -0.3966,-0.8858 -0.8858 -0.8858c -0.4892,-0.0000 -0.8858,0.3966 -0.8858 0.8858c -0.0000,0.4892 0.3966,0.8858 0.8858 0.8858c 0.4892,0.0000 0.8858,-0.3966 0.8858 -0.8858Z"/></g><g stroke-linejoin="miter" stroke-opacity="1.0" fill-opacity="0.0" stroke="rgb(0,0,0)" stroke-width="1.5317903003143252" fill="rgb(0,0,0)" stroke-linecap="butt" stroke-miterlimit="10.0"><path d="M 308.8925,278.7640 l 0.0000,-12.3944 l -10.7338,-6.1972 l -10.7338,6.1972 l -0.0000,12.3944 l 10.7338,6.1972 Z"/></g><g stroke-linejoin="miter" stroke-opacity="1.0" fill-opacity="0.0" stroke="rgb(0,0,0)" stroke-width="1.5317903003143252" fill="rgb(0,0,0)" stroke-linecap="butt" stroke-miterlimit="10.0"><path d="M 298.1587,297.3555 l 0.0000,-12.3944 l -10.7338,-6.1972 l -10.7338,6.1972 l -0.0000,12.3944 l 10.7338,6.1972 Z"/></g><g stroke-linejoin="miter" stroke-opacity="1.0" fill-opacity="0.0" stroke="rgb(255,0,0)" stroke-width="1.5317903003143252" fill="rgb(0,0,0)" stroke-linecap="butt" stroke-miterlimit="10.0"><path d="M 308.8925,291.1584 c 1.2087,-1.4532 2.8536,-3.1444 3.9261 -5.0511c 1.0724,-1.9067 1.5724,-4.0291 1.6942 -6.1691c 0.1218,-2.1400 -0.1346,-4.2975 -0.7955 -6.3478c -0.6609,-2.0503 -1.7264,-3.9933 -3.1642 -5.5602c -1.4378,-1.5668 -3.2478,-2.7574 -5.0511 -3.9261c -1.8034,-1.1686 -3.6001,-2.3152 -5.5500 -3.1889c -1.9499,-0.8736 -4.0529,-1.4743 -6.1897 -1.6173c -2.1368,-0.1430 -4.3074,0.1718 -6.3374 0.8745c -2.0300,0.7027 -3.9195,1.7934 -5.5204 3.2332c -1.6009,1.4398 -2.9133,3.2287 -3.8629 5.0996c -0.9496,1.8709 -1.5364,3.8237 -2.0677 5.5157c -0.5313,1.6920 -1.0070,3.1230 -0.9435 4.7431c 0.0635,1.6201 0.6663,3.4292 0.9435 4.7431c 0.2771,1.3140 0.2287,2.1328 0.0980 2.9487c -0.1307,0.8159 -0.3436,1.6289 -0.1581 2.4128c 0.1855,0.7840 0.7693,1.5389 0.7772 2.2897c 0.0079,0.7508 -0.5600,1.4975 -0.7772 2.2897c -0.2172,0.7922 -0.0837,1.6299 0.1581 2.4128c 0.2418,0.7830 0.5919,1.5112 1.0695 2.1687c 0.4776,0.6575 1.0826,1.2441 1.8180 1.5943c 0.7353,0.3502 1.6009,0.4639 2.2897 0.7772c 0.6888,0.3134 1.2009,0.8265 1.7937 1.3365c 0.5929,0.5100 1.2666,1.0170 2.0105 1.3434c 0.7440,0.3263 1.5582,0.4720 2.3716 0.4717c 0.8134,-0.0003 1.6259,-0.1465 2.3716 -0.4717c 0.7457,-0.3252 1.4245,-0.8295 2.0105 -1.3434c 0.5860,-0.5139 1.0791,-1.0374 1.7937 -1.3365c 0.7146,-0.2991 1.6508,-0.3738 2.2897 -0.7772c 0.6389,-0.4034 0.9806,-1.1356 1.8180 -1.5943c 0.8374,-0.4587 2.1706,-0.6440 3.6583 -1.0963c 1.4877,-0.4523 3.1299,-1.1716 4.3373 -2.1389c 1.2074,-0.9673 1.9799,-2.1827 3.1886 -3.6359Z"/></g><g stroke-linejoin="miter" stroke-opacity="1.0" fill-opacity="1.0" stroke="rgb(0,0,0)" stroke-width="0.0" fill="rgb(255,0,0)" stroke-linecap="butt" stroke-miterlimit="10.0"><path d="M 288.3106,291.1584 c 0.0000,-0.4892 -0.3966,-0.8858 -0.8858 -0.8858c -0.4892,-0.0000 -0.8858,0.3966 -0.8858 0.8858c -0.0000,0.4892 0.3966,0.8858 0.8858 0.8858c 0.4892,0.0000 0.8858,-0.3966 0.8858 -0.8858Z"/></g><g stroke-linejoin="miter" stroke-opacity="1.0" fill-opacity="0.0" stroke="rgb(0,0,0)" stroke-width="1.5317903003143252" fill="rgb(0,0,0)" stroke-linecap="butt" stroke-miterlimit="10.0"><path d="M 269.3752,278.7640 l 0.0000,-12.3944 l -10.7338,-6.1972 l -10.7338,6.1972 l -0.0000,12.3944 l 10.7338,6.1972 Z"/></g><g stroke-linejoin="miter" stroke-opacity="1.0" fill-opacity="0.0" stroke="rgb(0,0,0)" stroke-width="1.5317903003143252" fill="rgb(0,0,0)" stroke-linecap="butt" stroke-miterlimit="10.0"><path d="M 258.6414,297.3555 l 0.0000,-12.3944 l -10.7338,-6.1972 l -10.7338,6.1972 l -0.0000,12.3944 l 10.7338,6.1972 Z"/></g><g stroke-linejoin="miter" stroke-opacity="1.0" fill-opacity="0.0" stroke="rgb(255,0,0)" stroke-width="1.5317903003143252" fill="rgb(0,0,0)" stroke-linecap="butt" stroke-miterlimit="10.0"><path d="M 269.3752,291.1584 c 1.2087,-1.4532 2.8536,-3.1444 3.9261 -5.0511c 1.0724,-1.9067 1.5724,-4.0291 1.6942 -6.1691c 0.1218,-2.1400 -0.1346,-4.2975 -0.7955 -6.3478c -0.6609,-2.0503 -1.7264,-3.9933 -3.1642 -5.5602c -1.4378,-1.5668 -3.2478,-2.7574 -5.0511 -3.9261c -1.8034,-1.1686 -3.6001,-2.3152 -5.5500 -3.1889c -1.9499,-0.8736 -4.0529,-1.4743 -6.1897 -1.6173c -2.1368,-0.1430 -4.3074,0.1718 -6.3374 0.8745c -2.0300,0.7027 -3.9195,1.7934 -5.5204 3.2332c -1.6009,1.4398 -2.9133,3.2287 -3.8629 5.0996c -0.9496,1.8709 -1.5364,3.8237 -2.0677 5.5157c -0.5313,1.6920 -1.0070,3.1230 -0.9435 4.7431c 0.0635,1.6201 0.6663,3.4292 0.9435 4.7431c 0.2771,1.3140 0.2287,2.1328 0.0980 2.9487c -0.1307,0.8159 -0.3436,1.6289 -0.1581 2.4128c 0.1855,0.7840 0.7693,1.5389 0.7772 2.2897c 0.0079,0.7508 -0.5600,1.4975 -0.7772 2.2897c -0.2172,0.7922 -0.0837,1.6299 0.1581 2.4128c 0.2418,0.7830 0.5919,1.5112 1.0695 2.1687c 0.4776,0.6575 1.0826,1.2441 1.8180 1.5943c 0.7353,0.3502 1.6009,0.4639 2.2897 0.7772c 0.6888,0.3134 1.2009,0.8265 1.7937 1.3365c 0.5929,0.5100 1.2666,1.0170 2.0105 1.3434c 0.7440,0.3263 1.5582,0.4720 2.3716 0.4717c 0.8134,-0.0003 1.6259,-0.1465 2.3716 -0.4717c 0.7457,-0.3252 1.4245,-0.8295 2.0105 -1.3434c 0.5860,-0.5139 1.0791,-1.0374 1.7937 -1.3365c 0.7146,-0.2991 1.6508,-0.3738 2.2897 -0.7772c 0.6389,-0.4034 0.9806,-1.1356 1.8180 -1.5943c 0.8374,-0.4587 2.1706,-0.6440 3.6583 -1.0963c 1.4877,-0.4523 3.1299,-1.1716 4.3373 -2.1389c 1.2074,-0.9673 1.9799,-2.1827 3.1886 -3.6359Z"/></g><g stroke-linejoin="miter" stroke-opacity="1.0" fill-opacity="1.0" stroke="rgb(0,0,0)" stroke-width="0.0" fill="rgb(255,0,0)" stroke-linecap="butt" stroke-miterlimit="10.0"><path d="M 248.7933,291.1584 c 0.0000,-0.4892 -0.3966,-0.8858 -0.8858 -0.8858c -0.4892,-0.0000 -0.8858,0.3966 -0.8858 0.8858c -0.0000,0.4892 0.3966,0.8858 0.8858 0.8858c 0.4892,0.0000 0.8858,-0.3966 0.8858 -0.8858Z"/></g><g stroke-linejoin="miter" stroke-opacity="1.0" fill-opacity="0.0" stroke="rgb(0,0,0)" stroke-width="1.5317903003143252" fill="rgb(0,0,0)" stroke-linecap="butt" stroke-miterlimit="10.0"><path d="M 229.8579,315.9471 l 0.0000,-12.3944 l -10.7338,-6.1972 l -10.7338,6.1972 l -0.0000,12.3944 l 10.7338,6.1972 Z"/></g><g stroke-linejoin="miter" stroke-opacity="1.0" fill-opacity="0.0" stroke="rgb(0,0,0)" stroke-width="1.5317903003143252" fill="rgb(0,0,0)" stroke-linecap="butt" stroke-miterlimit="10.0"><path d="M 219.1241,297.3555 l 0.0000,-12.3944 l -10.7338,-6.1972 l -10.7338,6.1972 l -0.0000,12.3944 l 10.7338,6.1972 Z"/></g><g stroke-linejoin="miter" stroke-opacity="1.0" fill-opacity="0.0" stroke="rgb(255,0,0)" stroke-width="1.5317903003143252" fill="rgb(0,0,0)" stroke-linecap="butt" stroke-miterlimit="10.0"><path d="M 229.8579,291.1584 c -1.2087,-1.4532 -1.9812,-2.6686 -3.1886 -3.6359c -1.2074,-0.9673 -2.8496,-1.6866 -4.3373 -2.1389c -1.4877,-0.4523 -2.8209,-0.6376 -3.6583 -1.0963c -0.8374,-0.4587 -1.1791,-1.1909 -1.8180 -1.5943c -0.6389,-0.4034 -1.5751,-0.4781 -2.2897 -0.7772c -0.7146,-0.2991 -1.2078,-0.8226 -1.7937 -1.3365c -0.5860,-0.5139 -1.2648,-1.0181 -2.0105 -1.3434c -0.7457,-0.3252 -1.5582,-0.4715 -2.3716 -0.4717c -0.8134,-0.0003 -1.6276,0.1454 -2.3716 0.4717c -0.7440,0.3263 -1.4176,0.8333 -2.0105 1.3434c -0.5929,0.5100 -1.1049,1.0231 -1.7937 1.3365c -0.6888,0.3134 -1.5544,0.4271 -2.2897 0.7772c -0.7353,0.3502 -1.3404,0.9369 -1.8180 1.5943c -0.4776,0.6575 -0.8277,1.3857 -1.0695 2.1687c -0.2418,0.7830 -0.3754,1.6207 -0.1581 2.4128c 0.2172,0.7922 0.7852,1.5389 0.7772 2.2897c -0.0079,0.7508 -0.5918,1.5057 -0.7772 2.2897c -0.1855,0.7840 0.0274,1.5969 0.1581 2.4128c 0.1307,0.8159 0.1792,1.6347 -0.0980 2.9487c -0.2771,1.3140 -0.8799,3.1230 -0.9435 4.7431c -0.0635,1.6201 0.4122,3.0512 0.9435 4.7431c 0.5313,1.6920 1.1181,3.6448 2.0677 5.5157c 0.9496,1.8709 2.2620,3.6598 3.8629 5.0996c 1.6009,1.4398 3.4903,2.5305 5.5204 3.2332c 2.0300,0.7027 4.2006,1.0175 6.3374 0.8745c 2.1368,-0.1430 4.2398,-0.7437 6.1897 -1.6173c 1.9499,-0.8736 3.7466,-2.0203 5.5500 -3.1889c 1.8034,-1.1686 3.6134,-2.3592 5.0511 -3.9261c 1.4378,-1.5668 2.5032,-3.5099 3.1642 -5.5602c 0.6609,-2.0503 0.9173,-4.2079 0.7955 -6.3478c -0.1218,-2.1400 -0.6218,-4.2623 -1.6942 -6.1691c -1.0724,-1.9067 -2.7173,-3.5979 -3.9261 -5.0511Z"/></g><g stroke-linejoin="miter" stroke-opacity="1.0" fill-opacity="1.0" stroke="rgb(0,0,0)" stroke-width="0.0" fill="rgb(255,0,0)" stroke-linecap="butt" stroke-miterlimit="10.0"><path d="M 209.2760,291.1584 c 0.0000,-0.4892 -0.3966,-0.8858 -0.8858 -0.8858c -0.4892,-0.0000 -0.8858,0.3966 -0.8858 0.8858c -0.0000,0.4892 0.3966,0.8858 0.8858 0.8858c 0.4892,0.0000 0.8858,-0.3966 0.8858 -0.8858Z"/></g><g stroke-linejoin="miter" stroke-opacity="1.0" fill-opacity="0.0" stroke="rgb(0,0,0)" stroke-width="1.5317903003143252" fill="rgb(0,0,0)" stroke-linecap="butt" stroke-miterlimit="10.0"><path d="M 195.8755,297.3555 l 0.0000,-12.3944 l -10.7338,-6.1972 l -10.7338,6.1972 l -0.0000,12.3944 l 10.7338,6.1972 Z"/></g><g stroke-linejoin="miter" stroke-opacity="1.0" fill-opacity="0.0" stroke="rgb(0,0,0)" stroke-width="1.5317903003143252" fill="rgb(0,0,0)" stroke-linecap="butt" stroke-miterlimit="10.0"><path d="M 174.4079,297.3555 l 0.0000,-12.3944 l -10.7338,-6.1972 l -10.7338,6.1972 l -0.0000,12.3944 l 10.7338,6.1972 Z"/></g><g stroke-linejoin="miter" stroke-opacity="1.0" fill-opacity="0.0" stroke="rgb(255,0,0)" stroke-width="1.5317903003143252" fill="rgb(0,0,0)" stroke-linecap="butt" stroke-miterlimit="10.0"><path d="M 195.8755,291.1584 c 0.0000,-2.1533 0.2827,-4.3067 -0.0398 -6.3974c -0.3225,-2.0907 -1.2503,-4.1187 -2.4849 -5.8951c -1.2347,-1.7764 -2.7762,-3.3013 -4.5518 -4.4955c -1.7755,-1.1941 -3.7851,-2.0576 -5.9256 -2.4114c -2.1406,-0.3538 -4.4122,-0.1979 -6.3974 0.0398c -1.9852,0.2378 -3.6840,0.5574 -5.2760 0.9903c -1.5921,0.4329 -3.0775,0.9790 -4.3373 2.1389c -1.2598,1.1599 -2.2941,2.9335 -3.1886 3.6359c -0.8945,0.7024 -1.6493,0.3337 -2.3716 0.4717c -0.7222,0.1380 -1.4118,0.7829 -2.0105 1.3434c -0.5987,0.5605 -1.1065,1.0366 -1.7937 1.3365c -0.6873,0.2999 -1.5540,0.4235 -2.2897 0.7772c -0.7357,0.3538 -1.3403,0.9378 -1.8180 1.5943c -0.4776,0.6565 -0.8282,1.3856 -1.0695 2.1687c -0.2413,0.7831 -0.3732,1.6201 -0.1581 2.4128c 0.2151,0.7928 0.7772,1.5412 0.7772 2.2897c -0.0000,0.7485 -0.5622,1.4969 -0.7772 2.2897c -0.2151,0.7928 -0.0831,1.6298 0.1581 2.4128c 0.2413,0.7831 0.5918,1.5121 1.0695 2.1687c 0.4776,0.6565 1.0823,1.2405 1.8180 1.5943c 0.7357,0.3538 1.6024,0.4774 2.2897 0.7772c 0.6873,0.2999 1.1950,0.7760 1.7937 1.3365c 0.5987,0.5605 1.2883,1.2053 2.0105 1.3434c 0.7222,0.1380 1.4770,-0.2307 2.3716 0.4717c 0.8945,0.7024 1.9288,2.4760 3.1886 3.6359c 1.2598,1.1599 2.7452,1.7060 4.3373 2.1389c 1.5921,0.4329 3.2909,0.7526 5.2760 0.9903c 1.9852,0.2378 4.2568,0.3936 6.3974 0.0398c 2.1406,-0.3538 4.1501,-1.2172 5.9256 -2.4114c 1.7755,-1.1941 3.3171,-2.7190 4.5518 -4.4955c 1.2347,-1.7764 2.1624,-3.8045 2.4849 -5.8951c 0.3225,-2.0907 0.0398,-4.2440 0.0398 -6.3974Z"/></g><g stroke-linejoin="miter" stroke-opacity="1.0" fill-opacity="1.0" stroke="rgb(0,0,0)" stroke-width="0.0" fill="rgb(255,0,0)" stroke-linecap="butt" stroke-miterlimit="10.0"><path d="M 164.5528,291.1584 c 0.0000,-0.4853 -0.3934,-0.8787 -0.8787 -0.8787c -0.4853,-0.0000 -0.8787,0.3934 -0.8787 0.8787c -0.0000,0.4853 0.3934,0.8787 0.8787 0.8787c 0.4853,0.0000 0.8787,-0.3934 0.8787 -0.8787Z"/></g><g stroke-linejoin="miter" stroke-opacity="1.0" fill-opacity="0.0" stroke="rgb(0,0,0)" stroke-width="1.5317903003143252" fill="rgb(0,0,0)" stroke-linecap="butt" stroke-miterlimit="10.0"><path d="M 151.9398,297.3555 l 0.0000,-12.3944 l -10.7338,-6.1972 l -10.7338,6.1972 l -0.0000,12.3944 l 10.7338,6.1972 Z"/></g><g stroke-linejoin="miter" stroke-opacity="1.0" fill-opacity="0.0" stroke="rgb(0,0,0)" stroke-width="1.5317903003143252" fill="rgb(0,0,0)" stroke-linecap="butt" stroke-miterlimit="10.0"><path d="M 130.4722,297.3555 l 0.0000,-12.3944 l -10.7338,-6.1972 l -10.7338,6.1972 l -0.0000,12.3944 l 10.7338,6.1972 Z"/></g><g stroke-linejoin="miter" stroke-opacity="1.0" fill-opacity="0.0" stroke="rgb(255,0,0)" stroke-width="1.5317903003143252" fill="rgb(0,0,0)" stroke-linecap="butt" stroke-miterlimit="10.0"><path d="M 151.9398,291.1584 c 0.0000,-2.1533 0.2827,-4.3067 -0.0398 -6.3974c -0.3225,-2.0907 -1.2503,-4.1187 -2.4849 -5.8951c -1.2347,-1.7764 -2.7762,-3.3013 -4.5518 -4.4955c -1.7755,-1.1941 -3.7851,-2.0576 -5.9256 -2.4114c -2.1406,-0.3538 -4.4122,-0.1979 -6.3974 0.0398c -1.9852,0.2378 -3.6840,0.5574 -5.2760 0.9903c -1.5921,0.4329 -3.0775,0.9790 -4.3373 2.1389c -1.2598,1.1599 -2.2941,2.9335 -3.1886 3.6359c -0.8945,0.7024 -1.6493,0.3337 -2.3716 0.4717c -0.7222,0.1380 -1.4118,0.7829 -2.0105 1.3434c -0.5987,0.5605 -1.1065,1.0366 -1.7937 1.3365c -0.6873,0.2999 -1.5540,0.4235 -2.2897 0.7772c -0.7357,0.3538 -1.3403,0.9378 -1.8180 1.5943c -0.4776,0.6565 -0.8282,1.3856 -1.0695 2.1687c -0.2413,0.7831 -0.3732,1.6201 -0.1581 2.4128c 0.2151,0.7928 0.7772,1.5412 0.7772 2.2897c -0.0000,0.7485 -0.5622,1.4969 -0.7772 2.2897c -0.2151,0.7928 -0.0831,1.6298 0.1581 2.4128c 0.2413,0.7831 0.5918,1.5121 1.0695 2.1687c 0.4776,0.6565 1.0823,1.2405 1.8180 1.5943c 0.7357,0.3538 1.6024,0.4774 2.2897 0.7772c 0.6873,0.2999 1.1950,0.7760 1.7937 1.3365c 0.5987,0.5605 1.2883,1.2053 2.0105 1.3434c 0.7222,0.1380 1.4770,-0.2307 2.3716 0.4717c 0.8945,0.7024 1.9288,2.4760 3.1886 3.6359c 1.2598,1.1599 2.7452,1.7060 4.3373 2.1389c 1.5921,0.4329 3.2909,0.7526 5.2760 0.9903c 1.9852,0.2378 4.2568,0.3936 6.3974 0.0398c 2.1406,-0.3538 4.1501,-1.2172 5.9256 -2.4114c 1.7755,-1.1941 3.3171,-2.7190 4.5518 -4.4955c 1.2347,-1.7764 2.1624,-3.8045 2.4849 -5.8951c 0.3225,-2.0907 0.0398,-4.2440 0.0398 -6.3974Z"/></g><g stroke-linejoin="miter" stroke-opacity="1.0" fill-opacity="1.0" stroke="rgb(0,0,0)" stroke-width="0.0" fill="rgb(255,0,0)" stroke-linecap="butt" stroke-miterlimit="10.0"><path d="M 120.6171,291.1584 c 0.0000,-0.4853 -0.3934,-0.8787 -0.8787 -0.8787c -0.4853,-0.0000 -0.8787,0.3934 -0.8787 0.8787c -0.0000,0.4853 0.3934,0.8787 0.8787 0.8787c 0.4853,0.0000 0.8787,-0.3934 0.8787 -0.8787Z"/></g><g stroke-linejoin="miter" stroke-opacity="1.0" fill-opacity="0.0" stroke="rgb(0,0,0)" stroke-width="1.5317903003143252" fill="rgb(0,0,0)" stroke-linecap="butt" stroke-miterlimit="10.0"><path d="M 599.1049,233.5672 l 0.0000,-12.3944 l -10.7338,-6.1972 l -10.7338,6.1972 l -0.0000,12.3944 l 10.7338,6.1972 Z"/></g><g stroke-linejoin="miter" stroke-opacity="1.0" fill-opacity="0.0" stroke="rgb(0,0,0)" stroke-width="1.5317903003143252" fill="rgb(0,0,0)" stroke-linecap="butt" stroke-miterlimit="10.0"><path d="M 577.6372,233.5672 l 0.0000,-12.3944 l -10.7338,-6.1972 l -10.7338,6.1972 l -0.0000,12.3944 l 10.7338,6.1972 Z"/></g><g stroke-linejoin="miter" stroke-opacity="1.0" fill-opacity="0.0" stroke="rgb(255,0,0)" stroke-width="1.5317903003143252" fill="rgb(0,0,0)" stroke-linecap="butt" stroke-miterlimit="10.0"><path d="M 599.1049,227.3701 c 0.0000,-2.1533 0.2827,-4.3067 -0.0398 -6.3974c -0.3225,-2.0907 -1.2503,-4.1187 -2.4849 -5.8951c -1.2347,-1.7764 -2.7762,-3.3013 -4.5518 -4.4955c -1.7755,-1.1941 -3.7851,-2.0576 -5.9256 -2.4114c -2.1406,-0.3538 -4.4122,-0.1979 -6.3974 0.0398c -1.9852,0.2378 -3.6840,0.5574 -5.2760 0.9903c -1.5921,0.4329 -3.0775,0.9790 -4.3373 2.1389c -1.2598,1.1599 -2.2941,2.9335 -3.1886 3.6359c -0.8945,0.7024 -1.6493,0.3337 -2.3716 0.4717c -0.7222,0.1380 -1.4118,0.7829 -2.0105 1.3434c -0.5987,0.5605 -1.1065,1.0366 -1.7937 1.3365c -0.6873,0.2999 -1.5540,0.4235 -2.2897 0.7772c -0.7357,0.3538 -1.3403,0.9378 -1.8180 1.5943c -0.4776,0.6565 -0.8282,1.3856 -1.0695 2.1687c -0.2413,0.7831 -0.3732,1.6201 -0.1581 2.4128c 0.2151,0.7928 0.7772,1.5412 0.7772 2.2897c -0.0000,0.7485 -0.5622,1.4969 -0.7772 2.2897c -0.2151,0.7928 -0.0831,1.6298 0.1581 2.4128c 0.2413,0.7831 0.5918,1.5121 1.0695 2.1687c 0.4776,0.6565 1.0823,1.2405 1.8180 1.5943c 0.7357,0.3538 1.6024,0.4774 2.2897 0.7772c 0.6873,0.2999 1.1950,0.7760 1.7937 1.3365c 0.5987,0.5605 1.2883,1.2053 2.0105 1.3434c 0.7222,0.1380 1.4770,-0.2307 2.3716 0.4717c 0.8945,0.7024 1.9288,2.4760 3.1886 3.6359c 1.2598,1.1599 2.7452,1.7060 4.3373 2.1389c 1.5921,0.4329 3.2909,0.7526 5.2760 0.9903c 1.9852,0.2378 4.2568,0.3936 6.3974 0.0398c 2.1406,-0.3538 4.1501,-1.2172 5.9256 -2.4114c 1.7755,-1.1941 3.3171,-2.7190 4.5518 -4.4955c 1.2347,-1.7764 2.1624,-3.8045 2.4849 -5.8951c 0.3225,-2.0907 0.0398,-4.2440 0.0398 -6.3974Z"/></g><g stroke-linejoin="miter" stroke-opacity="1.0" fill-opacity="1.0" stroke="rgb(0,0,0)" stroke-width="0.0" fill="rgb(255,0,0)" stroke-linecap="butt" stroke-miterlimit="10.0"><path d="M 567.7821,227.3701 c 0.0000,-0.4853 -0.3934,-0.8787 -0.8787 -0.8787c -0.4853,-0.0000 -0.8787,0.3934 -0.8787 0.8787c -0.0000,0.4853 0.3934,0.8787 0.8787 0.8787c 0.4853,0.0000 0.8787,-0.3934 0.8787 -0.8787Z"/></g><g stroke-linejoin="miter" stroke-opacity="1.0" fill-opacity="0.0" stroke="rgb(0,0,0)" stroke-width="1.5317903003143252" fill="rgb(0,0,0)" stroke-linecap="butt" stroke-miterlimit="10.0"><path d="M 555.1692,233.5672 l 0.0000,-12.3944 l -10.7338,-6.1972 l -10.7338,6.1972 l -0.0000,12.3944 l 10.7338,6.1972 Z"/></g><g stroke-linejoin="miter" stroke-opacity="1.0" fill-opacity="0.0" stroke="rgb(0,0,0)" stroke-width="1.5317903003143252" fill="rgb(0,0,0)" stroke-linecap="butt" stroke-miterlimit="10.0"><path d="M 533.7015,233.5672 l 0.0000,-12.3944 l -10.7338,-6.1972 l -10.7338,6.1972 l -0.0000,12.3944 l 10.7338,6.1972 Z"/></g><g stroke-linejoin="miter" stroke-opacity="1.0" fill-opacity="0.0" stroke="rgb(255,0,0)" stroke-width="1.5317903003143252" fill="rgb(0,0,0)" stroke-linecap="butt" stroke-miterlimit="10.0"><path d="M 555.1692,227.3701 c 0.0000,-2.1533 0.2827,-4.3067 -0.0398 -6.3974c -0.3225,-2.0907 -1.2503,-4.1187 -2.4849 -5.8951c -1.2347,-1.7764 -2.7762,-3.3013 -4.5518 -4.4955c -1.7755,-1.1941 -3.7851,-2.0576 -5.9256 -2.4114c -2.1406,-0.3538 -4.4122,-0.1979 -6.3974 0.0398c -1.9852,0.2378 -3.6840,0.5574 -5.2760 0.9903c -1.5921,0.4329 -3.0775,0.9790 -4.3373 2.1389c -1.2598,1.1599 -2.2941,2.9335 -3.1886 3.6359c -0.8945,0.7024 -1.6493,0.3337 -2.3716 0.4717c -0.7222,0.1380 -1.4118,0.7829 -2.0105 1.3434c -0.5987,0.5605 -1.1065,1.0366 -1.7937 1.3365c -0.6873,0.2999 -1.5540,0.4235 -2.2897 0.7772c -0.7357,0.3538 -1.3403,0.9378 -1.8180 1.5943c -0.4776,0.6565 -0.8282,1.3856 -1.0695 2.1687c -0.2413,0.7831 -0.3732,1.6201 -0.1581 2.4128c 0.2151,0.7928 0.7772,1.5412 0.7772 2.2897c -0.0000,0.7485 -0.5622,1.4969 -0.7772 2.2897c -0.2151,0.7928 -0.0831,1.6298 0.1581 2.4128c 0.2413,0.7831 0.5918,1.5121 1.0695 2.1687c 0.4776,0.6565 1.0823,1.2405 1.8180 1.5943c 0.7357,0.3538 1.6024,0.4774 2.2897 0.7772c 0.6873,0.2999 1.1950,0.7760 1.7937 1.3365c 0.5987,0.5605 1.2883,1.2053 2.0105 1.3434c 0.7222,0.1380 1.4770,-0.2307 2.3716 0.4717c 0.8945,0.7024 1.9288,2.4760 3.1886 3.6359c 1.2598,1.1599 2.7452,1.7060 4.3373 2.1389c 1.5921,0.4329 3.2909,0.7526 5.2760 0.9903c 1.9852,0.2378 4.2568,0.3936 6.3974 0.0398c 2.1406,-0.3538 4.1501,-1.2172 5.9256 -2.4114c 1.7755,-1.1941 3.3171,-2.7190 4.5518 -4.4955c 1.2347,-1.7764 2.1624,-3.8045 2.4849 -5.8951c 0.3225,-2.0907 0.0398,-4.2440 0.0398 -6.3974Z"/></g><g stroke-linejoin="miter" stroke-opacity="1.0" fill-opacity="1.0" stroke="rgb(0,0,0)" stroke-width="0.0" fill="rgb(255,0,0)" stroke-linecap="butt" stroke-miterlimit="10.0"><path d="M 523.8464,227.3701 c 0.0000,-0.4853 -0.3934,-0.8787 -0.8787 -0.8787c -0.4853,-0.0000 -0.8787,0.3934 -0.8787 0.8787c -0.0000,0.4853 0.3934,0.8787 0.8787 0.8787c 0.4853,0.0000 0.8787,-0.3934 0.8787 -0.8787Z"/></g><g stroke-linejoin="miter" stroke-opacity="1.0" fill-opacity="0.0" stroke="rgb(0,0,0)" stroke-width="1.5317903003143252" fill="rgb(0,0,0)" stroke-linecap="butt" stroke-miterlimit="10.0"><path d="M 505.6985,252.1588 l 0.0000,-12.3944 l -10.7338,-6.1972 l -10.7338,6.1972 l -0.0000,12.3944 l 10.7338,6.1972 Z"/></g><g stroke-linejoin="miter" stroke-opacity="1.0" fill-opacity="0.0" stroke="rgb(0,0,0)" stroke-width="1.5317903003143252" fill="rgb(0,0,0)" stroke-linecap="butt" stroke-miterlimit="10.0"><path d="M 494.9647,233.5672 l 0.0000,-12.3944 l -10.7338,-6.1972 l -10.7338,6.1972 l -0.0000,12.3944 l 10.7338,6.1972 Z"/></g><g stroke-linejoin="miter" stroke-opacity="1.0" fill-opacity="0.0" stroke="rgb(255,0,0)" stroke-width="1.5317903003143252" fill="rgb(0,0,0)" stroke-linecap="butt" stroke-miterlimit="10.0"><path d="M 505.6985,227.3701 c -1.2087,-1.4532 -1.9812,-2.6686 -3.1886 -3.6359c -1.2074,-0.9673 -2.8496,-1.6866 -4.3373 -2.1389c -1.4877,-0.4523 -2.8209,-0.6376 -3.6583 -1.0963c -0.8374,-0.4587 -1.1791,-1.1909 -1.8180 -1.5943c -0.6389,-0.4034 -1.5751,-0.4781 -2.2897 -0.7772c -0.7146,-0.2991 -1.2078,-0.8226 -1.7937 -1.3365c -0.5860,-0.5139 -1.2648,-1.0181 -2.0105 -1.3434c -0.7457,-0.3252 -1.5582,-0.4715 -2.3716 -0.4717c -0.8134,-0.0003 -1.6276,0.1454 -2.3716 0.4717c -0.7440,0.3263 -1.4176,0.8333 -2.0105 1.3434c -0.5929,0.5100 -1.1049,1.0231 -1.7937 1.3365c -0.6888,0.3134 -1.5544,0.4271 -2.2897 0.7772c -0.7353,0.3502 -1.3404,0.9369 -1.8180 1.5943c -0.4776,0.6575 -0.8277,1.3857 -1.0695 2.1687c -0.2418,0.7830 -0.3754,1.6207 -0.1581 2.4128c 0.2172,0.7922 0.7852,1.5389 0.7772 2.2897c -0.0079,0.7508 -0.5918,1.5057 -0.7772 2.2897c -0.1855,0.7840 0.0274,1.5969 0.1581 2.4128c 0.1307,0.8159 0.1792,1.6347 -0.0980 2.9487c -0.2771,1.3140 -0.8799,3.1230 -0.9435 4.7431c -0.0635,1.6201 0.4122,3.0512 0.9435 4.7431c 0.5313,1.6920 1.1181,3.6448 2.0677 5.5157c 0.9496,1.8709 2.2620,3.6598 3.8629 5.0996c 1.6009,1.4398 3.4903,2.5305 5.5204 3.2332c 2.0300,0.7027 4.2006,1.0175 6.3374 0.8745c 2.1368,-0.1430 4.2398,-0.7437 6.1897 -1.6173c 1.9499,-0.8736 3.7466,-2.0203 5.5500 -3.1889c 1.8034,-1.1686 3.6134,-2.3592 5.0511 -3.9261c 1.4378,-1.5668 2.5032,-3.5099 3.1642 -5.5602c 0.6609,-2.0503 0.9173,-4.2079 0.7955 -6.3478c -0.1218,-2.1400 -0.6218,-4.2623 -1.6942 -6.1691c -1.0724,-1.9067 -2.7173,-3.5979 -3.9261 -5.0511Z"/></g><g stroke-linejoin="miter" stroke-opacity="1.0" fill-opacity="1.0" stroke="rgb(0,0,0)" stroke-width="0.0" fill="rgb(255,0,0)" stroke-linecap="butt" stroke-miterlimit="10.0"><path d="M 485.1167,227.3701 c 0.0000,-0.4892 -0.3966,-0.8858 -0.8858 -0.8858c -0.4892,-0.0000 -0.8858,0.3966 -0.8858 0.8858c -0.0000,0.4892 0.3966,0.8858 0.8858 0.8858c 0.4892,0.0000 0.8858,-0.3966 0.8858 -0.8858Z"/></g><g stroke-linejoin="miter" stroke-opacity="1.0" fill-opacity="0.0" stroke="rgb(0,0,0)" stroke-width="1.5317903003143252" fill="rgb(0,0,0)" stroke-linecap="butt" stroke-miterlimit="10.0"><path d="M 466.1812,214.9757 l 0.0000,-12.3944 l -10.7338,-6.1972 l -10.7338,6.1972 l -0.0000,12.3944 l 10.7338,6.1972 Z"/></g><g stroke-linejoin="miter" stroke-opacity="1.0" fill-opacity="0.0" stroke="rgb(0,0,0)" stroke-width="1.5317903003143252" fill="rgb(0,0,0)" stroke-linecap="butt" stroke-miterlimit="10.0"><path d="M 455.4474,233.5672 l 0.0000,-12.3944 l -10.7338,-6.1972 l -10.7338,6.1972 l -0.0000,12.3944 l 10.7338,6.1972 Z"/></g><g stroke-linejoin="miter" stroke-opacity="1.0" fill-opacity="0.0" stroke="rgb(255,0,0)" stroke-width="1.5317903003143252" fill="rgb(0,0,0)" stroke-linecap="butt" stroke-miterlimit="10.0"><path d="M 466.1812,227.3701 c 1.2087,-1.4532 2.8536,-3.1444 3.9261 -5.0511c 1.0724,-1.9067 1.5724,-4.0291 1.6942 -6.1691c 0.1218,-2.1400 -0.1346,-4.2975 -0.7955 -6.3478c -0.6609,-2.0503 -1.7264,-3.9933 -3.1642 -5.5602c -1.4378,-1.5668 -3.2478,-2.7574 -5.0511 -3.9261c -1.8034,-1.1686 -3.6001,-2.3152 -5.5500 -3.1889c -1.9499,-0.8736 -4.0529,-1.4743 -6.1897 -1.6173c -2.1368,-0.1430 -4.3074,0.1718 -6.3374 0.8745c -2.0300,0.7027 -3.9195,1.7934 -5.5204 3.2332c -1.6009,1.4398 -2.9133,3.2287 -3.8629 5.0996c -0.9496,1.8709 -1.5364,3.8237 -2.0677 5.5157c -0.5313,1.6920 -1.0070,3.1230 -0.9435 4.7431c 0.0635,1.6201 0.6663,3.4292 0.9435 4.7431c 0.2771,1.3140 0.2287,2.1328 0.0980 2.9487c -0.1307,0.8159 -0.3436,1.6289 -0.1581 2.4128c 0.1855,0.7840 0.7693,1.5389 0.7772 2.2897c 0.0079,0.7508 -0.5600,1.4975 -0.7772 2.2897c -0.2172,0.7922 -0.0837,1.6299 0.1581 2.4128c 0.2418,0.7830 0.5919,1.5112 1.0695 2.1687c 0.4776,0.6575 1.0826,1.2441 1.8180 1.5943c 0.7353,0.3502 1.6009,0.4639 2.2897 0.7772c 0.6888,0.3134 1.2009,0.8265 1.7937 1.3365c 0.5929,0.5100 1.2666,1.0170 2.0105 1.3434c 0.7440,0.3263 1.5582,0.4720 2.3716 0.4717c 0.8134,-0.0003 1.6259,-0.1465 2.3716 -0.4717c 0.7457,-0.3252 1.4245,-0.8295 2.0105 -1.3434c 0.5860,-0.5139 1.0791,-1.0374 1.7937 -1.3365c 0.7146,-0.2991 1.6508,-0.3738 2.2897 -0.7772c 0.6389,-0.4034 0.9806,-1.1356 1.8180 -1.5943c 0.8374,-0.4587 2.1706,-0.6440 3.6583 -1.0963c 1.4877,-0.4523 3.1299,-1.1716 4.3373 -2.1389c 1.2074,-0.9673 1.9799,-2.1827 3.1886 -3.6359Z"/></g><g stroke-linejoin="miter" stroke-opacity="1.0" fill-opacity="1.0" stroke="rgb(0,0,0)" stroke-width="0.0" fill="rgb(255,0,0)" stroke-linecap="butt" stroke-miterlimit="10.0"><path d="M 445.5993,227.3701 c 0.0000,-0.4892 -0.3966,-0.8858 -0.8858 -0.8858c -0.4892,-0.0000 -0.8858,0.3966 -0.8858 0.8858c -0.0000,0.4892 0.3966,0.8858 0.8858 0.8858c 0.4892,0.0000 0.8858,-0.3966 0.8858 -0.8858Z"/></g><g stroke-linejoin="miter" stroke-opacity="1.0" fill-opacity="0.0" stroke="rgb(0,0,0)" stroke-width="1.5317903003143252" fill="rgb(0,0,0)" stroke-linecap="butt" stroke-miterlimit="10.0"><path d="M 426.6639,214.9757 l 0.0000,-12.3944 l -10.7338,-6.1972 l -10.7338,6.1972 l -0.0000,12.3944 l 10.7338,6.1972 Z"/></g><g stroke-linejoin="miter" stroke-opacity="1.0" fill-opacity="0.0" stroke="rgb(0,0,0)" stroke-width="1.5317903003143252" fill="rgb(0,0,0)" stroke-linecap="butt" stroke-miterlimit="10.0"><path d="M 415.9301,233.5672 l 0.0000,-12.3944 l -10.7338,-6.1972 l -10.7338,6.1972 l -0.0000,12.3944 l 10.7338,6.1972 Z"/></g><g stroke-linejoin="miter" stroke-opacity="1.0" fill-opacity="0.0" stroke="rgb(255,0,0)" stroke-width="1.5317903003143252" fill="rgb(0,0,0)" stroke-linecap="butt" stroke-miterlimit="10.0"><path d="M 426.6639,227.3701 c 1.2087,-1.4532 2.8536,-3.1444 3.9261 -5.0511c 1.0724,-1.9067 1.5724,-4.0291 1.6942 -6.1691c 0.1218,-2.1400 -0.1346,-4.2975 -0.7955 -6.3478c -0.6609,-2.0503 -1.7264,-3.9933 -3.1642 -5.5602c -1.4378,-1.5668 -3.2478,-2.7574 -5.0511 -3.9261c -1.8034,-1.1686 -3.6001,-2.3152 -5.5500 -3.1889c -1.9499,-0.8736 -4.0529,-1.4743 -6.1897 -1.6173c -2.1368,-0.1430 -4.3074,0.1718 -6.3374 0.8745c -2.0300,0.7027 -3.9195,1.7934 -5.5204 3.2332c -1.6009,1.4398 -2.9133,3.2287 -3.8629 5.0996c -0.9496,1.8709 -1.5364,3.8237 -2.0677 5.5157c -0.5313,1.6920 -1.0070,3.1230 -0.9435 4.7431c 0.0635,1.6201 0.6663,3.4292 0.9435 4.7431c 0.2771,1.3140 0.2287,2.1328 0.0980 2.9487c -0.1307,0.8159 -0.3436,1.6289 -0.1581 2.4128c 0.1855,0.7840 0.7693,1.5389 0.7772 2.2897c 0.0079,0.7508 -0.5600,1.4975 -0.7772 2.2897c -0.2172,0.7922 -0.0837,1.6299 0.1581 2.4128c 0.2418,0.7830 0.5919,1.5112 1.0695 2.1687c 0.4776,0.6575 1.0826,1.2441 1.8180 1.5943c 0.7353,0.3502 1.6009,0.4639 2.2897 0.7772c 0.6888,0.3134 1.2009,0.8265 1.7937 1.3365c 0.5929,0.5100 1.2666,1.0170 2.0105 1.3434c 0.7440,0.3263 1.5582,0.4720 2.3716 0.4717c 0.8134,-0.0003 1.6259,-0.1465 2.3716 -0.4717c 0.7457,-0.3252 1.4245,-0.8295 2.0105 -1.3434c 0.5860,-0.5139 1.0791,-1.0374 1.7937 -1.3365c 0.7146,-0.2991 1.6508,-0.3738 2.2897 -0.7772c 0.6389,-0.4034 0.9806,-1.1356 1.8180 -1.5943c 0.8374,-0.4587 2.1706,-0.6440 3.6583 -1.0963c 1.4877,-0.4523 3.1299,-1.1716 4.3373 -2.1389c 1.2074,-0.9673 1.9799,-2.1827 3.1886 -3.6359Z"/></g><g stroke-linejoin="miter" stroke-opacity="1.0" fill-opacity="1.0" stroke="rgb(0,0,0)" stroke-width="0.0" fill="rgb(255,0,0)" stroke-linecap="butt" stroke-miterlimit="10.0"><path d="M 406.0820,227.3701 c 0.0000,-0.4892 -0.3966,-0.8858 -0.8858 -0.8858c -0.4892,-0.0000 -0.8858,0.3966 -0.8858 0.8858c -0.0000,0.4892 0.3966,0.8858 0.8858 0.8858c 0.4892,0.0000 0.8858,-0.3966 0.8858 -0.8858Z"/></g><g stroke-linejoin="miter" stroke-opacity="1.0" fill-opacity="0.0" stroke="rgb(0,0,0)" stroke-width="1.5317903003143252" fill="rgb(0,0,0)" stroke-linecap="butt" stroke-miterlimit="10.0"><path d="M 387.1466,252.1588 l 0.0000,-12.3944 l -10.7338,-6.1972 l -10.7338,6.1972 l -0.0000,12.3944 l 10.7338,6.1972 Z"/></g><g stroke-linejoin="miter" stroke-opacity="1.0" fill-opacity="0.0" stroke="rgb(0,0,0)" stroke-width="1.5317903003143252" fill="rgb(0,0,0)" stroke-linecap="butt" stroke-miterlimit="10.0"><path d="M 376.4128,233.5672 l 0.0000,-12.3944 l -10.7338,-6.1972 l -10.7338,6.1972 l -0.0000,12.3944 l 10.7338,6.1972 Z"/></g><g stroke-linejoin="miter" stroke-opacity="1.0" fill-opacity="0.0" stroke="rgb(255,0,0)" stroke-width="1.5317903003143252" fill="rgb(0,0,0)" stroke-linecap="butt" stroke-miterlimit="10.0"><path d="M 387.1466,227.3701 c -1.2087,-1.4532 -1.9812,-2.6686 -3.1886 -3.6359c -1.2074,-0.9673 -2.8496,-1.6866 -4.3373 -2.1389c -1.4877,-0.4523 -2.8209,-0.6376 -3.6583 -1.0963c -0.8374,-0.4587 -1.1791,-1.1909 -1.8180 -1.5943c -0.6389,-0.4034 -1.5751,-0.4781 -2.2897 -0.7772c -0.7146,-0.2991 -1.2078,-0.8226 -1.7937 -1.3365c -0.5860,-0.5139 -1.2648,-1.0181 -2.0105 -1.3434c -0.7457,-0.3252 -1.5582,-0.4715 -2.3716 -0.4717c -0.8134,-0.0003 -1.6276,0.1454 -2.3716 0.4717c -0.7440,0.3263 -1.4176,0.8333 -2.0105 1.3434c -0.5929,0.5100 -1.1049,1.0231 -1.7937 1.3365c -0.6888,0.3134 -1.5544,0.4271 -2.2897 0.7772c -0.7353,0.3502 -1.3404,0.9369 -1.8180 1.5943c -0.4776,0.6575 -0.8277,1.3857 -1.0695 2.1687c -0.2418,0.7830 -0.3754,1.6207 -0.1581 2.4128c 0.2172,0.7922 0.7852,1.5389 0.7772 2.2897c -0.0079,0.7508 -0.5918,1.5057 -0.7772 2.2897c -0.1855,0.7840 0.0274,1.5969 0.1581 2.4128c 0.1307,0.8159 0.1792,1.6347 -0.0980 2.9487c -0.2771,1.3140 -0.8799,3.1230 -0.9435 4.7431c -0.0635,1.6201 0.4122,3.0512 0.9435 4.7431c 0.5313,1.6920 1.1181,3.6448 2.0677 5.5157c 0.9496,1.8709 2.2620,3.6598 3.8629 5.0996c 1.6009,1.4398 3.4903,2.5305 5.5204 3.2332c 2.0300,0.7027 4.2006,1.0175 6.3374 0.8745c 2.1368,-0.1430 4.2398,-0.7437 6.1897 -1.6173c 1.9499,-0.8736 3.7466,-2.0203 5.5500 -3.1889c 1.8034,-1.1686 3.6134,-2.3592 5.0511 -3.9261c 1.4378,-1.5668 2.5032,-3.5099 3.1642 -5.5602c 0.6609,-2.0503 0.9173,-4.2079 0.7955 -6.3478c -0.1218,-2.1400 -0.6218,-4.2623 -1.6942 -6.1691c -1.0724,-1.9067 -2.7173,-3.5979 -3.9261 -5.0511Z"/></g><g stroke-linejoin="miter" stroke-opacity="1.0" fill-opacity="1.0" stroke="rgb(0,0,0)" stroke-width="0.0" fill="rgb(255,0,0)" stroke-linecap="butt" stroke-miterlimit="10.0"><path d="M 366.5647,227.3701 c 0.0000,-0.4892 -0.3966,-0.8858 -0.8858 -0.8858c -0.4892,-0.0000 -0.8858,0.3966 -0.8858 0.8858c -0.0000,0.4892 0.3966,0.8858 0.8858 0.8858c 0.4892,0.0000 0.8858,-0.3966 0.8858 -0.8858Z"/></g><g stroke-linejoin="miter" stroke-opacity="1.0" fill-opacity="0.0" stroke="rgb(0,0,0)" stroke-width="1.5317903003143252" fill="rgb(0,0,0)" stroke-linecap="butt" stroke-miterlimit="10.0"><path d="M 353.1643,233.5672 l 0.0000,-12.3944 l -10.7338,-6.1972 l -10.7338,6.1972 l -0.0000,12.3944 l 10.7338,6.1972 Z"/></g><g stroke-linejoin="miter" stroke-opacity="1.0" fill-opacity="0.0" stroke="rgb(0,0,0)" stroke-width="1.5317903003143252" fill="rgb(0,0,0)" stroke-linecap="butt" stroke-miterlimit="10.0"><path d="M 331.6966,233.5672 l 0.0000,-12.3944 l -10.7338,-6.1972 l -10.7338,6.1972 l -0.0000,12.3944 l 10.7338,6.1972 Z"/></g><g stroke-linejoin="miter" stroke-opacity="1.0" fill-opacity="0.0" stroke="rgb(255,0,0)" stroke-width="1.5317903003143252" fill="rgb(0,0,0)" stroke-linecap="butt" stroke-miterlimit="10.0"><path d="M 353.1643,227.3701 c 0.0000,-2.1533 0.2827,-4.3067 -0.0398 -6.3974c -0.3225,-2.0907 -1.2503,-4.1187 -2.4849 -5.8951c -1.2347,-1.7764 -2.7762,-3.3013 -4.5518 -4.4955c -1.7755,-1.1941 -3.7851,-2.0576 -5.9256 -2.4114c -2.1406,-0.3538 -4.4122,-0.1979 -6.3974 0.0398c -1.9852,0.2378 -3.6840,0.5574 -5.2760 0.9903c -1.5921,0.4329 -3.0775,0.9790 -4.3373 2.1389c -1.2598,1.1599 -2.2941,2.9335 -3.1886 3.6359c -0.8945,0.7024 -1.6493,0.3337 -2.3716 0.4717c -0.7222,0.1380 -1.4118,0.7829 -2.0105 1.3434c -0.5987,0.5605 -1.1065,1.0366 -1.7937 1.3365c -0.6873,0.2999 -1.5540,0.4235 -2.2897 0.7772c -0.7357,0.3538 -1.3403,0.9378 -1.8180 1.5943c -0.4776,0.6565 -0.8282,1.3856 -1.0695 2.1687c -0.2413,0.7831 -0.3732,1.6201 -0.1581 2.4128c 0.2151,0.7928 0.7772,1.5412 0.7772 2.2897c -0.0000,0.7485 -0.5622,1.4969 -0.7772 2.2897c -0.2151,0.7928 -0.0831,1.6298 0.1581 2.4128c 0.2413,0.7831 0.5918,1.5121 1.0695 2.1687c 0.4776,0.6565 1.0823,1.2405 1.8180 1.5943c 0.7357,0.3538 1.6024,0.4774 2.2897 0.7772c 0.6873,0.2999 1.1950,0.7760 1.7937 1.3365c 0.5987,0.5605 1.2883,1.2053 2.0105 1.3434c 0.7222,0.1380 1.4770,-0.2307 2.3716 0.4717c 0.8945,0.7024 1.9288,2.4760 3.1886 3.6359c 1.2598,1.1599 2.7452,1.7060 4.3373 2.1389c 1.5921,0.4329 3.2909,0.7526 5.2760 0.9903c 1.9852,0.2378 4.2568,0.3936 6.3974 0.0398c 2.1406,-0.3538 4.1501,-1.2172 5.9256 -2.4114c 1.7755,-1.1941 3.3171,-2.7190 4.5518 -4.4955c 1.2347,-1.7764 2.1624,-3.8045 2.4849 -5.8951c 0.3225,-2.0907 0.0398,-4.2440 0.0398 -6.3974Z"/></g><g stroke-linejoin="miter" stroke-opacity="1.0" fill-opacity="1.0" stroke="rgb(0,0,0)" stroke-width="0.0" fill="rgb(255,0,0)" stroke-linecap="butt" stroke-miterlimit="10.0"><path d="M 321.8415,227.3701 c 0.0000,-0.4853 -0.3934,-0.8787 -0.8787 -0.8787c -0.4853,-0.0000 -0.8787,0.3934 -0.8787 0.8787c -0.0000,0.4853 0.3934,0.8787 0.8787 0.8787c 0.4853,0.0000 0.8787,-0.3934 0.8787 -0.8787Z"/></g><g stroke-linejoin="miter" stroke-opacity="1.0" fill-opacity="0.0" stroke="rgb(0,0,0)" stroke-width="1.5317903003143252" fill="rgb(0,0,0)" stroke-linecap="butt" stroke-miterlimit="10.0"><path d="M 309.2286,233.5672 l 0.0000,-12.3944 l -10.7338,-6.1972 l -10.7338,6.1972 l -0.0000,12.3944 l 10.7338,6.1972 Z"/></g><g stroke-linejoin="miter" stroke-opacity="1.0" fill-opacity="0.0" stroke="rgb(0,0,0)" stroke-width="1.5317903003143252" fill="rgb(0,0,0)" stroke-linecap="butt" stroke-miterlimit="10.0"><path d="M 287.7609,233.5672 l 0.0000,-12.3944 l -10.7338,-6.1972 l -10.7338,6.1972 l -0.0000,12.3944 l 10.7338,6.1972 Z"/></g><g stroke-linejoin="miter" stroke-opacity="1.0" fill-opacity="0.0" stroke="rgb(255,0,0)" stroke-width="1.5317903003143252" fill="rgb(0,0,0)" stroke-linecap="butt" stroke-miterlimit="10.0"><path d="M 309.2286,227.3701 c 0.0000,-2.1533 0.2827,-4.3067 -0.0398 -6.3974c -0.3225,-2.0907 -1.2503,-4.1187 -2.4849 -5.8951c -1.2347,-1.7764 -2.7762,-3.3013 -4.5518 -4.4955c -1.7755,-1.1941 -3.7851,-2.0576 -5.9256 -2.4114c -2.1406,-0.3538 -4.4122,-0.1979 -6.3974 0.0398c -1.9852,0.2378 -3.6840,0.5574 -5.2760 0.9903c -1.5921,0.4329 -3.0775,0.9790 -4.3373 2.1389c -1.2598,1.1599 -2.2941,2.9335 -3.1886 3.6359c -0.8945,0.7024 -1.6493,0.3337 -2.3716 0.4717c -0.7222,0.1380 -1.4118,0.7829 -2.0105 1.3434c -0.5987,0.5605 -1.1065,1.0366 -1.7937 1.3365c -0.6873,0.2999 -1.5540,0.4235 -2.2897 0.7772c -0.7357,0.3538 -1.3403,0.9378 -1.8180 1.5943c -0.4776,0.6565 -0.8282,1.3856 -1.0695 2.1687c -0.2413,0.7831 -0.3732,1.6201 -0.1581 2.4128c 0.2151,0.7928 0.7772,1.5412 0.7772 2.2897c -0.0000,0.7485 -0.5622,1.4969 -0.7772 2.2897c -0.2151,0.7928 -0.0831,1.6298 0.1581 2.4128c 0.2413,0.7831 0.5918,1.5121 1.0695 2.1687c 0.4776,0.6565 1.0823,1.2405 1.8180 1.5943c 0.7357,0.3538 1.6024,0.4774 2.2897 0.7772c 0.6873,0.2999 1.1950,0.7760 1.7937 1.3365c 0.5987,0.5605 1.2883,1.2053 2.0105 1.3434c 0.7222,0.1380 1.4770,-0.2307 2.3716 0.4717c 0.8945,0.7024 1.9288,2.4760 3.1886 3.6359c 1.2598,1.1599 2.7452,1.7060 4.3373 2.1389c 1.5921,0.4329 3.2909,0.7526 5.2760 0.9903c 1.9852,0.2378 4.2568,0.3936 6.3974 0.0398c 2.1406,-0.3538 4.1501,-1.2172 5.9256 -2.4114c 1.7755,-1.1941 3.3171,-2.7190 4.5518 -4.4955c 1.2347,-1.7764 2.1624,-3.8045 2.4849 -5.8951c 0.3225,-2.0907 0.0398,-4.2440 0.0398 -6.3974Z"/></g><g stroke-linejoin="miter" stroke-opacity="1.0" fill-opacity="1.0" stroke="rgb(0,0,0)" stroke-width="0.0" fill="rgb(255,0,0)" stroke-linecap="butt" stroke-miterlimit="10.0"><path d="M 277.9058,227.3701 c 0.0000,-0.4853 -0.3934,-0.8787 -0.8787 -0.8787c -0.4853,-0.0000 -0.8787,0.3934 -0.8787 0.8787c -0.0000,0.4853 0.3934,0.8787 0.8787 0.8787c 0.4853,0.0000 0.8787,-0.3934 0.8787 -0.8787Z"/></g><g stroke-linejoin="miter" stroke-opacity="1.0" fill-opacity="0.0" stroke="rgb(0,0,0)" stroke-width="1.5317903003143252" fill="rgb(0,0,0)" stroke-linecap="butt" stroke-miterlimit="10.0"><path d="M 259.7579,252.1588 l 0.0000,-12.3944 l -10.7338,-6.1972 l -10.7338,6.1972 l -0.0000,12.3944 l 10.7338,6.1972 Z"/></g><g stroke-linejoin="miter" stroke-opacity="1.0" fill-opacity="0.0" stroke="rgb(0,0,0)" stroke-width="1.5317903003143252" fill="rgb(0,0,0)" stroke-linecap="butt" stroke-miterlimit="10.0"><path d="M 249.0241,233.5672 l 0.0000,-12.3944 l -10.7338,-6.1972 l -10.7338,6.1972 l -0.0000,12.3944 l 10.7338,6.1972 Z"/></g><g stroke-linejoin="miter" stroke-opacity="1.0" fill-opacity="0.0" stroke="rgb(255,0,0)" stroke-width="1.5317903003143252" fill="rgb(0,0,0)" stroke-linecap="butt" stroke-miterlimit="10.0"><path d="M 259.7579,227.3701 c -1.2087,-1.4532 -1.9812,-2.6686 -3.1886 -3.6359c -1.2074,-0.9673 -2.8496,-1.6866 -4.3373 -2.1389c -1.4877,-0.4523 -2.8209,-0.6376 -3.6583 -1.0963c -0.8374,-0.4587 -1.1791,-1.1909 -1.8180 -1.5943c -0.6389,-0.4034 -1.5751,-0.4781 -2.2897 -0.7772c -0.7146,-0.2991 -1.2078,-0.8226 -1.7937 -1.3365c -0.5860,-0.5139 -1.2648,-1.0181 -2.0105 -1.3434c -0.7457,-0.3252 -1.5582,-0.4715 -2.3716 -0.4717c -0.8134,-0.0003 -1.6276,0.1454 -2.3716 0.4717c -0.7440,0.3263 -1.4176,0.8333 -2.0105 1.3434c -0.5929,0.5100 -1.1049,1.0231 -1.7937 1.3365c -0.6888,0.3134 -1.5544,0.4271 -2.2897 0.7772c -0.7353,0.3502 -1.3404,0.9369 -1.8180 1.5943c -0.4776,0.6575 -0.8277,1.3857 -1.0695 2.1687c -0.2418,0.7830 -0.3754,1.6207 -0.1581 2.4128c 0.2172,0.7922 0.7852,1.5389 0.7772 2.2897c -0.0079,0.7508 -0.5918,1.5057 -0.7772 2.2897c -0.1855,0.7840 0.0274,1.5969 0.1581 2.4128c 0.1307,0.8159 0.1792,1.6347 -0.0980 2.9487c -0.2771,1.3140 -0.8799,3.1230 -0.9435 4.7431c -0.0635,1.6201 0.4122,3.0512 0.9435 4.7431c 0.5313,1.6920 1.1181,3.6448 2.0677 5.5157c 0.9496,1.8709 2.2620,3.6598 3.8629 5.0996c 1.6009,1.4398 3.4903,2.5305 5.5204 3.2332c 2.0300,0.7027 4.2006,1.0175 6.3374 0.8745c 2.1368,-0.1430 4.2398,-0.7437 6.1897 -1.6173c 1.9499,-0.8736 3.7466,-2.0203 5.5500 -3.1889c 1.8034,-1.1686 3.6134,-2.3592 5.0511 -3.9261c 1.4378,-1.5668 2.5032,-3.5099 3.1642 -5.5602c 0.6609,-2.0503 0.9173,-4.2079 0.7955 -6.3478c -0.1218,-2.1400 -0.6218,-4.2623 -1.6942 -6.1691c -1.0724,-1.9067 -2.7173,-3.5979 -3.9261 -5.0511Z"/></g><g stroke-linejoin="miter" stroke-opacity="1.0" fill-opacity="1.0" stroke="rgb(0,0,0)" stroke-width="0.0" fill="rgb(255,0,0)" stroke-linecap="butt" stroke-miterlimit="10.0"><path d="M 239.1760,227.3701 c 0.0000,-0.4892 -0.3966,-0.8858 -0.8858 -0.8858c -0.4892,-0.0000 -0.8858,0.3966 -0.8858 0.8858c -0.0000,0.4892 0.3966,0.8858 0.8858 0.8858c 0.4892,0.0000 0.8858,-0.3966 0.8858 -0.8858Z"/></g><g stroke-linejoin="miter" stroke-opacity="1.0" fill-opacity="0.0" stroke="rgb(0,0,0)" stroke-width="1.5317903003143252" fill="rgb(0,0,0)" stroke-linecap="butt" stroke-miterlimit="10.0"><path d="M 220.2406,214.9757 l 0.0000,-12.3944 l -10.7338,-6.1972 l -10.7338,6.1972 l -0.0000,12.3944 l 10.7338,6.1972 Z"/></g><g stroke-linejoin="miter" stroke-opacity="1.0" fill-opacity="0.0" stroke="rgb(0,0,0)" stroke-width="1.5317903003143252" fill="rgb(0,0,0)" stroke-linecap="butt" stroke-miterlimit="10.0"><path d="M 209.5068,233.5672 l 0.0000,-12.3944 l -10.7338,-6.1972 l -10.7338,6.1972 l -0.0000,12.3944 l 10.7338,6.1972 Z"/></g><g stroke-linejoin="miter" stroke-opacity="1.0" fill-opacity="0.0" stroke="rgb(255,0,0)" stroke-width="1.5317903003143252" fill="rgb(0,0,0)" stroke-linecap="butt" stroke-miterlimit="10.0"><path d="M 220.2406,227.3701 c 1.2087,-1.4532 2.8536,-3.1444 3.9261 -5.0511c 1.0724,-1.9067 1.5724,-4.0291 1.6942 -6.1691c 0.1218,-2.1400 -0.1346,-4.2975 -0.7955 -6.3478c -0.6609,-2.0503 -1.7264,-3.9933 -3.1642 -5.5602c -1.4378,-1.5668 -3.2478,-2.7574 -5.0511 -3.9261c -1.8034,-1.1686 -3.6001,-2.3152 -5.5500 -3.1889c -1.9499,-0.8736 -4.0529,-1.4743 -6.1897 -1.6173c -2.1368,-0.1430 -4.3074,0.1718 -6.3374 0.8745c -2.0300,0.7027 -3.9195,1.7934 -5.5204 3.2332c -1.6009,1.4398 -2.9133,3.2287 -3.8629 5.0996c -0.9496,1.8709 -1.5364,3.8237 -2.0677 5.5157c -0.5313,1.6920 -1.0070,3.1230 -0.9435 4.7431c 0.0635,1.6201 0.6663,3.4292 0.9435 4.7431c 0.2771,1.3140 0.2287,2.1328 0.0980 2.9487c -0.1307,0.8159 -0.3436,1.6289 -0.1581 2.4128c 0.1855,0.7840 0.7693,1.5389 0.7772 2.2897c 0.0079,0.7508 -0.5600,1.4975 -0.7772 2.2897c -0.2172,0.7922 -0.0837,1.6299 0.1581 2.4128c 0.2418,0.7830 0.5919,1.5112 1.0695 2.1687c 0.4776,0.6575 1.0826,1.2441 1.8180 1.5943c 0.7353,0.3502 1.6009,0.4639 2.2897 0.7772c 0.6888,0.3134 1.2009,0.8265 1.7937 1.3365c 0.5929,0.5100 1.2666,1.0170 2.0105 1.3434c 0.7440,0.3263 1.5582,0.4720 2.3716 0.4717c 0.8134,-0.0003 1.6259,-0.1465 2.3716 -0.4717c 0.7457,-0.3252 1.4245,-0.8295 2.0105 -1.3434c 0.5860,-0.5139 1.0791,-1.0374 1.7937 -1.3365c 0.7146,-0.2991 1.6508,-0.3738 2.2897 -0.7772c 0.6389,-0.4034 0.9806,-1.1356 1.8180 -1.5943c 0.8374,-0.4587 2.1706,-0.6440 3.6583 -1.0963c 1.4877,-0.4523 3.1299,-1.1716 4.3373 -2.1389c 1.2074,-0.9673 1.9799,-2.1827 3.1886 -3.6359Z"/></g><g stroke-linejoin="miter" stroke-opacity="1.0" fill-opacity="1.0" stroke="rgb(0,0,0)" stroke-width="0.0" fill="rgb(255,0,0)" stroke-linecap="butt" stroke-miterlimit="10.0"><path d="M 199.6587,227.3701 c 0.0000,-0.4892 -0.3966,-0.8858 -0.8858 -0.8858c -0.4892,-0.0000 -0.8858,0.3966 -0.8858 0.8858c -0.0000,0.4892 0.3966,0.8858 0.8858 0.8858c 0.4892,0.0000 0.8858,-0.3966 0.8858 -0.8858Z"/></g><g stroke-linejoin="miter" stroke-opacity="1.0" fill-opacity="0.0" stroke="rgb(0,0,0)" stroke-width="1.5317903003143252" fill="rgb(0,0,0)" stroke-linecap="butt" stroke-miterlimit="10.0"><path d="M 180.7233,214.9757 l 0.0000,-12.3944 l -10.7338,-6.1972 l -10.7338,6.1972 l -0.0000,12.3944 l 10.7338,6.1972 Z"/></g><g stroke-linejoin="miter" stroke-opacity="1.0" fill-opacity="0.0" stroke="rgb(0,0,0)" stroke-width="1.5317903003143252" fill="rgb(0,0,0)" stroke-linecap="butt" stroke-miterlimit="10.0"><path d="M 169.9895,233.5672 l 0.0000,-12.3944 l -10.7338,-6.1972 l -10.7338,6.1972 l -0.0000,12.3944 l 10.7338,6.1972 Z"/></g><g stroke-linejoin="miter" stroke-opacity="1.0" fill-opacity="0.0" stroke="rgb(255,0,0)" stroke-width="1.5317903003143252" fill="rgb(0,0,0)" stroke-linecap="butt" stroke-miterlimit="10.0"><path d="M 180.7233,227.3701 c 1.2087,-1.4532 2.8536,-3.1444 3.9261 -5.0511c 1.0724,-1.9067 1.5724,-4.0291 1.6942 -6.1691c 0.1218,-2.1400 -0.1346,-4.2975 -0.7955 -6.3478c -0.6609,-2.0503 -1.7264,-3.9933 -3.1642 -5.5602c -1.4378,-1.5668 -3.2478,-2.7574 -5.0511 -3.9261c -1.8034,-1.1686 -3.6001,-2.3152 -5.5500 -3.1889c -1.9499,-0.8736 -4.0529,-1.4743 -6.1897 -1.6173c -2.1368,-0.1430 -4.3074,0.1718 -6.3374 0.8745c -2.0300,0.7027 -3.9195,1.7934 -5.5204 3.2332c -1.6009,1.4398 -2.9133,3.2287 -3.8629 5.0996c -0.9496,1.8709 -1.5364,3.8237 -2.0677 5.5157c -0.5313,1.6920 -1.0070,3.1230 -0.9435 4.7431c 0.0635,1.6201 0.6663,3.4292 0.9435 4.7431c 0.2771,1.3140 0.2287,2.1328 0.0980 2.9487c -0.1307,0.8159 -0.3436,1.6289 -0.1581 2.4128c 0.1855,0.7840 0.7693,1.5389 0.7772 2.2897c 0.0079,0.7508 -0.5600,1.4975 -0.7772 2.2897c -0.2172,0.7922 -0.0837,1.6299 0.1581 2.4128c 0.2418,0.7830 0.5919,1.5112 1.0695 2.1687c 0.4776,0.6575 1.0826,1.2441 1.8180 1.5943c 0.7353,0.3502 1.6009,0.4639 2.2897 0.7772c 0.6888,0.3134 1.2009,0.8265 1.7937 1.3365c 0.5929,0.5100 1.2666,1.0170 2.0105 1.3434c 0.7440,0.3263 1.5582,0.4720 2.3716 0.4717c 0.8134,-0.0003 1.6259,-0.1465 2.3716 -0.4717c 0.7457,-0.3252 1.4245,-0.8295 2.0105 -1.3434c 0.5860,-0.5139 1.0791,-1.0374 1.7937 -1.3365c 0.7146,-0.2991 1.6508,-0.3738 2.2897 -0.7772c 0.6389,-0.4034 0.9806,-1.1356 1.8180 -1.5943c 0.8374,-0.4587 2.1706,-0.6440 3.6583 -1.0963c 1.4877,-0.4523 3.1299,-1.1716 4.3373 -2.1389c 1.2074,-0.9673 1.9799,-2.1827 3.1886 -3.6359Z"/></g><g stroke-linejoin="miter" stroke-opacity="1.0" fill-opacity="1.0" stroke="rgb(0,0,0)" stroke-width="0.0" fill="rgb(255,0,0)" stroke-linecap="butt" stroke-miterlimit="10.0"><path d="M 160.1414,227.3701 c 0.0000,-0.4892 -0.3966,-0.8858 -0.8858 -0.8858c -0.4892,-0.0000 -0.8858,0.3966 -0.8858 0.8858c -0.0000,0.4892 0.3966,0.8858 0.8858 0.8858c 0.4892,0.0000 0.8858,-0.3966 0.8858 -0.8858Z"/></g><g stroke-linejoin="miter" stroke-opacity="1.0" fill-opacity="0.0" stroke="rgb(0,0,0)" stroke-width="1.5317903003143252" fill="rgb(0,0,0)" stroke-linecap="butt" stroke-miterlimit="10.0"><path d="M 141.2060,252.1588 l 0.0000,-12.3944 l -10.7338,-6.1972 l -10.7338,6.1972 l -0.0000,12.3944 l 10.7338,6.1972 Z"/></g><g stroke-linejoin="miter" stroke-opacity="1.0" fill-opacity="0.0" stroke="rgb(0,0,0)" stroke-width="1.5317903003143252" fill="rgb(0,0,0)" stroke-linecap="butt" stroke-miterlimit="10.0"><path d="M 130.4722,233.5672 l 0.0000,-12.3944 l -10.7338,-6.1972 l -10.7338,6.1972 l -0.0000,12.3944 l 10.7338,6.1972 Z"/></g><g stroke-linejoin="miter" stroke-opacity="1.0" fill-opacity="0.0" stroke="rgb(255,0,0)" stroke-width="1.5317903003143252" fill="rgb(0,0,0)" stroke-linecap="butt" stroke-miterlimit="10.0"><path d="M 141.2060,227.3701 c -1.2087,-1.4532 -1.9812,-2.6686 -3.1886 -3.6359c -1.2074,-0.9673 -2.8496,-1.6866 -4.3373 -2.1389c -1.4877,-0.4523 -2.8209,-0.6376 -3.6583 -1.0963c -0.8374,-0.4587 -1.1791,-1.1909 -1.8180 -1.5943c -0.6389,-0.4034 -1.5751,-0.4781 -2.2897 -0.7772c -0.7146,-0.2991 -1.2078,-0.8226 -1.7937 -1.3365c -0.5860,-0.5139 -1.2648,-1.0181 -2.0105 -1.3434c -0.7457,-0.3252 -1.5582,-0.4715 -2.3716 -0.4717c -0.8134,-0.0003 -1.6276,0.1454 -2.3716 0.4717c -0.7440,0.3263 -1.4176,0.8333 -2.0105 1.3434c -0.5929,0.5100 -1.1049,1.0231 -1.7937 1.3365c -0.6888,0.3134 -1.5544,0.4271 -2.2897 0.7772c -0.7353,0.3502 -1.3404,0.9369 -1.8180 1.5943c -0.4776,0.6575 -0.8277,1.3857 -1.0695 2.1687c -0.2418,0.7830 -0.3754,1.6207 -0.1581 2.4128c 0.2172,0.7922 0.7852,1.5389 0.7772 2.2897c -0.0079,0.7508 -0.5918,1.5057 -0.7772 2.2897c -0.1855,0.7840 0.0274,1.5969 0.1581 2.4128c 0.1307,0.8159 0.1792,1.6347 -0.0980 2.9487c -0.2771,1.3140 -0.8799,3.1230 -0.9435 4.7431c -0.0635,1.6201 0.4122,3.0512 0.9435 4.7431c 0.5313,1.6920 1.1181,3.6448 2.0677 5.5157c 0.9496,1.8709 2.2620,3.6598 3.8629 5.0996c 1.6009,1.4398 3.4903,2.5305 5.5204 3.2332c 2.0300,0.7027 4.2006,1.0175 6.3374 0.8745c 2.1368,-0.1430 4.2398,-0.7437 6.1897 -1.6173c 1.9499,-0.8736 3.7466,-2.0203 5.5500 -3.1889c 1.8034,-1.1686 3.6134,-2.3592 5.0511 -3.9261c 1.4378,-1.5668 2.5032,-3.5099 3.1642 -5.5602c 0.6609,-2.0503 0.9173,-4.2079 0.7955 -6.3478c -0.1218,-2.1400 -0.6218,-4.2623 -1.6942 -6.1691c -1.0724,-1.9067 -2.7173,-3.5979 -3.9261 -5.0511Z"/></g><g stroke-linejoin="miter" stroke-opacity="1.0" fill-opacity="1.0" stroke="rgb(0,0,0)" stroke-width="0.0" fill="rgb(255,0,0)" stroke-linecap="butt" stroke-miterlimit="10.0"><path d="M 120.6241,227.3701 c 0.0000,-0.4892 -0.3966,-0.8858 -0.8858 -0.8858c -0.4892,-0.0000 -0.8858,0.3966 -0.8858 0.8858c -0.0000,0.4892 0.3966,0.8858 0.8858 0.8858c 0.4892,0.0000 0.8858,-0.3966 0.8858 -0.8858Z"/></g><g stroke-linejoin="miter" stroke-opacity="1.0" fill-opacity="1.0" stroke="rgb(0,0,0)" stroke-width="1.5317903003143252" fill="rgb(255,255,255)" stroke-linecap="butt" stroke-miterlimit="10.0"><path d="M 21.4677,233.5672 l 0.0000,-12.3944 l -10.7338,-6.1972 l -10.7338,6.1972 l -0.0000,12.3944 l 10.7338,6.1972 Z"/></g><g stroke-linejoin="miter" stroke-opacity="1.0" fill-opacity="1.0" stroke="rgb(0,0,0)" stroke-width="1.5317903003143252" fill="rgb(255,255,255)" stroke-linecap="butt" stroke-miterlimit="10.0"><path d="M 32.2015,252.1588 l 0.0000,-12.3944 l -10.7338,-6.1972 l -10.7338,6.1972 l -0.0000,12.3944 l 10.7338,6.1972 Z"/></g><g stroke-linejoin="miter" stroke-opacity="1.0" fill-opacity="1.0" stroke="rgb(0,0,0)" stroke-width="1.5317903003143252" fill="rgb(47,79,79)" stroke-linecap="butt" stroke-miterlimit="10.0"><path d="M 42.9353,270.7503 l 0.0000,-12.3944 l -10.7338,-6.1972 l -10.7338,6.1972 l -0.0000,12.3944 l 10.7338,6.1972 Z"/></g><g stroke-linejoin="miter" stroke-opacity="1.0" fill-opacity="1.0" stroke="rgb(0,0,0)" stroke-width="1.5317903003143252" fill="rgb(255,255,255)" stroke-linecap="butt" stroke-miterlimit="10.0"><path d="M 32.2015,214.9757 l 0.0000,-12.3944 l -10.7338,-6.1972 l -10.7338,6.1972 l -0.0000,12.3944 l 10.7338,6.1972 Z"/></g><g stroke-linejoin="miter" stroke-opacity="1.0" fill-opacity="1.0" stroke="rgb(0,0,0)" stroke-width="1.5317903003143252" fill="rgb(255,255,255)" stroke-linecap="butt" stroke-miterlimit="10.0"><path d="M 42.9353,233.5672 l 0.0000,-12.3944 l -10.7338,-6.1972 l -10.7338,6.1972 l -0.0000,12.3944 l 10.7338,6.1972 Z"/></g><g stroke-linejoin="miter" stroke-opacity="1.0" fill-opacity="1.0" stroke="rgb(0,0,0)" stroke-width="1.5317903003143252" fill="rgb(255,255,255)" stroke-linecap="butt" stroke-miterlimit="10.0"><path d="M 53.6691,252.1588 l 0.0000,-12.3944 l -10.7338,-6.1972 l -10.7338,6.1972 l -0.0000,12.3944 l 10.7338,6.1972 Z"/></g><g stroke-linejoin="miter" stroke-opacity="1.0" fill-opacity="1.0" stroke="rgb(0,0,0)" stroke-width="1.5317903003143252" fill="rgb(47,79,79)" stroke-linecap="butt" stroke-miterlimit="10.0"><path d="M 64.4030,270.7503 l 0.0000,-12.3944 l -10.7338,-6.1972 l -10.7338,6.1972 l -0.0000,12.3944 l 10.7338,6.1972 Z"/></g><g stroke-linejoin="miter" stroke-opacity="1.0" fill-opacity="1.0" stroke="rgb(0,0,0)" stroke-width="1.5317903003143252" fill="rgb(255,255,255)" stroke-linecap="butt" stroke-miterlimit="10.0"><path d="M 42.9353,196.3842 l 0.0000,-12.3944 l -10.7338,-6.1972 l -10.7338,6.1972 l -0.0000,12.3944 l 10.7338,6.1972 Z"/></g><g stroke-linejoin="miter" stroke-opacity="1.0" fill-opacity="1.0" stroke="rgb(0,0,0)" stroke-width="1.5317903003143252" fill="rgb(255,255,255)" stroke-linecap="butt" stroke-miterlimit="10.0"><path d="M 53.6691,214.9757 l 0.0000,-12.3944 l -10.7338,-6.1972 l -10.7338,6.1972 l -0.0000,12.3944 l 10.7338,6.1972 Z"/></g><g stroke-linejoin="miter" stroke-opacity="1.0" fill-opacity="1.0" stroke="rgb(0,0,0)" stroke-width="1.5317903003143252" fill="rgb(47,79,79)" stroke-linecap="butt" stroke-miterlimit="10.0"><path d="M 64.4030,233.5672 l 0.0000,-12.3944 l -10.7338,-6.1972 l -10.7338,6.1972 l -0.0000,12.3944 l 10.7338,6.1972 Z"/></g><g stroke-linejoin="miter" stroke-opacity="1.0" fill-opacity="1.0" stroke="rgb(0,0,0)" stroke-width="1.5317903003143252" fill="rgb(211,211,211)" stroke-linecap="butt" stroke-miterlimit="10.0"><path d="M 75.1368,252.1588 l 0.0000,-12.3944 l -10.7338,-6.1972 l -10.7338,6.1972 l -0.0000,12.3944 l 10.7338,6.1972 Z"/></g><g stroke-linejoin="miter" stroke-opacity="1.0" fill-opacity="1.0" stroke="rgb(0,0,0)" stroke-width="1.5317903003143252" fill="rgb(211,211,211)" stroke-linecap="butt" stroke-miterlimit="10.0"><path d="M 85.8706,270.7503 l 0.0000,-12.3944 l -10.7338,-6.1972 l -10.7338,6.1972 l -0.0000,12.3944 l 10.7338,6.1972 Z"/></g><g stroke-linejoin="miter" stroke-opacity="1.0" fill-opacity="1.0" stroke="rgb(0,0,0)" stroke-width="1.5317903003143252" fill="rgb(255,255,255)" stroke-linecap="butt" stroke-miterlimit="10.0"><path d="M 64.4030,196.3842 l 0.0000,-12.3944 l -10.7338,-6.1972 l -10.7338,6.1972 l -0.0000,12.3944 l 10.7338,6.1972 Z"/></g><g stroke-linejoin="miter" stroke-opacity="1.0" fill-opacity="1.0" stroke="rgb(0,0,0)" stroke-width="1.5317903003143252" fill="rgb(255,255,255)" stroke-linecap="butt" stroke-miterlimit="10.0"><path d="M 75.1368,214.9757 l 0.0000,-12.3944 l -10.7338,-6.1972 l -10.7338,6.1972 l -0.0000,12.3944 l 10.7338,6.1972 Z"/></g><g stroke-linejoin="miter" stroke-opacity="1.0" fill-opacity="1.0" stroke="rgb(0,0,0)" stroke-width="1.5317903003143252" fill="rgb(47,79,79)" stroke-linecap="butt" stroke-miterlimit="10.0"><path d="M 85.8706,233.5672 l 0.0000,-12.3944 l -10.7338,-6.1972 l -10.7338,6.1972 l -0.0000,12.3944 l 10.7338,6.1972 Z"/></g><g stroke-linejoin="miter" stroke-opacity="1.0" fill-opacity="1.0" stroke="rgb(0,0,0)" stroke-width="1.5317903003143252" fill="rgb(255,255,255)" stroke-linecap="butt" stroke-miterlimit="10.0"><path d="M 96.6045,252.1588 l 0.0000,-12.3944 l -10.7338,-6.1972 l -10.7338,6.1972 l -0.0000,12.3944 l 10.7338,6.1972 Z"/></g><g stroke-linejoin="miter" stroke-opacity="1.0" fill-opacity="1.0" stroke="rgb(0,0,0)" stroke-width="1.5317903003143252" fill="rgb(255,255,255)" stroke-linecap="butt" stroke-miterlimit="10.0"><path d="M 85.8706,196.3842 l 0.0000,-12.3944 l -10.7338,-6.1972 l -10.7338,6.1972 l -0.0000,12.3944 l 10.7338,6.1972 Z"/></g><g stroke-linejoin="miter" stroke-opacity="1.0" fill-opacity="1.0" stroke="rgb(0,0,0)" stroke-width="1.5317903003143252" fill="rgb(255,255,255)" stroke-linecap="butt" stroke-miterlimit="10.0"><path d="M 96.6045,214.9757 l 0.0000,-12.3944 l -10.7338,-6.1972 l -10.7338,6.1972 l -0.0000,12.3944 l 10.7338,6.1972 Z"/></g><g stroke-linejoin="miter" stroke-opacity="1.0" fill-opacity="1.0" stroke="rgb(0,0,0)" stroke-width="1.5317903003143252" fill="rgb(255,255,255)" stroke-linecap="butt" stroke-miterlimit="10.0"><path d="M 107.3383,233.5672 l 0.0000,-12.3944 l -10.7338,-6.1972 l -10.7338,6.1972 l -0.0000,12.3944 l 10.7338,6.1972 Z"/></g></svg>