<?xml version="1.0" encoding="UTF-8"?>
<!DOCTYPE svg PUBLIC "-//W3C//DTD SVG 1.1//EN"
    "http://www.w3.org/Graphics/SVG/1.1/DTD/svg11.dtd"><svg xmlns="http://www.w3.org/2000/svg" height="300.0000" stroke-opacity="1" viewBox="0 0 300 300" font-size="1" width="300.0000" xmlns:xlink="http://www.w3.org/1999/xlink" stroke="rgb(0,0,0)" version="1.1"><defs></defs><g stroke-linejoin="miter" stroke-opacity="1.0" fill-opacity="0.0" stroke="rgb(0,0,0)" stroke-width="0.9233867354830444" fill="rgb(0,0,0)" stroke-linecap="butt" stroke-miterlimit="10.0"><path d="M 199.4094,249.7835 l 0.0000,-7.3948 l -6.4041,-3.6974 l -6.4041,3.6974 l -0.0000,7.3948 l 6.4041,3.6974 Z"/></g><g stroke-linejoin="miter" stroke-opacity="1.0" fill-opacity="0.0" stroke="rgb(0,0,0)" stroke-width="0.9233867354830444" fill="rgb(0,0,0)" stroke-linecap="butt" stroke-miterlimit="10.0"><path d="M 212.2176,294.1522 l 0.0000,-7.3948 l -6.4041,-3.6974 l -6.4041,3.6974 l -0.0000,7.3948 l 6.4041,3.6974 Z"/></g><g stroke-linejoin="miter" stroke-opacity="1.0" fill-opacity="0.0" stroke="rgb(0,0,0)" stroke-width="0.9233867354830444" fill="rgb(0,0,0)" stroke-linecap="butt" stroke-miterlimit="10.0"><path d="M 212.2176,271.9678 l 0.0000,-7.3948 l -6.4041,-3.6974 l -6.4041,3.6974 l -0.0000,7.3948 l 6.4041,3.6974 Z"/></g><g stroke-linejoin="miter" stroke-opacity="1.0" fill-opacity="0.0" stroke="rgb(0,0,0)" stroke-width="0.9233867354830444" fill="rgb(0,0,0)" stroke-linecap="butt" stroke-miterlimit="10.0"><path d="M 205.8135,283.0600 l 0.0000,-7.3948 l -6.4041,-3.6974 l -6.4041,3.6974 l -0.0000,7.3948 l 6.4041,3.6974 Z"/></g><g stroke-linejoin="miter" stroke-opacity="1.0" fill-opacity="0.0" stroke="rgb(0,0,0)" stroke-width="0.9233867354830444" fill="rgb(0,0,0)" stroke-linecap="butt" stroke-miterlimit="10.0"><path d="M 199.4094,271.9678 l 0.0000,-7.3948 l -6.4041,-3.6974 l -6.4041,3.6974 l -0.0000,7.3948 l 6.4041,3.6974 Z"/></g><g stroke-linejoin="miter" stroke-opacity="1.0" fill-opacity="0.0" stroke="rgb(0,0,0)" stroke-width="0.9233867354830444" fill="rgb(0,0,0)" stroke-linecap="butt" stroke-miterlimit="10.0"><path d="M 193.0054,260.8757 l 0.0000,-7.3948 l -6.4041,-3.6974 l -6.4041,3.6974 l -0.0000,7.3948 l 6.4041,3.6974 Z"/></g><g stroke-linejoin="miter" stroke-opacity="1.0" fill-opacity="0.0" stroke="rgb(255,0,0)" stroke-width="0.9233867354830444" fill="rgb(0,0,0)" stroke-linecap="butt" stroke-miterlimit="10.0"><path d="M 212.2176,257.1783 c -1.4423,-1.7900 -1.5256,-3.2961 -2.3899 -4.6200c -0.8643,-1.3239 -2.5095,-2.4655 -3.9760 -3.3538c -1.4664,-0.8883 -2.7541,-1.5232 -3.5637 -2.5077c -0.8097,-0.9845 -1.1413,-2.3186 -1.8878 -3.3173c -0.7465,-0.9988 -1.9079,-1.6623 -3.0136 -2.3424c -1.1058,-0.6801 -2.1559,-1.3767 -3.3112 -1.9026c -1.1553,-0.5258 -2.4159,-0.8809 -3.6929 -0.9649c -1.2770,-0.0841 -2.5705,0.1028 -3.7811 0.5217c -1.2106,0.4189 -2.3383,1.0699 -3.2936 1.9290c -0.9553,0.8591 -1.7382,1.9264 -2.3047 3.0425c -0.5665,1.1162 -0.9167,2.2813 -1.2336 3.2908c -0.3170,1.0095 -0.6007,1.8633 -0.5629 2.8299c 0.0378,0.9666 0.3973,2.0460 0.5629 2.8299c 0.1656,0.7839 0.1374,1.2722 0.0584 1.7593c -0.0790,0.4871 -0.2088,0.9730 -0.0944 1.4396c 0.1145,0.4666 0.4732,0.9139 0.4637 1.3661c -0.0095,0.4522 -0.3871,0.9093 -0.4637 1.3661c -0.0766,0.4568 0.1479,0.9132 0.0944 1.4396c -0.0536,0.5264 -0.3853,1.1228 -1.4515 2.6901c -1.0662,1.5672 -2.8669,4.1053 -3.8580 6.5872c -0.9911,2.4819 -1.1725,4.9077 -1.0435 7.5621c 0.1290,2.6544 0.5683,5.5376 1.5605 8.2776c 0.9922,2.7400 2.5372,5.3369 4.5150 7.5247c 1.9778,2.1877 4.3885,3.9663 7.0509 5.2241c 2.6624,1.2578 5.5764,1.9947 8.5133 2.1281c 2.9370,0.1334 5.8969,-0.3367 8.6797 -1.2918c 2.7828,-0.9551 5.3885,-2.3953 7.7934 -4.1129c 2.4049,-1.7176 4.6090,-3.7127 6.3087 -6.0997c 1.6997,-2.3870 2.8951,-5.1660 3.4942 -8.0496c 0.5991,-2.8836 0.6019,-5.8720 0.1478 -8.7741c -0.4541,-2.9021 -1.3650,-5.7179 -3.2211 -8.1627c -1.8561,-2.4448 -4.6574,-4.5187 -6.0997 -6.3087Z"/></g><g stroke-linejoin="miter" stroke-opacity="1.0" fill-opacity="0.0" stroke="rgb(0,0,0)" stroke-width="0.9233867354830444" fill="rgb(0,0,0)" stroke-linecap="butt" stroke-miterlimit="10.0"><path d="M 237.8338,218.9311 l 0.0000,-7.3948 l -6.4041,-3.6974 l -6.4041,3.6974 l -0.0000,7.3948 l 6.4041,3.6974 Z"/></g><g stroke-linejoin="miter" stroke-opacity="1.0" fill-opacity="0.0" stroke="rgb(0,0,0)" stroke-width="0.9233867354830444" fill="rgb(0,0,0)" stroke-linecap="butt" stroke-miterlimit="10.0"><path d="M 225.0257,218.9311 l 0.0000,-7.3948 l -6.4041,-3.6974 l -6.4041,3.6974 l -0.0000,7.3948 l 6.4041,3.6974 Z"/></g><g stroke-linejoin="miter" stroke-opacity="1.0" fill-opacity="0.0" stroke="rgb(0,0,0)" stroke-width="0.9233867354830444" fill="rgb(0,0,0)" stroke-linecap="butt" stroke-miterlimit="10.0"><path d="M 218.6216,207.8390 l 0.0000,-7.3948 l -6.4041,-3.6974 l -6.4041,3.6974 l -0.0000,7.3948 l 6.4041,3.6974 Z"/></g><g stroke-linejoin="miter" stroke-opacity="1.0" fill-opacity="0.0" stroke="rgb(0,0,0)" stroke-width="0.9233867354830444" fill="rgb(0,0,0)" stroke-linecap="butt" stroke-miterlimit="10.0"><path d="M 212.2176,218.9311 l 0.0000,-7.3948 l -6.4041,-3.6974 l -6.4041,3.6974 l -0.0000,7.3948 l 6.4041,3.6974 Z"/></g><g stroke-linejoin="miter" stroke-opacity="1.0" fill-opacity="0.0" stroke="rgb(0,0,0)" stroke-width="0.9233867354830444" fill="rgb(0,0,0)" stroke-linecap="butt" stroke-miterlimit="10.0"><path d="M 199.4094,218.9311 l 0.0000,-7.3948 l -6.4041,-3.6974 l -6.4041,3.6974 l -0.0000,7.3948 l 6.4041,3.6974 Z"/></g><g stroke-linejoin="miter" stroke-opacity="1.0" fill-opacity="0.0" stroke="rgb(0,0,0)" stroke-width="0.9233867354830444" fill="rgb(0,0,0)" stroke-linecap="butt" stroke-miterlimit="10.0"><path d="M 193.0054,207.8390 l 0.0000,-7.3948 l -6.4041,-3.6974 l -6.4041,3.6974 l -0.0000,7.3948 l 6.4041,3.6974 Z"/></g><g stroke-linejoin="miter" stroke-opacity="1.0" fill-opacity="0.0" stroke="rgb(255,0,0)" stroke-width="0.9233867354830444" fill="rgb(0,0,0)" stroke-linecap="butt" stroke-miterlimit="10.0"><path d="M 237.8338,204.1416 c -0.7262,-3.3797 -1.7010,-6.6141 -3.3649 -9.5215c -1.6639,-2.9074 -4.0168,-5.4877 -6.7524 -7.5090c -2.7356,-2.0213 -5.8538,-3.4836 -9.1120 -4.3534c -3.2582,-0.8698 -6.6565,-1.1472 -10.0844 -0.5350c -3.4278,0.6122 -6.8852,2.1141 -9.5215 3.3649c -2.6362,1.2507 -4.4513,2.2504 -6.0315 3.1855c -1.5802,0.9351 -2.9256,1.8057 -3.9760 3.3538c -1.0503,1.5481 -1.8056,3.7736 -2.3899 4.6200c -0.5843,0.8464 -0.9976,0.3136 -1.4149 0.2814c -0.4173,-0.0321 -0.8387,0.4364 -1.1995 0.8015c -0.3608,0.3651 -0.6611,0.6267 -1.0702 0.7974c -0.4091,0.1707 -0.9269,0.2504 -1.3661 0.4637c -0.4392,0.2133 -0.7998,0.5601 -1.0846 0.9512c -0.2848,0.3911 -0.4938,0.8264 -0.6381 1.2939c -0.1443,0.4675 -0.2240,0.9670 -0.0944 1.4396c 0.1296,0.4725 0.4685,0.9181 0.4637 1.3661c -0.0047,0.4480 -0.3531,0.8985 -0.4637 1.3661c -0.1107,0.4676 0.0163,0.9523 0.0944 1.4396c 0.0780,0.4873 0.1071,0.9771 -0.0584 1.7593c -0.1656,0.7822 -0.5257,1.8568 -0.5629 2.8299c -0.0372,0.9731 0.2487,1.8446 0.5629 2.8299c 0.3142,0.9853 0.6567,2.0843 1.2336 3.2908c 0.5769,1.2065 1.3882,2.5204 2.3047 3.0425c 0.9165,0.5221 1.9380,0.2525 3.2936 1.9290c 1.3555,1.6765 3.0451,5.2992 5.2435 7.8739c 2.1985,2.5747 4.9058,4.1014 7.8576 5.2680c 2.9517,1.1665 6.1478,1.9729 9.5441 2.2621c 3.3963,0.2892 6.9928,0.0613 10.3658 -0.8799c 3.3730,-0.9413 6.5227,-2.5960 9.2400 -4.7798c 2.7174,-2.1838 5.0025,-4.8968 6.7075 -7.9519c 1.7051,-3.0551 2.8301,-6.4524 3.1539 -9.9135c 0.3238,-3.4611 -0.1538,-6.9861 -0.8799 -10.3658Z"/></g><g stroke-linejoin="miter" stroke-opacity="1.0" fill-opacity="0.0" stroke="rgb(0,0,0)" stroke-width="0.9233867354830444" fill="rgb(0,0,0)" stroke-linecap="butt" stroke-miterlimit="10.0"><path d="M 205.8135,173.9637 l 0.0000,-7.3948 l -6.4041,-3.6974 l -6.4041,3.6974 l -0.0000,7.3948 l 6.4041,3.6974 Z"/></g><g stroke-linejoin="miter" stroke-opacity="1.0" fill-opacity="0.0" stroke="rgb(0,0,0)" stroke-width="0.9233867354830444" fill="rgb(0,0,0)" stroke-linecap="butt" stroke-miterlimit="10.0"><path d="M 212.2176,162.8715 l 0.0000,-7.3948 l -6.4041,-3.6974 l -6.4041,3.6974 l -0.0000,7.3948 l 6.4041,3.6974 Z"/></g><g stroke-linejoin="miter" stroke-opacity="1.0" fill-opacity="0.0" stroke="rgb(0,0,0)" stroke-width="0.9233867354830444" fill="rgb(0,0,0)" stroke-linecap="butt" stroke-miterlimit="10.0"><path d="M 225.0257,140.6872 l 0.0000,-7.3948 l -6.4041,-3.6974 l -6.4041,3.6974 l -0.0000,7.3948 l 6.4041,3.6974 Z"/></g><g stroke-linejoin="miter" stroke-opacity="1.0" fill-opacity="0.0" stroke="rgb(0,0,0)" stroke-width="0.9233867354830444" fill="rgb(0,0,0)" stroke-linecap="butt" stroke-miterlimit="10.0"><path d="M 205.8135,151.7794 l 0.0000,-7.3948 l -6.4041,-3.6974 l -6.4041,3.6974 l -0.0000,7.3948 l 6.4041,3.6974 Z"/></g><g stroke-linejoin="miter" stroke-opacity="1.0" fill-opacity="0.0" stroke="rgb(0,0,0)" stroke-width="0.9233867354830444" fill="rgb(0,0,0)" stroke-linecap="butt" stroke-miterlimit="10.0"><path d="M 193.0054,173.9637 l 0.0000,-7.3948 l -6.4041,-3.6974 l -6.4041,3.6974 l -0.0000,7.3948 l 6.4041,3.6974 Z"/></g><g stroke-linejoin="miter" stroke-opacity="1.0" fill-opacity="0.0" stroke="rgb(0,0,0)" stroke-width="0.9233867354830444" fill="rgb(0,0,0)" stroke-linecap="butt" stroke-miterlimit="10.0"><path d="M 218.6216,151.7794 l 0.0000,-7.3948 l -6.4041,-3.6974 l -6.4041,3.6974 l -0.0000,7.3948 l 6.4041,3.6974 Z"/></g><g stroke-linejoin="miter" stroke-opacity="1.0" fill-opacity="0.0" stroke="rgb(255,0,0)" stroke-width="0.9233867354830444" fill="rgb(0,0,0)" stroke-linecap="butt" stroke-miterlimit="10.0"><path d="M 225.0257,170.2663 c 2.1634,-2.5462 4.2701,-5.5183 5.6122 -8.7594c 1.3421,-3.2412 1.9197,-6.7515 1.8329 -10.2404c -0.0868,-3.4889 -0.8381,-6.9563 -2.2254 -10.1623c -1.3873,-3.2060 -3.4107,-6.1505 -5.9450 -8.5371c -2.5342,-2.3866 -5.5792,-4.2154 -8.7594 -5.6122c -3.1802,-1.3968 -6.4956,-2.3616 -9.8710 -2.7247c -3.3754,-0.3630 -6.8109,-0.1242 -10.0679 0.7859c -3.2571,0.9100 -6.3357,2.4913 -9.0008 4.5789c -2.6651,2.0876 -4.9166,4.6815 -6.5634 7.6748c -1.6468,2.9933 -2.6890,6.3861 -3.1268 9.6023c -0.4378,3.2162 -0.2714,6.2558 -0.2889 8.4594c -0.0176,2.2036 -0.2192,3.5713 0.2403 5.1960c 0.4595,1.6246 1.5800,3.5062 2.2104 4.7085c 0.6305,1.2023 0.7709,1.7253 0.7550 2.2247c -0.0160,0.4994 -0.1884,0.9752 -0.0944 1.4396c 0.0940,0.4643 0.4545,0.9172 0.4637 1.3661c 0.0092,0.4489 -0.3329,0.8937 -0.4637 1.3661c -0.1308,0.4724 -0.0503,0.9722 0.0944 1.4396c 0.1446,0.4674 0.3533,0.9022 0.6381 1.2939c 0.2848,0.3917 0.6457,0.7401 1.0846 0.9512c 0.4390,0.2111 0.9560,0.2848 1.3661 0.4637c 0.4100,0.1789 0.7131,0.4630 1.0702 0.7974c 0.3571,0.3344 0.7684,0.7190 1.1995 0.8015c 0.4311,0.0825 0.8821,-0.1372 1.4149 0.2814c 0.5328,0.4186 1.1474,1.4754 1.9024 2.1693c 0.7550,0.6938 1.6503,1.0247 2.5877 1.2761c 0.9375,0.2514 1.9172,0.4234 3.1478 0.5908c 1.2306,0.1674 2.7122,0.3302 3.8168 0.0238c 1.1046,-0.3064 1.8323,-1.0820 3.5354 -1.4387c 1.7031,-0.3567 4.3817,-0.2945 7.3493 -0.7628c 2.9676,-0.4683 6.2243,-1.4672 8.9628 -3.0269c 2.7385,-1.5597 4.9587,-3.6802 7.1222 -6.2264Z"/></g><g stroke-linejoin="miter" stroke-opacity="1.0" fill-opacity="0.0" stroke="rgb(0,0,0)" stroke-width="0.9233867354830444" fill="rgb(0,0,0)" stroke-linecap="butt" stroke-miterlimit="10.0"><path d="M 193.0054,74.6759 l 0.0000,-7.3948 l -6.4041,-3.6974 l -6.4041,3.6974 l -0.0000,7.3948 l 6.4041,3.6974 Z"/></g><g stroke-linejoin="miter" stroke-opacity="1.0" fill-opacity="0.0" stroke="rgb(0,0,0)" stroke-width="0.9233867354830444" fill="rgb(0,0,0)" stroke-linecap="butt" stroke-miterlimit="10.0"><path d="M 199.4094,85.7681 l 0.0000,-7.3948 l -6.4041,-3.6974 l -6.4041,3.6974 l -0.0000,7.3948 l 6.4041,3.6974 Z"/></g><g stroke-linejoin="miter" stroke-opacity="1.0" fill-opacity="0.0" stroke="rgb(0,0,0)" stroke-width="0.9233867354830444" fill="rgb(0,0,0)" stroke-linecap="butt" stroke-miterlimit="10.0"><path d="M 205.8135,96.8602 l 0.0000,-7.3948 l -6.4041,-3.6974 l -6.4041,3.6974 l -0.0000,7.3948 l 6.4041,3.6974 Z"/></g><g stroke-linejoin="miter" stroke-opacity="1.0" fill-opacity="0.0" stroke="rgb(0,0,0)" stroke-width="0.9233867354830444" fill="rgb(0,0,0)" stroke-linecap="butt" stroke-miterlimit="10.0"><path d="M 212.2176,107.9524 l 0.0000,-7.3948 l -6.4041,-3.6974 l -6.4041,3.6974 l -0.0000,7.3948 l 6.4041,3.6974 Z"/></g><g stroke-linejoin="miter" stroke-opacity="1.0" fill-opacity="0.0" stroke="rgb(0,0,0)" stroke-width="0.9233867354830444" fill="rgb(0,0,0)" stroke-linecap="butt" stroke-miterlimit="10.0"><path d="M 205.8135,119.0446 l 0.0000,-7.3948 l -6.4041,-3.6974 l -6.4041,3.6974 l -0.0000,7.3948 l 6.4041,3.6974 Z"/></g><g stroke-linejoin="miter" stroke-opacity="1.0" fill-opacity="0.0" stroke="rgb(0,0,0)" stroke-width="0.9233867354830444" fill="rgb(0,0,0)" stroke-linecap="butt" stroke-miterlimit="10.0"><path d="M 193.0054,96.8602 l 0.0000,-7.3948 l -6.4041,-3.6974 l -6.4041,3.6974 l -0.0000,7.3948 l 6.4041,3.6974 Z"/></g><g stroke-linejoin="miter" stroke-opacity="1.0" fill-opacity="0.0" stroke="rgb(255,0,0)" stroke-width="0.9233867354830444" fill="rgb(0,0,0)" stroke-linecap="butt" stroke-miterlimit="10.0"><path d="M 212.2176,93.1628 c -0.7164,-1.7095 -1.3147,-3.2795 -2.3899 -4.6200c -1.0752,-1.3405 -2.6273,-2.4516 -3.9760 -3.3538c -1.3487,-0.9022 -2.4941,-1.5954 -2.8672 -2.9731c -0.3731,-1.3777 0.0259,-3.4400 -0.2403 -5.1960c -0.2662,-1.7560 -1.1977,-3.2058 -2.2104 -4.7085c -1.0127,-1.5027 -2.1068,-3.0582 -3.4747 -4.3959c -1.3679,-1.3377 -3.0097,-2.4576 -4.7981 -3.2060c -1.7884,-0.7484 -3.7232,-1.1253 -5.6597 -1.1258c -1.9365,-0.0005 -3.8745,0.3754 -5.6597 1.1258c -1.7852,0.7503 -3.4176,1.8751 -4.7981 3.2060c -1.3805,1.3309 -2.5091,2.8678 -3.4747 4.3959c -0.9655,1.5281 -1.7680,3.0474 -2.2104 4.7085c -0.4425,1.6611 -0.5250,3.4641 -0.2403 5.1960c 0.2847,1.7319 0.9366,3.3927 1.7664 4.8924c 0.8298,1.4998 1.8376,2.8386 3.5042 3.8440c 1.6666,1.0055 3.9921,1.6777 4.7085 2.2104c 0.7164,0.5327 -0.1762,0.9260 -0.4637 1.3661c -0.2875,0.4401 0.0302,0.9270 0.0944 1.4396c 0.0641,0.5125 -0.1253,1.0507 -0.7550 2.2247c -0.6297,1.1740 -1.6997,2.9838 -2.2104 4.7085c -0.5108,1.7247 -0.4623,3.3642 -0.2403 5.1960c 0.2220,1.8318 0.6174,3.8560 1.3970 5.7842c 0.7796,1.9281 1.9433,3.7602 3.4099 5.2836c 1.4665,1.5234 3.2358,2.7382 5.1722 3.5765c 1.9365,0.8383 4.0401,1.3003 6.1472 1.3249c 2.1071,0.0247 4.2175,-0.3879 6.1863 -1.1283c 1.9688,-0.7404 3.7960,-1.8088 5.5523 -3.0077c 1.7563,-1.1990 3.4417,-2.5286 4.6612 -4.2210c 1.2194,-1.6925 1.9729,-3.7479 2.6910 -5.6835c 0.7182,-1.9356 1.4010,-3.7515 1.8558 -5.6409c 0.4547,-1.8894 0.6814,-3.8523 0.3774 -5.7582c -0.3040,-1.9059 -1.1385,-3.7549 -1.8549 -5.4644Z"/></g><g stroke-linejoin="miter" stroke-opacity="1.0" fill-opacity="0.0" stroke="rgb(0,0,0)" stroke-width="0.9233867354830444" fill="rgb(0,0,0)" stroke-linecap="butt" stroke-miterlimit="10.0"><path d="M 231.4298,33.2765 l 0.0000,-7.3948 l -6.4041,-3.6974 l -6.4041,3.6974 l -0.0000,7.3948 l 6.4041,3.6974 Z"/></g><g stroke-linejoin="miter" stroke-opacity="1.0" fill-opacity="0.0" stroke="rgb(0,0,0)" stroke-width="0.9233867354830444" fill="rgb(0,0,0)" stroke-linecap="butt" stroke-miterlimit="10.0"><path d="M 237.8338,44.3687 l 0.0000,-7.3948 l -6.4041,-3.6974 l -6.4041,3.6974 l -0.0000,7.3948 l 6.4041,3.6974 Z"/></g><g stroke-linejoin="miter" stroke-opacity="1.0" fill-opacity="0.0" stroke="rgb(0,0,0)" stroke-width="0.9233867354830444" fill="rgb(0,0,0)" stroke-linecap="butt" stroke-miterlimit="10.0"><path d="M 218.6216,33.2765 l 0.0000,-7.3948 l -6.4041,-3.6974 l -6.4041,3.6974 l -0.0000,7.3948 l 6.4041,3.6974 Z"/></g><g stroke-linejoin="miter" stroke-opacity="1.0" fill-opacity="0.0" stroke="rgb(0,0,0)" stroke-width="0.9233867354830444" fill="rgb(0,0,0)" stroke-linecap="butt" stroke-miterlimit="10.0"><path d="M 205.8135,33.2765 l 0.0000,-7.3948 l -6.4041,-3.6974 l -6.4041,3.6974 l -0.0000,7.3948 l 6.4041,3.6974 Z"/></g><g stroke-linejoin="miter" stroke-opacity="1.0" fill-opacity="0.0" stroke="rgb(0,0,0)" stroke-width="0.9233867354830444" fill="rgb(0,0,0)" stroke-linecap="butt" stroke-miterlimit="10.0"><path d="M 212.2176,44.3687 l 0.0000,-7.3948 l -6.4041,-3.6974 l -6.4041,3.6974 l -0.0000,7.3948 l 6.4041,3.6974 Z"/></g><g stroke-linejoin="miter" stroke-opacity="1.0" fill-opacity="0.0" stroke="rgb(0,0,0)" stroke-width="0.9233867354830444" fill="rgb(0,0,0)" stroke-linecap="butt" stroke-miterlimit="10.0"><path d="M 193.0054,33.2765 l 0.0000,-7.3948 l -6.4041,-3.6974 l -6.4041,3.6974 l -0.0000,7.3948 l 6.4041,3.6974 Z"/></g><g stroke-linejoin="miter" stroke-opacity="1.0" fill-opacity="0.0" stroke="rgb(255,0,0)" stroke-width="0.9233867354830444" fill="rgb(0,0,0)" stroke-linecap="butt" stroke-miterlimit="10.0"><path d="M 237.8338,29.5791 c -0.7211,-3.3816 -1.6822,-6.6213 -3.3649 -9.5215c -1.6826,-2.9001 -4.0867,-5.4607 -6.7524 -7.5090c -2.6657,-2.0484 -5.5929,-3.5846 -8.4155 -4.8188c -2.8225,-1.2342 -5.5404,-2.1665 -8.4368 -2.4136c -2.8965,-0.2472 -5.9716,0.1907 -8.7183 0.9987c -2.7467,0.8080 -5.1651,1.9861 -7.3031 3.3673c -2.1380,1.3812 -3.9957,2.9654 -5.3642 5.4314c -1.3685,2.4660 -2.2477,5.8136 -2.8774 7.0707c -0.6297,1.2571 -1.0098,0.4236 -1.4149 0.2814c -0.4052,-0.1422 -0.8354,0.4069 -1.1995 0.8015c -0.3641,0.3946 -0.6620,0.6346 -1.0702 0.7974c -0.4082,0.1628 -0.9267,0.2483 -1.3661 0.4637c -0.4394,0.2154 -0.7998,0.5607 -1.0846 0.9512c -0.2848,0.3906 -0.4941,0.8264 -0.6381 1.2939c -0.1440,0.4675 -0.2226,0.9665 -0.0944 1.4396c 0.1283,0.4730 0.4634,0.9200 0.4637 1.3661c 0.0003,0.4461 -0.3343,0.8912 -0.4637 1.3661c -0.1294,0.4748 -0.0536,0.9794 0.0944 1.4396c 0.1479,0.4602 0.3679,0.8761 0.6381 1.2939c 0.2701,0.4178 0.5904,0.8376 1.0846 0.9512c 0.4942,0.1136 1.1624,-0.0788 1.3661 0.4637c 0.2037,0.5425 -0.0571,1.8200 -0.0379 3.4726c 0.0191,1.6526 0.3181,3.6802 0.9165 5.1202c 0.5983,1.4400 1.4959,2.2925 2.8061 4.3797c 1.3102,2.0872 3.0329,5.4093 5.2435 7.8739c 2.2106,2.4647 4.9091,4.0719 7.8576 5.2680c 2.9485,1.1960 6.1470,1.9808 9.5441 2.2621c 3.3972,0.2813 6.9930,0.0592 10.3658 -0.8799c 3.3728,-0.9392 6.5227,-2.5954 9.2400 -4.7798c 2.7173,-2.1844 5.0021,-4.8968 6.7075 -7.9519c 1.7054,-3.0551 2.8315,-6.4529 3.1539 -9.9135c 0.3224,-3.4606 -0.1588,-6.9842 -0.8799 -10.3658Z"/></g><g stroke-linejoin="miter" stroke-opacity="1.0" fill-opacity="0.0" stroke="rgb(0,0,0)" stroke-width="0.9233867354830444" fill="rgb(0,0,0)" stroke-linecap="butt" stroke-miterlimit="10.0"><path d="M 157.2440,22.1843 l 0.0000,-7.3948 l -6.4041,-3.6974 l -6.4041,3.6974 l -0.0000,7.3948 l 6.4041,3.6974 Z"/></g><g stroke-linejoin="miter" stroke-opacity="1.0" fill-opacity="0.0" stroke="rgb(0,0,0)" stroke-width="0.9233867354830444" fill="rgb(0,0,0)" stroke-linecap="butt" stroke-miterlimit="10.0"><path d="M 144.4359,44.3687 l 0.0000,-7.3948 l -6.4041,-3.6974 l -6.4041,3.6974 l -0.0000,7.3948 l 6.4041,3.6974 Z"/></g><g stroke-linejoin="miter" stroke-opacity="1.0" fill-opacity="0.0" stroke="rgb(0,0,0)" stroke-width="0.9233867354830444" fill="rgb(0,0,0)" stroke-linecap="butt" stroke-miterlimit="10.0"><path d="M 170.0521,22.1843 l 0.0000,-7.3948 l -6.4041,-3.6974 l -6.4041,3.6974 l -0.0000,7.3948 l 6.4041,3.6974 Z"/></g><g stroke-linejoin="miter" stroke-opacity="1.0" fill-opacity="0.0" stroke="rgb(0,0,0)" stroke-width="0.9233867354830444" fill="rgb(0,0,0)" stroke-linecap="butt" stroke-miterlimit="10.0"><path d="M 157.2440,44.3687 l 0.0000,-7.3948 l -6.4041,-3.6974 l -6.4041,3.6974 l -0.0000,7.3948 l 6.4041,3.6974 Z"/></g><g stroke-linejoin="miter" stroke-opacity="1.0" fill-opacity="0.0" stroke="rgb(0,0,0)" stroke-width="0.9233867354830444" fill="rgb(0,0,0)" stroke-linecap="butt" stroke-miterlimit="10.0"><path d="M 138.0318,55.4608 l 0.0000,-7.3948 l -6.4041,-3.6974 l -6.4041,3.6974 l -0.0000,7.3948 l 6.4041,3.6974 Z"/></g><g stroke-linejoin="miter" stroke-opacity="1.0" fill-opacity="0.0" stroke="rgb(0,0,0)" stroke-width="0.9233867354830444" fill="rgb(0,0,0)" stroke-linecap="butt" stroke-miterlimit="10.0"><path d="M 150.8399,33.2765 l 0.0000,-7.3948 l -6.4041,-3.6974 l -6.4041,3.6974 l -0.0000,7.3948 l 6.4041,3.6974 Z"/></g><g stroke-linejoin="miter" stroke-opacity="1.0" fill-opacity="1.0" stroke="rgb(0,0,0)" stroke-width="0.9233867354830444" fill="rgb(255,255,255)" stroke-linecap="butt" stroke-miterlimit="10.0"><path d="M 73.9911,33.2765 l 0.0000,-7.3948 l -6.4041,-3.6974 l -6.4041,3.6974 l -0.0000,7.3948 l 6.4041,3.6974 Z"/></g><g stroke-linejoin="miter" stroke-opacity="1.0" fill-opacity="1.0" stroke="rgb(0,0,0)" stroke-width="0.9233867354830444" fill="rgb(255,255,255)" stroke-linecap="butt" stroke-miterlimit="10.0"><path d="M 80.3952,44.3687 l 0.0000,-7.3948 l -6.4041,-3.6974 l -6.4041,3.6974 l -0.0000,7.3948 l 6.4041,3.6974 Z"/></g><g stroke-linejoin="miter" stroke-opacity="1.0" fill-opacity="1.0" stroke="rgb(0,0,0)" stroke-width="0.9233867354830444" fill="rgb(211,211,211)" stroke-linecap="butt" stroke-miterlimit="10.0"><path d="M 86.7993,55.4608 l 0.0000,-7.3948 l -6.4041,-3.6974 l -6.4041,3.6974 l -0.0000,7.3948 l 6.4041,3.6974 Z"/></g><g stroke-linejoin="miter" stroke-opacity="1.0" fill-opacity="1.0" stroke="rgb(0,0,0)" stroke-width="0.9233867354830444" fill="rgb(47,79,79)" stroke-linecap="butt" stroke-miterlimit="10.0"><path d="M 80.3952,22.1843 l 0.0000,-7.3948 l -6.4041,-3.6974 l -6.4041,3.6974 l -0.0000,7.3948 l 6.4041,3.6974 Z"/></g><g stroke-linejoin="miter" stroke-opacity="1.0" fill-opacity="1.0" stroke="rgb(0,0,0)" stroke-width="0.9233867354830444" fill="rgb(255,255,255)" stroke-linecap="butt" stroke-miterlimit="10.0"><path d="M 86.7993,33.2765 l 0.0000,-7.3948 l -6.4041,-3.6974 l -6.4041,3.6974 l -0.0000,7.3948 l 6.4041,3.6974 Z"/></g><g stroke-linejoin="miter" stroke-opacity="1.0" fill-opacity="1.0" stroke="rgb(0,0,0)" stroke-width="0.9233867354830444" fill="rgb(211,211,211)" stroke-linecap="butt" stroke-miterlimit="10.0"><path d="M 93.2033,44.3687 l 0.0000,-7.3948 l -6.4041,-3.6974 l -6.4041,3.6974 l -0.0000,7.3948 l 6.4041,3.6974 Z"/></g><g stroke-linejoin="miter" stroke-opacity="1.0" fill-opacity="1.0" stroke="rgb(0,0,0)" stroke-width="0.9233867354830444" fill="rgb(255,255,255)" stroke-linecap="butt" stroke-miterlimit="10.0"><path d="M 99.6074,55.4608 l 0.0000,-7.3948 l -6.4041,-3.6974 l -6.4041,3.6974 l -0.0000,7.3948 l 6.4041,3.6974 Z"/></g><g stroke-linejoin="miter" stroke-opacity="1.0" fill-opacity="1.0" stroke="rgb(0,0,0)" stroke-width="0.9233867354830444" fill="rgb(255,255,255)" stroke-linecap="butt" stroke-miterlimit="10.0"><path d="M 86.7993,11.0922 l 0.0000,-7.3948 l -6.4041,-3.6974 l -6.4041,3.6974 l -0.0000,7.3948 l 6.4041,3.6974 Z"/></g><g stroke-linejoin="miter" stroke-opacity="1.0" fill-opacity="1.0" stroke="rgb(0,0,0)" stroke-width="0.9233867354830444" fill="rgb(47,79,79)" stroke-linecap="butt" stroke-miterlimit="10.0"><path d="M 93.2033,22.1843 l 0.0000,-7.3948 l -6.4041,-3.6974 l -6.4041,3.6974 l -0.0000,7.3948 l 6.4041,3.6974 Z"/></g><g stroke-linejoin="miter" stroke-opacity="1.0" fill-opacity="1.0" stroke="rgb(0,0,0)" stroke-width="0.9233867354830444" fill="rgb(211,211,211)" stroke-linecap="butt" stroke-miterlimit="10.0"><path d="M 99.6074,33.2765 l 0.0000,-7.3948 l -6.4041,-3.6974 l -6.4041,3.6974 l -0.0000,7.3948 l 6.4041,3.6974 Z"/></g><g stroke-linejoin="miter" stroke-opacity="1.0" fill-opacity="1.0" stroke="rgb(0,0,0)" stroke-width="0.9233867354830444" fill="rgb(211,211,211)" stroke-linecap="butt" stroke-miterlimit="10.0"><path d="M 106.0115,44.3687 l 0.0000,-7.3948 l -6.4041,-3.6974 l -6.4041,3.6974 l -0.0000,7.3948 l 6.4041,3.6974 Z"/></g><g stroke-linejoin="miter" stroke-opacity="1.0" fill-opacity="1.0" stroke="rgb(0,0,0)" stroke-width="0.9233867354830444" fill="rgb(255,255,255)" stroke-linecap="butt" stroke-miterlimit="10.0"><path d="M 112.4155,55.4608 l 0.0000,-7.3948 l -6.4041,-3.6974 l -6.4041,3.6974 l -0.0000,7.3948 l 6.4041,3.6974 Z"/></g><g stroke-linejoin="miter" stroke-opacity="1.0" fill-opacity="1.0" stroke="rgb(0,0,0)" stroke-width="0.9233867354830444" fill="rgb(255,255,255)" stroke-linecap="butt" stroke-miterlimit="10.0"><path d="M 99.6074,11.0922 l 0.0000,-7.3948 l -6.4041,-3.6974 l -6.4041,3.6974 l -0.0000,7.3948 l 6.4041,3.6974 Z"/></g><g stroke-linejoin="miter" stroke-opacity="1.0" fill-opacity="1.0" stroke="rgb(0,0,0)" stroke-width="0.9233867354830444" fill="rgb(211,211,211)" stroke-linecap="butt" stroke-miterlimit="10.0"><path d="M 106.0115,22.1843 l 0.0000,-7.3948 l -6.4041,-3.6974 l -6.4041,3.6974 l -0.0000,7.3948 l 6.4041,3.6974 Z"/></g><g stroke-linejoin="miter" stroke-opacity="1.0" fill-opacity="1.0" stroke="rgb(0,0,0)" stroke-width="0.9233867354830444" fill="rgb(255,255,255)" stroke-linecap="butt" stroke-miterlimit="10.0"><path d="M 112.4155,33.2765 l 0.0000,-7.3948 l -6.4041,-3.6974 l -6.4041,3.6974 l -0.0000,7.3948 l 6.4041,3.6974 Z"/></g><g stroke-linejoin="miter" stroke-opacity="1.0" fill-opacity="1.0" stroke="rgb(0,0,0)" stroke-width="0.9233867354830444" fill="rgb(255,255,255)" stroke-linecap="butt" stroke-miterlimit="10.0"><path d="M 118.8196,44.3687 l 0.0000,-7.3948 l -6.4041,-3.6974 l -6.4041,3.6974 l -0.0000,7.3948 l 6.4041,3.6974 Z"/></g><g stroke-linejoin="miter" stroke-opacity="1.0" fill-opacity="1.0" stroke="rgb(0,0,0)" stroke-width="0.9233867354830444" fill="rgb(255,255,255)" stroke-linecap="butt" stroke-miterlimit="10.0"><path d="M 112.4155,11.0922 l 0.0000,-7.3948 l -6.4041,-3.6974 l -6.4041,3.6974 l -0.0000,7.3948 l 6.4041,3.6974 Z"/></g><g stroke-linejoin="miter" stroke-opacity="1.0" fill-opacity="1.0" stroke="rgb(0,0,0)" stroke-width="0.9233867354830444" fill="rgb(211,211,211)" stroke-linecap="butt" stroke-miterlimit="10.0"><path d="M 118.8196,22.1843 l 0.0000,-7.3948 l -6.4041,-3.6974 l -6.4041,3.6974 l -0.0000,7.3948 l 6.4041,3.6974 Z"/></g><g stroke-linejoin="miter" stroke-opacity="1.0" fill-opacity="1.0" stroke="rgb(0,0,0)" stroke-width="0.9233867354830444" fill="rgb(255,255,255)" stroke-linecap="butt" stroke-miterlimit="10.0"><path d="M 125.2237,33.2765 l 0.0000,-7.3948 l -6.4041,-3.6974 l -6.4041,3.6974 l -0.0000,7.3948 l 6.4041,3.6974 Z"/></g></svg>