<?xml version="1.0" encoding="UTF-8"?>
<!DOCTYPE svg PUBLIC "-//W3C//DTD SVG 1.1//EN"
    "http://www.w3.org/Graphics/SVG/1.1/DTD/svg11.dtd"><svg xmlns="http://www.w3.org/2000/svg" height="300.0000" stroke-opacity="1" viewBox="0 0 300 300" font-size="1" width="300.0000" xmlns:xlink="http://www.w3.org/1999/xlink" stroke="rgb(0,0,0)" version="1.1"><defs></defs><g stroke-linejoin="miter" stroke-opacity="1.0" fill-opacity="0.0" stroke="rgb(0,0,0)" stroke-width="0.9298600771827896" fill="rgb(0,0,0)" stroke-linecap="butt" stroke-miterlimit="10.0"><path d="M 216.0000,233.1384 l 0.0000,-13.8564 l -12.0000,-6.9282 l -12.0000,6.9282 l -0.0000,13.8564 l 12.0000,6.9282 Z"/></g><g stroke-linejoin="miter" stroke-opacity="1.0" fill-opacity="0.0" stroke="rgb(0,0,0)" stroke-width="0.9298600771827896" fill="rgb(0,0,0)" stroke-linecap="butt" stroke-miterlimit="10.0"><path d="M 192.0000,233.1384 l 0.0000,-13.8564 l -12.0000,-6.9282 l -12.0000,6.9282 l -0.0000,13.8564 l 12.0000,6.9282 Z"/></g><g stroke-linejoin="miter" stroke-opacity="1.0" fill-opacity="0.0" stroke="rgb(0,0,0)" stroke-width="0.9298600771827896" fill="rgb(0,0,0)" stroke-linecap="butt" stroke-miterlimit="10.0"><path d="M 168.0000,212.3538 l 0.0000,-13.8564 l -12.0000,-6.9282 l -12.0000,6.9282 l -0.0000,13.8564 l 12.0000,6.9282 Z"/></g><g stroke-linejoin="miter" stroke-opacity="1.0" fill-opacity="0.0" stroke="rgb(0,0,0)" stroke-width="0.9298600771827896" fill="rgb(0,0,0)" stroke-linecap="butt" stroke-miterlimit="10.0"><path d="M 144.0000,212.3538 l 0.0000,-13.8564 l -12.0000,-6.9282 l -12.0000,6.9282 l -0.0000,13.8564 l 12.0000,6.9282 Z"/></g><g stroke-linejoin="miter" stroke-opacity="1.0" fill-opacity="0.0" stroke="rgb(0,0,0)" stroke-width="0.9298600771827896" fill="rgb(0,0,0)" stroke-linecap="butt" stroke-miterlimit="10.0"><path d="M 252.0000,122.2872 l 0.0000,-13.8564 l -12.0000,-6.9282 l -12.0000,6.9282 l -0.0000,13.8564 l 12.0000,6.9282 Z"/></g><g stroke-linejoin="miter" stroke-opacity="1.0" fill-opacity="0.0" stroke="rgb(0,0,0)" stroke-width="0.9298600771827896" fill="rgb(0,0,0)" stroke-linecap="butt" stroke-miterlimit="10.0"><path d="M 276.0000,122.2872 l 0.0000,-13.8564 l -12.0000,-6.9282 l -12.0000,6.9282 l -0.0000,13.8564 l 12.0000,6.9282 Z"/></g><g stroke-linejoin="miter" stroke-opacity="1.0" fill-opacity="0.0" stroke="rgb(0,0,0)" stroke-width="0.9298600771827896" fill="rgb(0,0,0)" stroke-linecap="butt" stroke-miterlimit="10.0"><path d="M 300.0000,80.7180 l 0.0000,-13.8564 l -12.0000,-6.9282 l -12.0000,6.9282 l -0.0000,13.8564 l 12.0000,6.9282 Z"/></g><g stroke-linejoin="miter" stroke-opacity="1.0" fill-opacity="0.0" stroke="rgb(0,0,0)" stroke-width="0.9298600771827896" fill="rgb(0,0,0)" stroke-linecap="butt" stroke-miterlimit="10.0"><path d="M 264.0000,101.5026 l 0.0000,-13.8564 l -12.0000,-6.9282 l -12.0000,6.9282 l -0.0000,13.8564 l 12.0000,6.9282 Z"/></g><g stroke-linejoin="miter" stroke-opacity="1.0" fill-opacity="0.0" stroke="rgb(0,0,0)" stroke-width="0.9298600771827896" fill="rgb(0,0,0)" stroke-linecap="butt" stroke-miterlimit="10.0"><path d="M 240.0000,143.0718 l 0.0000,-13.8564 l -12.0000,-6.9282 l -12.0000,6.9282 l -0.0000,13.8564 l 12.0000,6.9282 Z"/></g><g stroke-linejoin="miter" stroke-opacity="1.0" fill-opacity="0.0" stroke="rgb(0,0,0)" stroke-width="0.9298600771827896" fill="rgb(0,0,0)" stroke-linecap="butt" stroke-miterlimit="10.0"><path d="M 276.0000,80.7180 l 0.0000,-13.8564 l -12.0000,-6.9282 l -12.0000,6.9282 l -0.0000,13.8564 l 12.0000,6.9282 Z"/></g><g stroke-linejoin="miter" stroke-opacity="1.0" fill-opacity="0.0" stroke="rgb(0,0,0)" stroke-width="0.9298600771827896" fill="rgb(0,0,0)" stroke-linecap="butt" stroke-miterlimit="10.0"><path d="M 192.0000,122.2872 l 0.0000,-13.8564 l -12.0000,-6.9282 l -12.0000,6.9282 l -0.0000,13.8564 l 12.0000,6.9282 Z"/></g><g stroke-linejoin="miter" stroke-opacity="1.0" fill-opacity="0.0" stroke="rgb(0,0,0)" stroke-width="0.9298600771827896" fill="rgb(0,0,0)" stroke-linecap="butt" stroke-miterlimit="10.0"><path d="M 168.0000,163.8564 l 0.0000,-13.8564 l -12.0000,-6.9282 l -12.0000,6.9282 l -0.0000,13.8564 l 12.0000,6.9282 Z"/></g><g stroke-linejoin="miter" stroke-opacity="1.0" fill-opacity="0.0" stroke="rgb(0,0,0)" stroke-width="0.9298600771827896" fill="rgb(0,0,0)" stroke-linecap="butt" stroke-miterlimit="10.0"><path d="M 216.0000,122.2872 l 0.0000,-13.8564 l -12.0000,-6.9282 l -12.0000,6.9282 l -0.0000,13.8564 l 12.0000,6.9282 Z"/></g><g stroke-linejoin="miter" stroke-opacity="1.0" fill-opacity="0.0" stroke="rgb(0,0,0)" stroke-width="0.9298600771827896" fill="rgb(0,0,0)" stroke-linecap="butt" stroke-miterlimit="10.0"><path d="M 192.0000,163.8564 l 0.0000,-13.8564 l -12.0000,-6.9282 l -12.0000,6.9282 l -0.0000,13.8564 l 12.0000,6.9282 Z"/></g><g stroke-linejoin="miter" stroke-opacity="1.0" fill-opacity="0.0" stroke="rgb(0,0,0)" stroke-width="0.9298600771827896" fill="rgb(0,0,0)" stroke-linecap="butt" stroke-miterlimit="10.0"><path d="M 156.0000,184.6410 l 0.0000,-13.8564 l -12.0000,-6.9282 l -12.0000,6.9282 l -0.0000,13.8564 l 12.0000,6.9282 Z"/></g><g stroke-linejoin="miter" stroke-opacity="1.0" fill-opacity="0.0" stroke="rgb(0,0,0)" stroke-width="0.9298600771827896" fill="rgb(0,0,0)" stroke-linecap="butt" stroke-miterlimit="10.0"><path d="M 180.0000,143.0718 l 0.0000,-13.8564 l -12.0000,-6.9282 l -12.0000,6.9282 l -0.0000,13.8564 l 12.0000,6.9282 Z"/></g><g stroke-linejoin="miter" stroke-opacity="1.0" fill-opacity="1.0" stroke="rgb(0,0,0)" stroke-width="0.9298600771827896" fill="rgb(255,255,255)" stroke-linecap="butt" stroke-miterlimit="10.0"><path d="M 24.0000,143.0718 l 0.0000,-13.8564 l -12.0000,-6.9282 l -12.0000,6.9282 l -0.0000,13.8564 l 12.0000,6.9282 Z"/></g><g stroke-linejoin="miter" stroke-opacity="1.0" fill-opacity="1.0" stroke="rgb(0,0,0)" stroke-width="0.9298600771827896" fill="rgb(255,255,255)" stroke-linecap="butt" stroke-miterlimit="10.0"><path d="M 36.0000,163.8564 l 0.0000,-13.8564 l -12.0000,-6.9282 l -12.0000,6.9282 l -0.0000,13.8564 l 12.0000,6.9282 Z"/></g><g stroke-linejoin="miter" stroke-opacity="1.0" fill-opacity="1.0" stroke="rgb(0,0,0)" stroke-width="0.9298600771827896" fill="rgb(211,211,211)" stroke-linecap="butt" stroke-miterlimit="10.0"><path d="M 48.0000,184.6410 l 0.0000,-13.8564 l -12.0000,-6.9282 l -12.0000,6.9282 l -0.0000,13.8564 l 12.0000,6.9282 Z"/></g><g stroke-linejoin="miter" stroke-opacity="1.0" fill-opacity="1.0" stroke="rgb(0,0,0)" stroke-width="0.9298600771827896" fill="rgb(0,0,0)" stroke-linecap="butt" stroke-miterlimit="10.0"><path d="M 36.0000,122.2872 l 0.0000,-13.8564 l -12.0000,-6.9282 l -12.0000,6.9282 l -0.0000,13.8564 l 12.0000,6.9282 Z"/></g><g stroke-linejoin="miter" stroke-opacity="1.0" fill-opacity="1.0" stroke="rgb(0,0,0)" stroke-width="0.9298600771827896" fill="rgb(255,255,255)" stroke-linecap="butt" stroke-miterlimit="10.0"><path d="M 48.0000,143.0718 l 0.0000,-13.8564 l -12.0000,-6.9282 l -12.0000,6.9282 l -0.0000,13.8564 l 12.0000,6.9282 Z"/></g><g stroke-linejoin="miter" stroke-opacity="1.0" fill-opacity="1.0" stroke="rgb(0,0,0)" stroke-width="0.9298600771827896" fill="rgb(211,211,211)" stroke-linecap="butt" stroke-miterlimit="10.0"><path d="M 60.0000,163.8564 l 0.0000,-13.8564 l -12.0000,-6.9282 l -12.0000,6.9282 l -0.0000,13.8564 l 12.0000,6.9282 Z"/></g><g stroke-linejoin="miter" stroke-opacity="1.0" fill-opacity="1.0" stroke="rgb(0,0,0)" stroke-width="0.9298600771827896" fill="rgb(255,255,255)" stroke-linecap="butt" stroke-miterlimit="10.0"><path d="M 72.0000,184.6410 l 0.0000,-13.8564 l -12.0000,-6.9282 l -12.0000,6.9282 l -0.0000,13.8564 l 12.0000,6.9282 Z"/></g><g stroke-linejoin="miter" stroke-opacity="1.0" fill-opacity="1.0" stroke="rgb(0,0,0)" stroke-width="0.9298600771827896" fill="rgb(255,255,255)" stroke-linecap="butt" stroke-miterlimit="10.0"><path d="M 48.0000,101.5026 l 0.0000,-13.8564 l -12.0000,-6.9282 l -12.0000,6.9282 l -0.0000,13.8564 l 12.0000,6.9282 Z"/></g><g stroke-linejoin="miter" stroke-opacity="1.0" fill-opacity="1.0" stroke="rgb(0,0,0)" stroke-width="0.9298600771827896" fill="rgb(0,0,0)" stroke-linecap="butt" stroke-miterlimit="10.0"><path d="M 60.0000,122.2872 l 0.0000,-13.8564 l -12.0000,-6.9282 l -12.0000,6.9282 l -0.0000,13.8564 l 12.0000,6.9282 Z"/></g><g stroke-linejoin="miter" stroke-opacity="1.0" fill-opacity="1.0" stroke="rgb(0,0,0)" stroke-width="0.9298600771827896" fill="rgb(211,211,211)" stroke-linecap="butt" stroke-miterlimit="10.0"><path d="M 72.0000,143.0718 l 0.0000,-13.8564 l -12.0000,-6.9282 l -12.0000,6.9282 l -0.0000,13.8564 l 12.0000,6.9282 Z"/></g><g stroke-linejoin="miter" stroke-opacity="1.0" fill-opacity="1.0" stroke="rgb(0,0,0)" stroke-width="0.9298600771827896" fill="rgb(211,211,211)" stroke-linecap="butt" stroke-miterlimit="10.0"><path d="M 84.0000,163.8564 l 0.0000,-13.8564 l -12.0000,-6.9282 l -12.0000,6.9282 l -0.0000,13.8564 l 12.0000,6.9282 Z"/></g><g stroke-linejoin="miter" stroke-opacity="1.0" fill-opacity="1.0" stroke="rgb(0,0,0)" stroke-width="0.9298600771827896" fill="rgb(255,255,255)" stroke-linecap="butt" stroke-miterlimit="10.0"><path d="M 96.0000,184.6410 l 0.0000,-13.8564 l -12.0000,-6.9282 l -12.0000,6.9282 l -0.0000,13.8564 l 12.0000,6.9282 Z"/></g><g stroke-linejoin="miter" stroke-opacity="1.0" fill-opacity="1.0" stroke="rgb(0,0,0)" stroke-width="0.9298600771827896" fill="rgb(255,255,255)" stroke-linecap="butt" stroke-miterlimit="10.0"><path d="M 72.0000,101.5026 l 0.0000,-13.8564 l -12.0000,-6.9282 l -12.0000,6.9282 l -0.0000,13.8564 l 12.0000,6.9282 Z"/></g><g stroke-linejoin="miter" stroke-opacity="1.0" fill-opacity="1.0" stroke="rgb(0,0,0)" stroke-width="0.9298600771827896" fill="rgb(211,211,211)" stroke-linecap="butt" stroke-miterlimit="10.0"><path d="M 84.0000,122.2872 l 0.0000,-13.8564 l -12.0000,-6.9282 l -12.0000,6.9282 l -0.0000,13.8564 l 12.0000,6.9282 Z"/></g><g stroke-linejoin="miter" stroke-opacity="1.0" fill-opacity="1.0" stroke="rgb(0,0,0)" stroke-width="0.9298600771827896" fill="rgb(255,255,255)" stroke-linecap="butt" stroke-miterlimit="10.0"><path d="M 96.0000,143.0718 l 0.0000,-13.8564 l -12.0000,-6.9282 l -12.0000,6.9282 l -0.0000,13.8564 l 12.0000,6.9282 Z"/></g><g stroke-linejoin="miter" stroke-opacity="1.0" fill-opacity="1.0" stroke="rgb(0,0,0)" stroke-width="0.9298600771827896" fill="rgb(255,255,255)" stroke-linecap="butt" stroke-miterlimit="10.0"><path d="M 108.0000,163.8564 l 0.0000,-13.8564 l -12.0000,-6.9282 l -12.0000,6.9282 l -0.0000,13.8564 l 12.0000,6.9282 Z"/></g><g stroke-linejoin="miter" stroke-opacity="1.0" fill-opacity="1.0" stroke="rgb(0,0,0)" stroke-width="0.9298600771827896" fill="rgb(255,255,255)" stroke-linecap="butt" stroke-miterlimit="10.0"><path d="M 96.0000,101.5026 l 0.0000,-13.8564 l -12.0000,-6.9282 l -12.0000,6.9282 l -0.0000,13.8564 l 12.0000,6.9282 Z"/></g><g stroke-linejoin="miter" stroke-opacity="1.0" fill-opacity="1.0" stroke="rgb(0,0,0)" stroke-width="0.9298600771827896" fill="rgb(211,211,211)" stroke-linecap="butt" stroke-miterlimit="10.0"><path d="M 108.0000,122.2872 l 0.0000,-13.8564 l -12.0000,-6.9282 l -12.0000,6.9282 l -0.0000,13.8564 l 12.0000,6.9282 Z"/></g><g stroke-linejoin="miter" stroke-opacity="1.0" fill-opacity="1.0" stroke="rgb(0,0,0)" stroke-width="0.9298600771827896" fill="rgb(255,255,255)" stroke-linecap="butt" stroke-miterlimit="10.0"><path d="M 120.0000,143.0718 l 0.0000,-13.8564 l -12.0000,-6.9282 l -12.0000,6.9282 l -0.0000,13.8564 l 12.0000,6.9282 Z"/></g></svg>