<?xml version="1.0" encoding="UTF-8"?>
<!DOCTYPE svg PUBLIC "-//W3C//DTD SVG 1.1//EN"
    "http://www.w3.org/Graphics/SVG/1.1/DTD/svg11.dtd"><svg xmlns="http://www.w3.org/2000/svg" height="100.0000" stroke-opacity="1" viewBox="0 0 100 100" font-size="1" width="100.0000" xmlns:xlink="http://www.w3.org/1999/xlink" stroke="rgb(0,0,0)" version="1.1"><defs></defs><g stroke-linejoin="miter" stroke-opacity="1.0" fill-opacity="1.0" stroke="rgb(0,0,0)" stroke-width="0.5" fill="rgb(255,255,255)" stroke-linecap="butt" stroke-miterlimit="10.0"><path d="M 20.0000,55.7735 l 0.0000,-11.5470 l -10.0000,-5.7735 l -10.0000,5.7735 l -0.0000,11.5470 l 10.0000,5.7735 Z"/></g><g stroke-linejoin="miter" stroke-opacity="1.0" fill-opacity="1.0" stroke="rgb(0,0,0)" stroke-width="0.5" fill="rgb(255,255,255)" stroke-linecap="butt" stroke-miterlimit="10.0"><path d="M 30.0000,73.0940 l 0.0000,-11.5470 l -10.0000,-5.7735 l -10.0000,5.7735 l -0.0000,11.5470 l 10.0000,5.7735 Z"/></g><g stroke-linejoin="miter" stroke-opacity="1.0" fill-opacity="1.0" stroke="rgb(0,0,0)" stroke-width="0.5" fill="rgb(211,211,211)" stroke-linecap="butt" stroke-miterlimit="10.0"><path d="M 40.0000,90.4145 l 0.0000,-11.5470 l -10.0000,-5.7735 l -10.0000,5.7735 l -0.0000,11.5470 l 10.0000,5.7735 Z"/></g><g stroke-linejoin="miter" stroke-opacity="1.0" fill-opacity="1.0" stroke="rgb(0,0,0)" stroke-width="0.5" fill="rgb(0,0,0)" stroke-linecap="butt" stroke-miterlimit="10.0"><path d="M 30.0000,38.4530 l 0.0000,-11.5470 l -10.0000,-5.7735 l -10.0000,5.7735 l -0.0000,11.5470 l 10.0000,5.7735 Z"/></g><g stroke-linejoin="miter" stroke-opacity="1.0" fill-opacity="1.0" stroke="rgb(0,0,0)" stroke-width="0.5" fill="rgb(255,255,255)" stroke-linecap="butt" stroke-miterlimit="10.0"><path d="M 40.0000,55.7735 l 0.0000,-11.5470 l -10.0000,-5.7735 l -10.0000,5.7735 l -0.0000,11.5470 l 10.0000,5.7735 Z"/></g><g stroke-linejoin="miter" stroke-opacity="1.0" fill-opacity="1.0" stroke="rgb(0,0,0)" stroke-width="0.5" fill="rgb(211,211,211)" stroke-linecap="butt" stroke-miterlimit="10.0"><path d="M 50.0000,73.0940 l 0.0000,-11.5470 l -10.0000,-5.7735 l -10.0000,5.7735 l -0.0000,11.5470 l 10.0000,5.7735 Z"/></g><g stroke-linejoin="miter" stroke-opacity="1.0" fill-opacity="1.0" stroke="rgb(0,0,0)" stroke-width="0.5" fill="rgb(255,255,255)" stroke-linecap="butt" stroke-miterlimit="10.0"><path d="M 60.0000,90.4145 l 0.0000,-11.5470 l -10.0000,-5.7735 l -10.0000,5.7735 l -0.0000,11.5470 l 10.0000,5.7735 Z"/></g><g stroke-linejoin="miter" stroke-opacity="1.0" fill-opacity="1.0" stroke="rgb(0,0,0)" stroke-width="0.5" fill="rgb(255,255,255)" stroke-linecap="butt" stroke-miterlimit="10.0"><path d="M 40.0000,21.1325 l 0.0000,-11.5470 l -10.0000,-5.7735 l -10.0000,5.7735 l -0.0000,11.5470 l 10.0000,5.7735 Z"/></g><g stroke-linejoin="miter" stroke-opacity="1.0" fill-opacity="1.0" stroke="rgb(0,0,0)" stroke-width="0.5" fill="rgb(0,0,0)" stroke-linecap="butt" stroke-miterlimit="10.0"><path d="M 50.0000,38.4530 l 0.0000,-11.5470 l -10.0000,-5.7735 l -10.0000,5.7735 l -0.0000,11.5470 l 10.0000,5.7735 Z"/></g><g stroke-linejoin="miter" stroke-opacity="1.0" fill-opacity="1.0" stroke="rgb(0,0,0)" stroke-width="0.5" fill="rgb(211,211,211)" stroke-linecap="butt" stroke-miterlimit="10.0"><path d="M 60.0000,55.7735 l 0.0000,-11.5470 l -10.0000,-5.7735 l -10.0000,5.7735 l -0.0000,11.5470 l 10.0000,5.7735 Z"/></g><g stroke-linejoin="miter" stroke-opacity="1.0" fill-opacity="1.0" stroke="rgb(0,0,0)" stroke-width="0.5" fill="rgb(211,211,211)" stroke-linecap="butt" stroke-miterlimit="10.0"><path d="M 70.0000,73.0940 l 0.0000,-11.5470 l -10.0000,-5.7735 l -10.0000,5.7735 l -0.0000,11.5470 l 10.0000,5.7735 Z"/></g><g stroke-linejoin="miter" stroke-opacity="1.0" fill-opacity="1.0" stroke="rgb(0,0,0)" stroke-width="0.5" fill="rgb(255,255,255)" stroke-linecap="butt" stroke-miterlimit="10.0"><path d="M 80.0000,90.4145 l 0.0000,-11.5470 l -10.0000,-5.7735 l -10.0000,5.7735 l -0.0000,11.5470 l 10.0000,5.7735 Z"/></g><g stroke-linejoin="miter" stroke-opacity="1.0" fill-opacity="1.0" stroke="rgb(0,0,0)" stroke-width="0.5" fill="rgb(255,255,255)" stroke-linecap="butt" stroke-miterlimit="10.0"><path d="M 60.0000,21.1325 l 0.0000,-11.5470 l -10.0000,-5.7735 l -10.0000,5.7735 l -0.0000,11.5470 l 10.0000,5.7735 Z"/></g><g stroke-linejoin="miter" stroke-opacity="1.0" fill-opacity="1.0" stroke="rgb(0,0,0)" stroke-width="0.5" fill="rgb(211,211,211)" stroke-linecap="butt" stroke-miterlimit="10.0"><path d="M 70.0000,38.4530 l 0.0000,-11.5470 l -10.0000,-5.7735 l -10.0000,5.7735 l -0.0000,11.5470 l 10.0000,5.7735 Z"/></g><g stroke-linejoin="miter" stroke-opacity="1.0" fill-opacity="1.0" stroke="rgb(0,0,0)" stroke-width="0.5" fill="rgb(255,255,255)" stroke-linecap="butt" stroke-miterlimit="10.0"><path d="M 80.0000,55.7735 l 0.0000,-11.5470 l -10.0000,-5.7735 l -10.0000,5.7735 l -0.0000,11.5470 l 10.0000,5.7735 Z"/></g><g stroke-linejoin="miter" stroke-opacity="1.0" fill-opacity="1.0" stroke="rgb(0,0,0)" stroke-width="0.5" fill="rgb(255,255,255)" stroke-linecap="butt" stroke-miterlimit="10.0"><path d="M 90.0000,73.0940 l 0.0000,-11.5470 l -10.0000,-5.7735 l -10.0000,5.7735 l -0.0000,11.5470 l 10.0000,5.7735 Z"/></g><g stroke-linejoin="miter" stroke-opacity="1.0" fill-opacity="1.0" stroke="rgb(0,0,0)" stroke-width="0.5" fill="rgb(255,255,255)" stroke-linecap="butt" stroke-miterlimit="10.0"><path d="M 80.0000,21.1325 l 0.0000,-11.5470 l -10.0000,-5.7735 l -10.0000,5.7735 l -0.0000,11.5470 l 10.0000,5.7735 Z"/></g><g stroke-linejoin="miter" stroke-opacity="1.0" fill-opacity="1.0" stroke="rgb(0,0,0)" stroke-width="0.5" fill="rgb(211,211,211)" stroke-linecap="butt" stroke-miterlimit="10.0"><path d="M 90.0000,38.4530 l 0.0000,-11.5470 l -10.0000,-5.7735 l -10.0000,5.7735 l -0.0000,11.5470 l 10.0000,5.7735 Z"/></g><g stroke-linejoin="miter" stroke-opacity="1.0" fill-opacity="1.0" stroke="rgb(0,0,0)" stroke-width="0.5" fill="rgb(255,255,255)" stroke-linecap="butt" stroke-miterlimit="10.0"><path d="M 100.0000,55.7735 l 0.0000,-11.5470 l -10.0000,-5.7735 l -10.0000,5.7735 l -0.0000,11.5470 l 10.0000,5.7735 Z"/></g></svg>